<?xml version="1.0" encoding="utf-8" standalone="no"?>
<!DOCTYPE svg PUBLIC "-//W3C//DTD SVG 1.1//EN"
  "http://www.w3.org/Graphics/SVG/1.1/DTD/svg11.dtd">
<svg xmlns:xlink="http://www.w3.org/1999/xlink" width="576pt" height="432pt" viewBox="0 0 576 432" xmlns="http://www.w3.org/2000/svg" version="1.1">
 <metadata>
  <rdf:RDF xmlns:dc="http://purl.org/dc/elements/1.1/" xmlns:cc="http://creativecommons.org/ns#" xmlns:rdf="http://www.w3.org/1999/02/22-rdf-syntax-ns#">
   <cc:Work>
    <dc:type rdf:resource="http://purl.org/dc/dcmitype/StillImage"/>
    <dc:date>2026-04-03T11:12:34.504034</dc:date>
    <dc:format>image/svg+xml</dc:format>
    <dc:creator>
     <cc:Agent>
      <dc:title>Matplotlib v3.10.8, https://matplotlib.org/</dc:title>
     </cc:Agent>
    </dc:creator>
   </cc:Work>
  </rdf:RDF>
 </metadata>
 <defs>
  <style type="text/css">*{stroke-linejoin: round; stroke-linecap: butt}</style>
 </defs>
 <g id="figure_1">
  <g id="patch_1">
   <path d="M 0 432 
L 576 432 
L 576 0 
L 0 0 
z
" style="fill: #ffffff"/>
  </g>
  <g id="axes_1">
   <g id="patch_2">
    <path d="M 47.45 387.16 
L 558.135 387.16 
L 558.135 26.88 
L 47.45 26.88 
z
" style="fill: #ffffff"/>
   </g>
   <g id="matplotlib.axis_1">
    <g id="xtick_1">
     <g id="line2d_1">
      <path d="M 47.45 387.16 
L 47.45 26.88 
" clip-path="url(#p3f23b2ab3e)" style="fill: none; stroke: #b0b0b0; stroke-opacity: 0.25; stroke-width: 0.8; stroke-linecap: square"/>
     </g>
     <g id="line2d_2">
      <defs>
       <path id="m58e614e1c0" d="M 0 0 
L 0 3.5 
" style="stroke: #000000; stroke-width: 0.8"/>
      </defs>
      <g>
       <use xlink:href="#m58e614e1c0" x="47.45" y="387.16" style="stroke: #000000; stroke-width: 0.8"/>
      </g>
     </g>
     <g id="text_1">
      <!-- 0.0 -->
      <g transform="translate(40.382031 402.15375) scale(0.1 -0.1)">
       <defs>
        <path id="MicrosoftYaHei-30" d="M 284 2325 
Q 284 3606 709 4264 
Q 1134 4922 1941 4922 
Q 3478 4922 3478 2441 
Q 3478 1216 3045 567 
Q 2613 -81 1831 -81 
Q 1094 -81 689 534 
Q 284 1150 284 2325 
z
M 909 2353 
Q 909 425 1888 425 
Q 2850 425 2850 2384 
Q 2850 4413 1906 4413 
Q 909 4413 909 2353 
z
" transform="scale(0.015625)"/>
        <path id="MicrosoftYaHei-2e" d="M 372 322 
Q 372 491 487 606 
Q 603 722 775 722 
Q 950 722 1065 605 
Q 1181 488 1181 322 
Q 1181 159 1065 42 
Q 950 -75 772 -75 
Q 600 -75 486 42 
Q 372 159 372 322 
z
" transform="scale(0.015625)"/>
       </defs>
       <use xlink:href="#MicrosoftYaHei-30"/>
       <use xlink:href="#MicrosoftYaHei-2e" transform="translate(58.642578 0)"/>
       <use xlink:href="#MicrosoftYaHei-30" transform="translate(82.714844 0)"/>
      </g>
     </g>
    </g>
    <g id="xtick_2">
     <g id="line2d_3">
      <path d="M 149.587 387.16 
L 149.587 26.88 
" clip-path="url(#p3f23b2ab3e)" style="fill: none; stroke: #b0b0b0; stroke-opacity: 0.25; stroke-width: 0.8; stroke-linecap: square"/>
     </g>
     <g id="line2d_4">
      <g>
       <use xlink:href="#m58e614e1c0" x="149.587" y="387.16" style="stroke: #000000; stroke-width: 0.8"/>
      </g>
     </g>
     <g id="text_2">
      <!-- 0.2 -->
      <g transform="translate(142.519031 402.15375) scale(0.1 -0.1)">
       <defs>
        <path id="MicrosoftYaHei-32" d="M 2666 3572 
Q 2666 3963 2419 4186 
Q 2172 4409 1747 4409 
Q 1447 4409 1140 4256 
Q 834 4103 569 3819 
L 569 4413 
Q 806 4659 1107 4790 
Q 1409 4922 1816 4922 
Q 2472 4922 2872 4570 
Q 3272 4219 3272 3619 
Q 3272 3084 3026 2693 
Q 2781 2303 2188 1894 
Q 1581 1475 1376 1294 
Q 1172 1113 1090 947 
Q 1009 781 1009 544 
L 3416 544 
L 3416 0 
L 372 0 
L 372 241 
Q 372 659 486 951 
Q 600 1244 862 1520 
Q 1125 1797 1681 2184 
Q 2250 2584 2458 2886 
Q 2666 3188 2666 3572 
z
" transform="scale(0.015625)"/>
       </defs>
       <use xlink:href="#MicrosoftYaHei-30"/>
       <use xlink:href="#MicrosoftYaHei-2e" transform="translate(58.642578 0)"/>
       <use xlink:href="#MicrosoftYaHei-32" transform="translate(82.714844 0)"/>
      </g>
     </g>
    </g>
    <g id="xtick_3">
     <g id="line2d_5">
      <path d="M 251.724 387.16 
L 251.724 26.88 
" clip-path="url(#p3f23b2ab3e)" style="fill: none; stroke: #b0b0b0; stroke-opacity: 0.25; stroke-width: 0.8; stroke-linecap: square"/>
     </g>
     <g id="line2d_6">
      <g>
       <use xlink:href="#m58e614e1c0" x="251.724" y="387.16" style="stroke: #000000; stroke-width: 0.8"/>
      </g>
     </g>
     <g id="text_3">
      <!-- 0.4 -->
      <g transform="translate(244.656031 402.15375) scale(0.1 -0.1)">
       <defs>
        <path id="MicrosoftYaHei-34" d="M 2906 4841 
L 2906 1644 
L 3631 1644 
L 3631 1138 
L 2906 1138 
L 2906 0 
L 2313 0 
L 2313 1138 
L 53 1138 
L 53 1616 
Q 656 2294 1265 3178 
Q 1875 4063 2272 4841 
L 2906 4841 
z
M 741 1644 
L 2313 1644 
L 2313 3950 
Q 1988 3366 1616 2817 
Q 1244 2269 741 1644 
z
" transform="scale(0.015625)"/>
       </defs>
       <use xlink:href="#MicrosoftYaHei-30"/>
       <use xlink:href="#MicrosoftYaHei-2e" transform="translate(58.642578 0)"/>
       <use xlink:href="#MicrosoftYaHei-34" transform="translate(82.714844 0)"/>
      </g>
     </g>
    </g>
    <g id="xtick_4">
     <g id="line2d_7">
      <path d="M 353.861 387.16 
L 353.861 26.88 
" clip-path="url(#p3f23b2ab3e)" style="fill: none; stroke: #b0b0b0; stroke-opacity: 0.25; stroke-width: 0.8; stroke-linecap: square"/>
     </g>
     <g id="line2d_8">
      <g>
       <use xlink:href="#m58e614e1c0" x="353.861" y="387.16" style="stroke: #000000; stroke-width: 0.8"/>
      </g>
     </g>
     <g id="text_4">
      <!-- 0.6 -->
      <g transform="translate(346.793031 402.15375) scale(0.1 -0.1)">
       <defs>
        <path id="MicrosoftYaHei-36" d="M 3181 4219 
Q 2803 4413 2391 4413 
Q 1763 4413 1381 3866 
Q 1000 3319 994 2372 
L 1009 2372 
Q 1353 3038 2106 3038 
Q 2734 3038 3109 2628 
Q 3484 2219 3484 1541 
Q 3484 831 3051 375 
Q 2619 -81 1947 -81 
Q 1209 -81 789 495 
Q 369 1072 369 2131 
Q 369 3413 920 4167 
Q 1472 4922 2372 4922 
Q 2888 4922 3181 4781 
L 3181 4219 
z
M 1031 1584 
Q 1031 1106 1286 765 
Q 1541 425 1963 425 
Q 2363 425 2613 719 
Q 2863 1013 2863 1475 
Q 2863 1975 2627 2253 
Q 2391 2531 1956 2531 
Q 1544 2531 1287 2250 
Q 1031 1969 1031 1584 
z
" transform="scale(0.015625)"/>
       </defs>
       <use xlink:href="#MicrosoftYaHei-30"/>
       <use xlink:href="#MicrosoftYaHei-2e" transform="translate(58.642578 0)"/>
       <use xlink:href="#MicrosoftYaHei-36" transform="translate(82.714844 0)"/>
      </g>
     </g>
    </g>
    <g id="xtick_5">
     <g id="line2d_9">
      <path d="M 455.998 387.16 
L 455.998 26.88 
" clip-path="url(#p3f23b2ab3e)" style="fill: none; stroke: #b0b0b0; stroke-opacity: 0.25; stroke-width: 0.8; stroke-linecap: square"/>
     </g>
     <g id="line2d_10">
      <g>
       <use xlink:href="#m58e614e1c0" x="455.998" y="387.16" style="stroke: #000000; stroke-width: 0.8"/>
      </g>
     </g>
     <g id="text_5">
      <!-- 0.8 -->
      <g transform="translate(448.930031 402.15375) scale(0.1 -0.1)">
       <defs>
        <path id="MicrosoftYaHei-38" d="M 306 1350 
Q 306 1769 556 2122 
Q 806 2475 1200 2625 
Q 884 2803 700 3081 
Q 516 3359 516 3684 
Q 516 4028 692 4312 
Q 869 4597 1183 4759 
Q 1497 4922 1875 4922 
Q 2256 4922 2572 4761 
Q 2888 4600 3063 4315 
Q 3238 4031 3238 3684 
Q 3238 3366 3058 3086 
Q 2878 2806 2559 2625 
Q 2953 2472 3200 2119 
Q 3447 1766 3447 1350 
Q 3447 938 3250 611 
Q 3053 284 2690 103 
Q 2328 -78 1875 -78 
Q 1425 -78 1065 103 
Q 706 284 506 612 
Q 306 941 306 1350 
z
M 906 1378 
Q 906 947 1172 687 
Q 1438 428 1878 428 
Q 2309 428 2582 692 
Q 2856 956 2856 1378 
Q 2856 1778 2579 2051 
Q 2303 2325 1878 2325 
Q 1456 2325 1181 2058 
Q 906 1791 906 1378 
z
M 1081 3634 
Q 1081 3309 1312 3076 
Q 1544 2844 1878 2844 
Q 2206 2844 2445 3078 
Q 2684 3313 2684 3634 
Q 2684 3963 2454 4191 
Q 2225 4419 1878 4419 
Q 1534 4419 1307 4195 
Q 1081 3972 1081 3634 
z
" transform="scale(0.015625)"/>
       </defs>
       <use xlink:href="#MicrosoftYaHei-30"/>
       <use xlink:href="#MicrosoftYaHei-2e" transform="translate(58.642578 0)"/>
       <use xlink:href="#MicrosoftYaHei-38" transform="translate(82.714844 0)"/>
      </g>
     </g>
    </g>
    <g id="xtick_6">
     <g id="line2d_11">
      <path d="M 558.135 387.16 
L 558.135 26.88 
" clip-path="url(#p3f23b2ab3e)" style="fill: none; stroke: #b0b0b0; stroke-opacity: 0.25; stroke-width: 0.8; stroke-linecap: square"/>
     </g>
     <g id="line2d_12">
      <g>
       <use xlink:href="#m58e614e1c0" x="558.135" y="387.16" style="stroke: #000000; stroke-width: 0.8"/>
      </g>
     </g>
     <g id="text_6">
      <!-- 1.0 -->
      <g transform="translate(551.067031 402.15375) scale(0.1 -0.1)">
       <defs>
        <path id="MicrosoftYaHei-31" d="M 1781 0 
L 1781 4141 
Q 1638 3997 1295 3819 
Q 953 3641 663 3569 
L 663 4169 
Q 1047 4275 1484 4508 
Q 1922 4741 2156 4947 
L 2388 4947 
L 2388 0 
L 1781 0 
z
" transform="scale(0.015625)"/>
       </defs>
       <use xlink:href="#MicrosoftYaHei-31"/>
       <use xlink:href="#MicrosoftYaHei-2e" transform="translate(58.642578 0)"/>
       <use xlink:href="#MicrosoftYaHei-30" transform="translate(82.714844 0)"/>
      </g>
     </g>
    </g>
    <g id="text_7">
     <!-- 假正例率 (False Positive Rate) -->
     <g transform="translate(234.320625 416.633438) scale(0.1 -0.1)">
      <defs>
       <path id="MicrosoftYaHei-5047" d="M 3763 4953 
L 3763 2841 
L 3325 2841 
L 3325 3034 
L 2319 3034 
L 2319 2247 
L 3625 2247 
L 3625 1847 
L 2319 1847 
L 2319 1047 
L 3706 1047 
L 3706 647 
L 2319 647 
L 2319 -847 
L 1856 -847 
L 1856 4953 
L 3763 4953 
z
M 3756 2109 
L 3756 2497 
L 5963 2497 
L 5963 2122 
Q 5763 1094 5191 369 
Q 5663 -106 6381 -378 
Q 6138 -659 6031 -816 
Q 5350 -463 4888 34 
Q 4309 -531 3450 -872 
Q 3325 -684 3156 -472 
Q 4044 -159 4606 375 
Q 4081 1109 3941 2109 
L 3756 2109 
z
M 63 2247 
Q 863 3666 1175 5316 
L 1638 5228 
Q 1478 4528 1256 3881 
L 1256 -859 
L 819 -859 
L 819 2788 
Q 566 2244 263 1741 
Q 181 1984 63 2247 
z
M 3969 3447 
L 5475 3447 
L 5475 4559 
L 4006 4559 
L 4006 4959 
L 5913 4959 
L 5913 2809 
L 5475 2809 
L 5475 3047 
L 3969 3047 
L 3969 3447 
z
M 3325 4553 
L 2319 4553 
L 2319 3434 
L 3325 3434 
L 3325 4553 
z
M 5513 2109 
L 4350 2109 
Q 4484 1288 4903 703 
Q 5366 1297 5513 2109 
z
" transform="scale(0.015625)"/>
       <path id="MicrosoftYaHei-6b63" d="M 88 66 
L 1106 66 
L 1106 3416 
L 1644 3416 
L 1644 66 
L 3231 66 
L 3231 4309 
L 375 4309 
L 375 4797 
L 6063 4797 
L 6063 4309 
L 3769 4309 
L 3769 2672 
L 5850 2672 
L 5850 2191 
L 3769 2191 
L 3769 66 
L 6313 66 
L 6313 -422 
L 88 -422 
L 88 66 
z
" transform="scale(0.015625)"/>
       <path id="MicrosoftYaHei-4f8b" d="M 2381 1841 
L 2631 2191 
Q 2916 1997 3247 1738 
Q 3488 2378 3581 3128 
L 2703 3128 
Q 2350 1984 1831 1291 
Q 1700 1491 1531 1678 
Q 2238 2694 2578 4522 
L 1900 4522 
L 1900 4959 
L 4319 4959 
L 4319 4522 
L 3044 4522 
Q 2947 4009 2828 3559 
L 4044 3559 
L 4044 3128 
Q 3788 666 2038 -822 
Q 1900 -634 1694 -416 
Q 2578 297 3063 1303 
Q 2753 1556 2381 1841 
z
M 88 2291 
Q 894 3659 1281 5322 
L 1744 5234 
Q 1578 4534 1325 3853 
L 1325 -809 
L 900 -809 
L 900 2847 
Q 625 2275 288 1716 
Q 213 1966 88 2291 
z
M 5575 5303 
L 6031 5303 
L 6031 84 
Q 6031 -391 5881 -566 
Q 5750 -728 5356 -734 
Q 5088 -741 4488 -722 
Q 4463 -466 4400 -203 
Q 4881 -253 5188 -253 
Q 5431 -259 5500 -166 
Q 5575 -84 5575 234 
L 5575 5303 
z
M 4913 653 
L 4469 653 
L 4469 4322 
L 4913 4322 
L 4913 653 
z
" transform="scale(0.015625)"/>
       <path id="MicrosoftYaHei-7387" d="M 2525 2009 
Q 2622 2016 3928 2081 
Q 3772 2300 3625 2491 
L 3963 2703 
Q 4413 2203 4794 1653 
L 4394 1403 
Q 4284 1569 4178 1725 
Q 2991 1659 2213 1597 
Q 2075 1584 1881 1541 
L 1725 1966 
Q 1913 2028 2006 2084 
Q 2534 2441 3050 2913 
Q 2597 2894 2275 2866 
Q 2144 2847 1988 2809 
L 1800 3191 
Q 1956 3247 2088 3366 
Q 2509 3722 2875 4228 
L 231 4228 
L 231 4666 
L 3031 4666 
Q 2878 4944 2744 5153 
L 3194 5372 
Q 3438 5000 3616 4666 
L 6175 4666 
L 6175 4228 
L 3053 4228 
L 3350 4072 
Q 2844 3553 2494 3247 
Q 2850 3256 3425 3269 
Q 3675 3519 3925 3797 
L 4356 3547 
Q 3363 2603 2525 2009 
z
M 144 991 
L 2994 991 
L 2994 1541 
L 3488 1541 
L 3488 991 
L 6275 991 
L 6275 553 
L 3488 553 
L 3488 -853 
L 2994 -853 
L 2994 553 
L 144 553 
L 144 991 
z
M 1719 2672 
L 1944 2303 
Q 1200 1866 425 1409 
L 163 1828 
Q 813 2134 1719 2672 
z
M 4856 2678 
Q 5750 2172 6250 1816 
L 5975 1409 
Q 5331 1909 4600 2341 
L 4856 2678 
z
M 5994 3591 
Q 5519 3178 4963 2809 
L 4644 3141 
Q 5244 3534 5638 3928 
L 5994 3591 
z
M 363 3634 
L 681 3941 
Q 1200 3528 1588 3159 
L 1238 2816 
Q 875 3197 363 3634 
z
" transform="scale(0.015625)"/>
       <path id="MicrosoftYaHei-20" transform="scale(0.015625)"/>
       <path id="MicrosoftYaHei-28" d="M 1531 -1100 
Q 478 100 478 1847 
Q 478 3594 1531 4841 
L 2072 4841 
Q 1016 3544 1016 1853 
Q 1016 166 2066 -1100 
L 1531 -1100 
z
" transform="scale(0.015625)"/>
       <path id="MicrosoftYaHei-46" d="M 3119 4284 
L 1250 4284 
L 1250 2666 
L 2981 2666 
L 2981 2116 
L 1250 2116 
L 1250 0 
L 625 0 
L 625 4841 
L 3119 4841 
L 3119 4284 
z
" transform="scale(0.015625)"/>
       <path id="MicrosoftYaHei-61" d="M 628 3216 
Q 1144 3538 1819 3538 
Q 3069 3538 3069 2225 
L 3069 0 
L 2463 0 
L 2463 534 
L 2447 534 
Q 2088 -81 1388 -81 
Q 884 -81 587 191 
Q 291 463 291 925 
Q 291 1894 1438 2053 
L 2463 2197 
Q 2463 3044 1763 3044 
Q 1141 3044 628 2625 
L 628 3216 
z
M 1653 1625 
Q 1228 1569 1067 1412 
Q 906 1256 906 975 
Q 906 728 1081 572 
Q 1256 416 1544 416 
Q 1944 416 2203 697 
Q 2463 978 2463 1403 
L 2463 1734 
L 1653 1625 
z
" transform="scale(0.015625)"/>
       <path id="MicrosoftYaHei-6c" d="M 544 0 
L 544 5116 
L 1156 5116 
L 1156 0 
L 544 0 
z
" transform="scale(0.015625)"/>
       <path id="MicrosoftYaHei-73" d="M 353 747 
Q 816 413 1350 413 
Q 2066 413 2066 881 
Q 2066 1081 1909 1211 
Q 1753 1341 1275 1519 
Q 700 1750 528 1976 
Q 356 2203 356 2525 
Q 356 2984 745 3261 
Q 1134 3538 1703 3538 
Q 2144 3538 2522 3384 
L 2522 2794 
Q 2134 3044 1644 3044 
Q 1350 3044 1165 2916 
Q 981 2788 981 2578 
Q 981 2372 1114 2256 
Q 1247 2141 1703 1959 
Q 2281 1744 2484 1512 
Q 2688 1281 2688 941 
Q 2688 466 2298 192 
Q 1909 -81 1291 -81 
Q 753 -81 353 122 
L 353 747 
z
" transform="scale(0.015625)"/>
       <path id="MicrosoftYaHei-65" d="M 3363 1572 
L 944 1572 
Q 959 1019 1246 717 
Q 1534 416 2050 416 
Q 2631 416 3116 788 
L 3116 241 
Q 2659 -81 1906 -81 
Q 1156 -81 736 394 
Q 316 869 316 1713 
Q 316 2506 777 3022 
Q 1238 3538 1922 3538 
Q 2600 3538 2981 3102 
Q 3363 2666 3363 1881 
L 3363 1572 
z
M 2750 2063 
Q 2747 2531 2528 2787 
Q 2309 3044 1913 3044 
Q 1547 3044 1280 2772 
Q 1013 2500 944 2063 
L 2750 2063 
z
" transform="scale(0.015625)"/>
       <path id="MicrosoftYaHei-50" d="M 1250 1809 
L 1250 0 
L 625 0 
L 625 4841 
L 2000 4841 
Q 2784 4841 3217 4462 
Q 3650 4084 3650 3381 
Q 3650 2669 3144 2226 
Q 2638 1784 1878 1809 
L 1250 1809 
z
M 1250 4291 
L 1250 2359 
L 1828 2359 
Q 2400 2359 2697 2617 
Q 2994 2875 2994 3356 
Q 2994 4291 1888 4291 
L 1250 4291 
z
" transform="scale(0.015625)"/>
       <path id="MicrosoftYaHei-6f" d="M 316 1691 
Q 316 2547 794 3042 
Q 1272 3538 2091 3538 
Q 2869 3538 3311 3061 
Q 3753 2584 3753 1744 
Q 3753 925 3281 422 
Q 2809 -81 2016 -81 
Q 1241 -81 778 406 
Q 316 894 316 1691 
z
M 941 1709 
Q 941 1113 1242 769 
Q 1544 425 2053 425 
Q 2578 425 2853 761 
Q 3128 1097 3128 1725 
Q 3128 2356 2853 2693 
Q 2578 3031 2053 3031 
Q 1538 3031 1239 2678 
Q 941 2325 941 1709 
z
" transform="scale(0.015625)"/>
       <path id="MicrosoftYaHei-69" d="M 472 4675 
Q 472 4838 583 4948 
Q 694 5059 856 5059 
Q 1022 5059 1136 4950 
Q 1250 4841 1250 4675 
Q 1250 4513 1136 4405 
Q 1022 4297 856 4297 
Q 691 4297 581 4405 
Q 472 4513 472 4675 
z
M 544 0 
L 544 3456 
L 1156 3456 
L 1156 0 
L 544 0 
z
" transform="scale(0.015625)"/>
       <path id="MicrosoftYaHei-74" d="M 2206 34 
Q 2006 -75 1666 -75 
Q 738 -75 738 953 
L 738 2950 
L 144 2950 
L 144 3456 
L 738 3456 
L 738 4288 
L 1347 4481 
L 1347 3456 
L 2206 3456 
L 2206 2950 
L 1347 2950 
L 1347 1063 
Q 1347 722 1462 575 
Q 1578 428 1847 428 
Q 2053 428 2206 544 
L 2206 34 
z
" transform="scale(0.015625)"/>
       <path id="MicrosoftYaHei-76" d="M 3331 3456 
L 1963 0 
L 1344 0 
L 44 3456 
L 713 3456 
L 1556 988 
Q 1659 691 1678 491 
L 1694 491 
Q 1725 753 1803 975 
L 2688 3456 
L 3331 3456 
z
" transform="scale(0.015625)"/>
       <path id="MicrosoftYaHei-52" d="M 4159 0 
L 3422 0 
L 2619 1344 
Q 2378 1747 2178 1892 
Q 1978 2038 1700 2038 
L 1250 2038 
L 1250 0 
L 625 0 
L 625 4841 
L 2100 4841 
Q 2806 4841 3206 4500 
Q 3606 4159 3606 3547 
Q 3606 2541 2531 2241 
L 2531 2225 
Q 2731 2141 2876 1984 
Q 3022 1828 3253 1450 
L 4159 0 
z
M 1250 4294 
L 1250 2584 
L 1988 2584 
Q 2416 2584 2683 2834 
Q 2950 3084 2950 3491 
Q 2950 3869 2706 4081 
Q 2463 4294 1997 4294 
L 1250 4294 
z
" transform="scale(0.015625)"/>
       <path id="MicrosoftYaHei-29" d="M 78 -1100 
Q 1131 163 1131 1853 
Q 1131 3547 72 4841 
L 616 4841 
Q 1672 3603 1672 1847 
Q 1672 91 616 -1100 
L 78 -1100 
z
" transform="scale(0.015625)"/>
      </defs>
      <use xlink:href="#MicrosoftYaHei-5047"/>
      <use xlink:href="#MicrosoftYaHei-6b63" transform="translate(100 0)"/>
      <use xlink:href="#MicrosoftYaHei-4f8b" transform="translate(200 0)"/>
      <use xlink:href="#MicrosoftYaHei-7387" transform="translate(300 0)"/>
      <use xlink:href="#MicrosoftYaHei-20" transform="translate(400 0)"/>
      <use xlink:href="#MicrosoftYaHei-28" transform="translate(429.589844 0)"/>
      <use xlink:href="#MicrosoftYaHei-46" transform="translate(462.988281 0)"/>
      <use xlink:href="#MicrosoftYaHei-61" transform="translate(512.113281 0)"/>
      <use xlink:href="#MicrosoftYaHei-6c" transform="translate(567.386719 0)"/>
      <use xlink:href="#MicrosoftYaHei-73" transform="translate(593.998047 0)"/>
      <use xlink:href="#MicrosoftYaHei-65" transform="translate(640.287109 0)"/>
      <use xlink:href="#MicrosoftYaHei-20" transform="translate(697.025391 0)"/>
      <use xlink:href="#MicrosoftYaHei-50" transform="translate(726.615234 0)"/>
      <use xlink:href="#MicrosoftYaHei-6f" transform="translate(783.796875 0)"/>
      <use xlink:href="#MicrosoftYaHei-73" transform="translate(847.371094 0)"/>
      <use xlink:href="#MicrosoftYaHei-69" transform="translate(893.660156 0)"/>
      <use xlink:href="#MicrosoftYaHei-74" transform="translate(920.271484 0)"/>
      <use xlink:href="#MicrosoftYaHei-69" transform="translate(957.527344 0)"/>
      <use xlink:href="#MicrosoftYaHei-76" transform="translate(984.138672 0)"/>
      <use xlink:href="#MicrosoftYaHei-65" transform="translate(1036.003906 0)"/>
      <use xlink:href="#MicrosoftYaHei-20" transform="translate(1092.742188 0)"/>
      <use xlink:href="#MicrosoftYaHei-52" transform="translate(1122.332031 0)"/>
      <use xlink:href="#MicrosoftYaHei-61" transform="translate(1187.615234 0)"/>
      <use xlink:href="#MicrosoftYaHei-74" transform="translate(1242.888672 0)"/>
      <use xlink:href="#MicrosoftYaHei-65" transform="translate(1279.269531 0)"/>
      <use xlink:href="#MicrosoftYaHei-29" transform="translate(1336.007812 0)"/>
     </g>
    </g>
   </g>
   <g id="matplotlib.axis_2">
    <g id="ytick_1">
     <g id="line2d_13">
      <path d="M 47.45 387.16 
L 558.135 387.16 
" clip-path="url(#p3f23b2ab3e)" style="fill: none; stroke: #b0b0b0; stroke-opacity: 0.25; stroke-width: 0.8; stroke-linecap: square"/>
     </g>
     <g id="line2d_14">
      <defs>
       <path id="mff8e486718" d="M 0 0 
L -3.5 0 
" style="stroke: #000000; stroke-width: 0.8"/>
      </defs>
      <g>
       <use xlink:href="#mff8e486718" x="47.45" y="387.16" style="stroke: #000000; stroke-width: 0.8"/>
      </g>
     </g>
     <g id="text_8">
      <!-- 0.0 -->
      <g transform="translate(26.314063 391.156875) scale(0.1 -0.1)">
       <use xlink:href="#MicrosoftYaHei-30"/>
       <use xlink:href="#MicrosoftYaHei-2e" transform="translate(58.642578 0)"/>
       <use xlink:href="#MicrosoftYaHei-30" transform="translate(82.714844 0)"/>
      </g>
     </g>
    </g>
    <g id="ytick_2">
     <g id="line2d_15">
      <path d="M 47.45 318.535238 
L 558.135 318.535238 
" clip-path="url(#p3f23b2ab3e)" style="fill: none; stroke: #b0b0b0; stroke-opacity: 0.25; stroke-width: 0.8; stroke-linecap: square"/>
     </g>
     <g id="line2d_16">
      <g>
       <use xlink:href="#mff8e486718" x="47.45" y="318.535238" style="stroke: #000000; stroke-width: 0.8"/>
      </g>
     </g>
     <g id="text_9">
      <!-- 0.2 -->
      <g transform="translate(26.314063 322.532113) scale(0.1 -0.1)">
       <use xlink:href="#MicrosoftYaHei-30"/>
       <use xlink:href="#MicrosoftYaHei-2e" transform="translate(58.642578 0)"/>
       <use xlink:href="#MicrosoftYaHei-32" transform="translate(82.714844 0)"/>
      </g>
     </g>
    </g>
    <g id="ytick_3">
     <g id="line2d_17">
      <path d="M 47.45 249.910476 
L 558.135 249.910476 
" clip-path="url(#p3f23b2ab3e)" style="fill: none; stroke: #b0b0b0; stroke-opacity: 0.25; stroke-width: 0.8; stroke-linecap: square"/>
     </g>
     <g id="line2d_18">
      <g>
       <use xlink:href="#mff8e486718" x="47.45" y="249.910476" style="stroke: #000000; stroke-width: 0.8"/>
      </g>
     </g>
     <g id="text_10">
      <!-- 0.4 -->
      <g transform="translate(26.314063 253.907351) scale(0.1 -0.1)">
       <use xlink:href="#MicrosoftYaHei-30"/>
       <use xlink:href="#MicrosoftYaHei-2e" transform="translate(58.642578 0)"/>
       <use xlink:href="#MicrosoftYaHei-34" transform="translate(82.714844 0)"/>
      </g>
     </g>
    </g>
    <g id="ytick_4">
     <g id="line2d_19">
      <path d="M 47.45 181.285714 
L 558.135 181.285714 
" clip-path="url(#p3f23b2ab3e)" style="fill: none; stroke: #b0b0b0; stroke-opacity: 0.25; stroke-width: 0.8; stroke-linecap: square"/>
     </g>
     <g id="line2d_20">
      <g>
       <use xlink:href="#mff8e486718" x="47.45" y="181.285714" style="stroke: #000000; stroke-width: 0.8"/>
      </g>
     </g>
     <g id="text_11">
      <!-- 0.6 -->
      <g transform="translate(26.314063 185.282589) scale(0.1 -0.1)">
       <use xlink:href="#MicrosoftYaHei-30"/>
       <use xlink:href="#MicrosoftYaHei-2e" transform="translate(58.642578 0)"/>
       <use xlink:href="#MicrosoftYaHei-36" transform="translate(82.714844 0)"/>
      </g>
     </g>
    </g>
    <g id="ytick_5">
     <g id="line2d_21">
      <path d="M 47.45 112.660952 
L 558.135 112.660952 
" clip-path="url(#p3f23b2ab3e)" style="fill: none; stroke: #b0b0b0; stroke-opacity: 0.25; stroke-width: 0.8; stroke-linecap: square"/>
     </g>
     <g id="line2d_22">
      <g>
       <use xlink:href="#mff8e486718" x="47.45" y="112.660952" style="stroke: #000000; stroke-width: 0.8"/>
      </g>
     </g>
     <g id="text_12">
      <!-- 0.8 -->
      <g transform="translate(26.314063 116.657827) scale(0.1 -0.1)">
       <use xlink:href="#MicrosoftYaHei-30"/>
       <use xlink:href="#MicrosoftYaHei-2e" transform="translate(58.642578 0)"/>
       <use xlink:href="#MicrosoftYaHei-38" transform="translate(82.714844 0)"/>
      </g>
     </g>
    </g>
    <g id="ytick_6">
     <g id="line2d_23">
      <path d="M 47.45 44.03619 
L 558.135 44.03619 
" clip-path="url(#p3f23b2ab3e)" style="fill: none; stroke: #b0b0b0; stroke-opacity: 0.25; stroke-width: 0.8; stroke-linecap: square"/>
     </g>
     <g id="line2d_24">
      <g>
       <use xlink:href="#mff8e486718" x="47.45" y="44.03619" style="stroke: #000000; stroke-width: 0.8"/>
      </g>
     </g>
     <g id="text_13">
      <!-- 1.0 -->
      <g transform="translate(26.314063 48.033065) scale(0.1 -0.1)">
       <use xlink:href="#MicrosoftYaHei-31"/>
       <use xlink:href="#MicrosoftYaHei-2e" transform="translate(58.642578 0)"/>
       <use xlink:href="#MicrosoftYaHei-30" transform="translate(82.714844 0)"/>
      </g>
     </g>
    </g>
    <g id="text_14">
     <!-- 真正例率 (True Positive Rate) -->
     <g transform="translate(19.828125 274.014531) rotate(-90) scale(0.1 -0.1)">
      <defs>
       <path id="MicrosoftYaHei-771f" d="M 156 778 
L 1056 778 
L 1056 3978 
L 2894 3978 
L 2894 4428 
L 250 4428 
L 250 4828 
L 2894 4828 
L 2894 5328 
L 3381 5328 
L 3381 4828 
L 6144 4828 
L 6144 4428 
L 3381 4428 
L 3381 3978 
L 5344 3978 
L 5344 778 
L 6263 778 
L 6263 378 
L 156 378 
L 156 778 
z
M 1531 778 
L 4869 778 
L 4869 1209 
L 1531 1209 
L 1531 778 
z
M 4869 3591 
L 1531 3591 
L 1531 3166 
L 4869 3166 
L 4869 3591 
z
M 1531 2372 
L 4869 2372 
L 4869 2797 
L 1531 2797 
L 1531 2372 
z
M 1531 1578 
L 4869 1578 
L 4869 2003 
L 1531 2003 
L 1531 1578 
z
M 3744 -72 
L 3975 316 
Q 4925 28 6169 -416 
L 5944 -859 
Q 4819 -422 3744 -72 
z
M 2369 334 
L 2663 -41 
Q 1656 -503 481 -891 
Q 388 -691 256 -453 
Q 1219 -172 2369 334 
z
" transform="scale(0.015625)"/>
       <path id="MicrosoftYaHei-54" d="M 3550 4284 
L 2153 4284 
L 2153 0 
L 1525 0 
L 1525 4284 
L 134 4284 
L 134 4841 
L 3550 4841 
L 3550 4284 
z
" transform="scale(0.015625)"/>
       <path id="MicrosoftYaHei-72" d="M 2400 2850 
Q 2247 2959 1978 2959 
Q 1622 2959 1390 2626 
Q 1159 2294 1159 1750 
L 1159 0 
L 547 0 
L 547 3456 
L 1159 3456 
L 1159 2753 
L 1172 2753 
Q 1434 3516 2078 3516 
Q 2288 3516 2400 3469 
L 2400 2850 
z
" transform="scale(0.015625)"/>
       <path id="MicrosoftYaHei-75" d="M 3400 0 
L 2784 0 
L 2784 544 
L 2772 544 
Q 2425 -81 1706 -81 
Q 478 -81 478 1388 
L 478 3456 
L 1084 3456 
L 1084 1478 
Q 1084 425 1891 425 
Q 2291 425 2537 720 
Q 2784 1016 2784 1466 
L 2784 3456 
L 3400 3456 
L 3400 0 
z
" transform="scale(0.015625)"/>
      </defs>
      <use xlink:href="#MicrosoftYaHei-771f"/>
      <use xlink:href="#MicrosoftYaHei-6b63" transform="translate(100 0)"/>
      <use xlink:href="#MicrosoftYaHei-4f8b" transform="translate(200 0)"/>
      <use xlink:href="#MicrosoftYaHei-7387" transform="translate(300 0)"/>
      <use xlink:href="#MicrosoftYaHei-20" transform="translate(400 0)"/>
      <use xlink:href="#MicrosoftYaHei-28" transform="translate(429.589844 0)"/>
      <use xlink:href="#MicrosoftYaHei-54" transform="translate(462.988281 0)"/>
      <use xlink:href="#MicrosoftYaHei-72" transform="translate(510.9375 0)"/>
      <use xlink:href="#MicrosoftYaHei-75" transform="translate(549.121094 0)"/>
      <use xlink:href="#MicrosoftYaHei-65" transform="translate(610.742188 0)"/>
      <use xlink:href="#MicrosoftYaHei-20" transform="translate(667.480469 0)"/>
      <use xlink:href="#MicrosoftYaHei-50" transform="translate(697.070312 0)"/>
      <use xlink:href="#MicrosoftYaHei-6f" transform="translate(754.251953 0)"/>
      <use xlink:href="#MicrosoftYaHei-73" transform="translate(817.826172 0)"/>
      <use xlink:href="#MicrosoftYaHei-69" transform="translate(864.115234 0)"/>
      <use xlink:href="#MicrosoftYaHei-74" transform="translate(890.726562 0)"/>
      <use xlink:href="#MicrosoftYaHei-69" transform="translate(927.982422 0)"/>
      <use xlink:href="#MicrosoftYaHei-76" transform="translate(954.59375 0)"/>
      <use xlink:href="#MicrosoftYaHei-65" transform="translate(1006.458984 0)"/>
      <use xlink:href="#MicrosoftYaHei-20" transform="translate(1063.197266 0)"/>
      <use xlink:href="#MicrosoftYaHei-52" transform="translate(1092.787109 0)"/>
      <use xlink:href="#MicrosoftYaHei-61" transform="translate(1158.070312 0)"/>
      <use xlink:href="#MicrosoftYaHei-74" transform="translate(1213.34375 0)"/>
      <use xlink:href="#MicrosoftYaHei-65" transform="translate(1249.724609 0)"/>
      <use xlink:href="#MicrosoftYaHei-29" transform="translate(1306.462891 0)"/>
     </g>
    </g>
   </g>
   <g id="line2d_25">
    <path d="M 47.45 387.16 
L 47.45 282.333543 
L 48.841512 282.333543 
L 48.841512 278.676806 
L 50.233025 278.676806 
L 50.233025 276.03583 
L 51.624537 276.03583 
L 51.624537 251.657584 
L 53.016049 251.25128 
L 53.016049 218.5438 
L 54.407561 218.5438 
L 54.407561 184.617408 
L 55.799074 184.617408 
L 55.799074 170.396764 
L 57.190586 170.396764 
L 57.190586 163.692747 
L 58.582098 163.692747 
L 58.582098 149.675256 
L 59.97361 149.472104 
L 59.97361 133.21994 
L 61.365123 133.21994 
L 61.365123 128.344291 
L 62.756635 128.344291 
L 62.756635 122.249729 
L 64.148147 122.249729 
L 64.148147 122.046577 
L 65.539659 122.046577 
L 65.539659 120.421361 
L 66.931172 120.421361 
L 66.931172 118.186688 
L 69.714196 118.186688 
L 69.714196 114.936255 
L 71.105708 114.529951 
L 71.105708 103.762893 
L 72.497221 103.762893 
L 72.497221 101.325068 
L 73.888733 101.325068 
L 73.888733 88.120185 
L 76.671757 88.120185 
L 76.671757 87.104425 
L 78.06327 86.901273 
L 78.06327 78.775191 
L 79.454782 78.775191 
L 79.454782 68.82074 
L 83.629319 68.82074 
L 83.629319 68.414436 
L 85.020831 68.008132 
L 85.020831 66.78922 
L 86.412343 66.78922 
L 86.412343 66.382916 
L 87.803856 66.382916 
L 87.803856 66.179764 
L 89.195368 66.179764 
L 89.195368 65.570308 
L 90.58688 65.570308 
L 90.58688 65.367156 
L 91.978392 65.367156 
L 91.978392 64.148243 
L 93.369905 64.148243 
L 93.369905 63.132483 
L 94.761417 63.132483 
L 94.761417 62.726179 
L 96.152929 62.726179 
L 96.152929 62.319875 
L 97.544441 62.319875 
L 97.544441 62.116723 
L 98.935954 62.116723 
L 98.935954 61.507267 
L 100.327466 61.507267 
L 100.327466 60.491506 
L 101.718978 60.491506 
L 101.718978 60.288354 
L 103.11049 60.288354 
L 103.11049 59.678898 
L 105.893515 59.678898 
L 105.893515 58.86629 
L 108.67654 58.86629 
L 108.67654 58.459986 
L 117.025613 58.459986 
L 117.025613 58.053682 
L 118.417125 58.053682 
L 118.417125 57.444226 
L 122.591662 57.444226 
L 122.591662 57.037922 
L 123.983174 57.037922 
L 123.983174 56.631617 
L 125.374687 56.631617 
L 125.374687 56.225313 
L 129.549223 56.225313 
L 129.549223 55.819009 
L 137.898297 55.819009 
L 137.898297 55.615857 
L 140.681322 55.615857 
L 140.681322 55.209553 
L 142.072834 55.209553 
L 142.072834 54.600097 
L 143.464346 54.600097 
L 143.464346 54.193793 
L 149.030395 54.193793 
L 149.030395 53.990641 
L 150.421907 53.990641 
L 150.421907 53.787489 
L 153.204932 53.787489 
L 153.204932 52.771729 
L 157.379469 52.771729 
L 157.379469 52.162272 
L 162.945518 52.162272 
L 162.945518 51.95912 
L 167.120054 51.95912 
L 167.120054 51.755968 
L 171.294591 51.755968 
L 171.294591 51.552816 
L 176.86064 51.552816 
L 176.86064 51.349664 
L 178.252153 51.349664 
L 178.252153 50.333904 
L 200.516349 50.333904 
L 200.516349 50.130752 
L 203.299373 50.130752 
L 203.299373 49.9276 
L 208.865422 49.9276 
L 208.865422 49.521296 
L 210.256935 49.521296 
L 210.256935 49.318144 
L 213.039959 49.318144 
L 213.039959 48.91184 
L 221.389033 48.91184 
L 221.389033 48.708688 
L 235.304155 48.708688 
L 235.304155 48.505536 
L 249.219278 48.505536 
L 249.219278 48.302383 
L 278.441035 48.302383 
L 278.441035 48.099231 
L 282.615572 48.099231 
L 282.615572 47.896079 
L 296.530695 47.896079 
L 304.879768 47.692927 
L 309.054305 47.692927 
L 309.054305 47.489775 
L 320.186403 47.489775 
L 320.186403 47.286623 
L 334.101526 47.286623 
L 335.493038 47.083471 
L 361.931771 47.083471 
L 361.931771 46.880319 
L 382.804455 46.880319 
L 382.804455 46.677167 
L 385.58748 46.677167 
L 385.58748 46.474015 
L 393.936553 46.474015 
L 393.936553 46.270863 
L 396.719578 46.270863 
L 396.719578 46.067711 
L 470.469728 46.067711 
L 470.469728 45.661407 
L 471.86124 45.661407 
L 473.252752 45.458255 
L 473.252752 45.255103 
L 480.210313 45.255103 
L 480.210313 45.051951 
L 481.601826 45.051951 
L 481.601826 44.848799 
L 491.342411 44.848799 
L 492.733924 44.645647 
L 492.733924 44.442495 
L 501.082997 44.442495 
L 502.47451 44.239343 
L 521.955681 44.239343 
L 521.955681 44.03619 
L 558.135 44.03619 
L 558.135 44.03619 
" clip-path="url(#p3f23b2ab3e)" style="fill: none; stroke: #6c757d; stroke-width: 2; stroke-linecap: square"/>
   </g>
   <g id="line2d_26">
    <path d="M 47.45 387.16 
L 47.45 371.563463 
L 47.728151 371.563463 
L 47.728151 349.728312 
L 48.006302 346.609004 
L 48.284453 346.609004 
L 48.284453 343.489697 
L 48.562603 343.489697 
L 48.562603 341.930043 
L 48.840754 341.930043 
L 48.840754 340.37039 
L 49.675207 340.37039 
L 49.675207 337.251082 
L 49.953358 337.251082 
L 49.953358 335.691429 
L 50.231509 335.691429 
L 50.231509 332.572121 
L 50.78781 332.572121 
L 50.78781 326.333506 
L 51.065961 323.214199 
L 51.065961 320.094892 
L 51.622263 320.094892 
L 51.622263 316.975584 
L 51.900414 315.415931 
L 52.178565 315.415931 
L 52.178565 310.73697 
L 52.456716 310.73697 
L 52.456716 309.177316 
L 52.734867 309.177316 
L 52.734867 296.700087 
L 53.013017 296.700087 
L 53.013017 290.461472 
L 53.569319 287.342165 
L 53.569319 273.305281 
L 54.125621 273.305281 
L 54.125621 271.745628 
L 54.403772 271.745628 
L 54.403772 256.149091 
L 54.681923 256.149091 
L 54.681923 246.791169 
L 54.960074 246.791169 
L 54.960074 243.671861 
L 55.516375 243.671861 
L 55.516375 235.873593 
L 55.794526 235.873593 
L 55.794526 226.515671 
L 56.072677 220.277056 
L 56.350828 220.277056 
L 56.350828 218.717403 
L 56.628979 218.717403 
L 56.628979 204.680519 
L 56.90713 204.680519 
L 56.90713 203.120866 
L 57.185281 203.120866 
L 57.185281 201.561212 
L 57.463431 201.561212 
L 57.463431 195.322597 
L 58.297884 195.322597 
L 58.297884 192.20329 
L 59.132337 192.20329 
L 59.132337 190.643636 
L 59.688638 190.643636 
L 59.688638 189.083983 
L 59.966789 189.083983 
L 59.966789 187.524329 
L 60.24494 187.524329 
L 60.24494 182.845368 
L 60.801242 182.845368 
L 60.801242 181.285714 
L 61.357544 181.285714 
L 61.357544 179.726061 
L 61.635694 179.726061 
L 61.635694 173.487446 
L 61.913845 173.487446 
L 61.913845 168.808485 
L 62.191996 168.808485 
L 62.191996 167.248831 
L 62.748298 167.248831 
L 62.748298 165.689177 
L 64.139052 165.689177 
L 64.139052 164.129524 
L 64.695354 164.129524 
L 64.695354 162.56987 
L 64.973505 162.56987 
L 64.973505 154.771602 
L 65.251656 154.771602 
L 65.251656 153.211948 
L 66.364259 153.211948 
L 66.364259 151.652294 
L 67.198712 151.652294 
L 67.198712 148.532987 
L 68.033164 148.532987 
L 68.033164 145.41368 
L 69.145768 145.41368 
L 69.145768 140.734719 
L 69.423919 140.734719 
L 69.423919 139.175065 
L 69.70207 139.175065 
L 69.70207 137.615411 
L 70.258371 137.615411 
L 70.258371 134.496104 
L 70.536522 134.496104 
L 70.536522 132.93645 
L 71.370975 132.93645 
L 71.370975 131.376797 
L 71.927277 131.376797 
L 71.927277 129.817143 
L 73.318031 129.817143 
L 73.318031 128.257489 
L 73.874333 128.257489 
L 73.874333 125.138182 
L 75.543238 125.138182 
L 75.543238 123.578528 
L 77.490294 123.578528 
L 77.490294 122.018874 
L 78.046596 122.018874 
L 78.046596 118.899567 
L 80.549954 118.899567 
L 80.549954 117.339913 
L 80.828105 117.339913 
L 80.828105 115.78026 
L 81.940708 115.78026 
L 81.940708 114.220606 
L 82.218859 114.220606 
L 82.218859 112.660952 
L 84.722217 112.660952 
L 84.722217 111.101299 
L 86.112971 111.101299 
L 86.112971 109.541645 
L 87.781876 109.541645 
L 87.781876 107.981991 
L 90.007083 107.981991 
L 90.007083 106.422338 
L 91.954139 106.422338 
L 91.954139 104.862684 
L 94.735648 104.862684 
L 94.735648 101.743377 
L 95.570101 101.743377 
L 95.570101 100.183723 
L 97.795308 100.183723 
L 97.795308 98.624069 
L 98.073459 98.624069 
L 98.073459 97.064416 
L 104.74908 97.064416 
L 104.74908 95.504762 
L 106.417985 95.504762 
L 106.417985 93.945108 
L 107.252437 93.945108 
L 107.252437 92.385455 
L 107.530588 92.385455 
L 107.530588 90.825801 
L 107.808739 90.825801 
L 107.808739 89.266147 
L 108.643192 89.266147 
L 109.199493 87.706494 
L 110.033946 87.706494 
L 110.033946 86.14684 
L 111.981002 86.14684 
L 111.981002 84.587186 
L 113.371757 84.587186 
L 113.371757 83.027532 
L 115.040662 83.027532 
L 115.040662 81.467879 
L 123.94149 81.467879 
L 123.94149 79.908225 
L 127.001149 79.908225 
L 127.2793 78.348571 
L 127.2793 76.788918 
L 127.835602 76.788918 
L 127.835602 75.229264 
L 128.948205 75.229264 
L 128.948205 73.66961 
L 129.226356 73.66961 
L 129.226356 72.109957 
L 135.345675 72.109957 
L 135.345675 70.550303 
L 144.524654 70.550303 
L 144.524654 68.990649 
L 150.643973 68.990649 
L 150.922124 67.430996 
L 152.034728 67.430996 
L 152.034728 65.871342 
L 152.312879 65.871342 
L 152.312879 64.311688 
L 155.92884 64.311688 
L 155.92884 62.752035 
L 156.206991 62.752035 
L 156.206991 61.192381 
L 162.604461 61.192381 
L 163.160763 59.632727 
L 167.054875 59.632727 
L 167.054875 58.073074 
L 191.254001 58.073074 
L 191.254001 56.51342 
L 193.757358 56.51342 
L 193.757358 54.953766 
L 198.485923 54.953766 
L 198.485923 53.394113 
L 256.897606 53.394113 
L 256.897606 51.834459 
L 293.613521 51.834459 
L 293.613521 50.274805 
L 300.845444 50.274805 
L 300.845444 48.715152 
L 337.283208 48.715152 
L 337.83951 47.155498 
L 402.648663 47.155498 
L 402.648663 45.595844 
L 409.880586 45.595844 
L 409.880586 44.03619 
L 558.135 44.03619 
L 558.135 44.03619 
" clip-path="url(#p3f23b2ab3e)" style="fill: none; stroke: #f4a261; stroke-width: 2; stroke-linecap: square"/>
   </g>
   <g id="line2d_27">
    <path d="M 47.45 387.16 
L 47.45 380.157473 
L 47.717514 380.157473 
L 47.717514 356.815718 
L 47.985029 356.815718 
L 47.985029 335.808137 
L 48.252543 335.808137 
L 48.252543 331.139786 
L 48.520058 328.805611 
L 48.520058 296.127153 
L 48.787572 296.127153 
L 48.787572 282.122099 
L 49.055086 282.122099 
L 49.055086 279.787924 
L 49.322601 279.787924 
L 49.322601 270.451221 
L 49.590115 270.451221 
L 49.590115 240.106939 
L 49.85763 240.106939 
L 49.85763 226.101885 
L 50.125144 226.101885 
L 50.125144 200.425954 
L 50.392658 200.425954 
L 50.392658 188.755076 
L 50.927687 188.755076 
L 50.927687 153.742443 
L 51.195202 153.742443 
L 51.195202 151.408267 
L 51.462716 151.408267 
L 51.462716 128.066511 
L 51.997745 128.066511 
L 51.997745 121.063984 
L 52.265259 121.063984 
L 52.265259 118.729809 
L 53.067803 118.729809 
L 53.067803 114.061458 
L 53.602831 114.061458 
L 53.602831 111.727282 
L 55.742947 111.727282 
L 55.742947 109.393107 
L 56.010461 109.393107 
L 56.010461 107.058931 
L 57.080519 107.058931 
L 58.150576 104.724755 
L 58.953119 104.724755 
L 58.953119 102.39058 
L 59.488148 102.39058 
L 59.488148 100.056404 
L 61.360749 100.056404 
L 61.360749 95.388053 
L 61.628263 95.388053 
L 61.628263 93.053878 
L 64.570922 93.053878 
L 64.570922 90.719702 
L 67.781095 90.719702 
L 67.781095 88.385526 
L 73.131383 88.385526 
L 73.131383 86.051351 
L 80.354272 86.051351 
L 80.354272 83.717175 
L 81.424329 83.717175 
L 81.424329 81.383 
L 83.564445 81.383 
L 83.564445 79.048824 
L 85.972074 79.048824 
L 85.972074 76.714649 
L 87.042132 76.714649 
L 87.577161 74.380473 
L 92.659935 74.380473 
L 92.659935 72.046297 
L 95.870107 72.046297 
L 95.870107 67.377946 
L 97.207679 67.377946 
L 97.207679 65.043771 
L 99.882823 65.043771 
L 99.882823 62.709595 
L 102.290453 62.709595 
L 102.290453 60.37542 
L 109.513342 60.37542 
L 109.513342 58.041244 
L 114.596116 58.041244 
L 114.596116 55.707068 
L 135.462239 55.707068 
L 135.462239 53.372893 
L 142.685128 53.372893 
L 142.685128 51.038717 
L 164.353795 51.038717 
L 164.353795 48.704542 
L 272.429615 48.704542 
L 272.429615 46.370366 
L 440.161147 46.370366 
L 440.161147 44.03619 
L 558.135 44.03619 
L 558.135 44.03619 
" clip-path="url(#p3f23b2ab3e)" style="fill: none; stroke: #d62828; stroke-width: 2; stroke-linecap: square"/>
   </g>
   <g id="line2d_28">
    <path d="M 47.45 344.684827 
L 47.717514 336.904241 
L 47.728151 329.625857 
L 48.006302 321.583562 
L 48.252543 320.027445 
L 48.841512 300.389765 
L 49.055086 299.611706 
L 49.322601 296.499472 
L 49.675207 285.344942 
L 50.392658 265.787676 
L 50.78781 263.708137 
L 50.927687 251.514379 
L 51.195202 249.179663 
L 51.462716 241.399078 
L 51.622263 240.359308 
L 51.624537 232.228977 
L 51.900414 231.686491 
L 51.997745 229.342842 
L 52.265259 226.979093 
L 52.456716 226.440574 
L 52.734867 222.254426 
L 53.013017 220.147815 
L 53.067803 207.586512 
L 53.602831 201.192121 
L 54.125621 200.672237 
L 54.403772 195.473391 
L 54.407561 184.164594 
L 54.681923 181.045286 
L 54.960074 180.005517 
L 55.207918 180.005517 
L 55.516375 177.406094 
L 55.742947 176.628036 
L 56.010461 166.376063 
L 56.072677 165.910917 
L 56.350828 165.391033 
L 56.628979 160.712072 
L 56.90713 160.192187 
L 57.080519 160.192187 
L 57.185281 159.596128 
L 57.190586 157.357598 
L 57.463431 155.079669 
L 58.150576 154.580033 
L 58.297884 153.540264 
L 58.582098 148.867767 
L 59.488148 146.747673 
L 59.966789 145.684611 
L 59.97361 140.266891 
L 60.24494 138.707237 
L 61.357544 137.667468 
L 61.365123 134.486135 
L 61.628263 133.708076 
L 61.635694 131.628538 
L 61.913845 130.068884 
L 62.191996 129.549 
L 62.748298 129.029115 
L 62.756635 126.997595 
L 63.860901 126.997595 
L 64.570922 125.631934 
L 64.695354 125.11205 
L 64.973505 122.512627 
L 65.64098 121.451004 
L 66.443523 120.931119 
L 66.978552 120.186228 
L 67.198712 119.146459 
L 67.781095 118.368401 
L 68.033164 117.328631 
L 69.423919 115.249093 
L 69.653696 115.249093 
L 69.714196 113.645731 
L 70.188724 113.599546 
L 70.258371 112.552998 
L 70.536522 112.006041 
L 71.105708 108.361623 
L 71.370975 107.841739 
L 71.927277 107.321854 
L 73.318031 105.211303 
L 73.874333 104.171534 
L 73.888733 99.769906 
L 75.539013 99.769906 
L 75.543238 99.250021 
L 76.60907 99.250021 
L 76.671757 98.911435 
L 77.144099 98.888448 
L 78.046596 97.284875 
L 78.06327 94.57537 
L 78.749185 94.57537 
L 79.454782 91.257219 
L 79.993652 91.257219 
L 80.828105 89.439392 
L 82.218859 87.621564 
L 82.775161 87.621564 
L 83.629319 86.708071 
L 84.165915 86.655844 
L 85.972074 84.868389 
L 86.112971 84.348504 
L 86.412343 84.21307 
L 87.042132 84.21307 
L 87.577161 83.435011 
L 87.803856 82.847409 
L 89.717276 82.644257 
L 90.007083 82.124373 
L 91.675989 82.056655 
L 91.954139 81.536771 
L 91.978392 81.130467 
L 92.659935 80.352408 
L 93.194963 80.352408 
L 93.369905 80.013821 
L 93.729992 80.013821 
L 94.80005 78.838618 
L 95.570101 78.318733 
L 95.870107 76.762616 
L 96.126403 76.762616 
L 96.152929 76.627181 
L 96.960855 76.627181 
L 97.207679 75.849123 
L 97.544441 75.781405 
L 98.073459 74.741636 
L 98.62976 74.741636 
L 98.935954 74.538484 
L 99.464213 74.538484 
L 99.882823 73.760426 
L 100.020515 73.760426 
L 100.327466 73.421839 
L 101.718978 73.354122 
L 102.290453 72.576063 
L 103.080174 72.576063 
L 103.11049 72.372911 
L 104.192778 72.372911 
L 104.74908 71.853027 
L 106.035655 71.582157 
L 106.417985 71.062273 
L 106.570684 71.062273 
L 107.373227 70.542388 
L 107.530588 70.022503 
L 107.908256 69.502619 
L 108.643192 69.502619 
L 108.67654 69.336019 
L 109.199493 68.8473 
L 109.513342 68.069241 
L 109.755795 68.069241 
L 110.033946 67.549357 
L 111.920972 67.549357 
L 111.981002 67.029472 
L 112.456001 67.029472 
L 113.371757 66.509587 
L 113.928058 66.509587 
L 114.596116 65.731529 
L 114.86363 65.731529 
L 115.040662 65.211644 
L 116.987718 65.211644 
L 117.025613 65.07621 
L 117.82217 65.07621 
L 118.417125 64.873058 
L 122.354034 64.873058 
L 122.591662 64.737623 
L 122.828886 64.737623 
L 124.226634 64.082304 
L 125.296692 64.082304 
L 125.374687 63.946869 
L 127.001149 63.946869 
L 127.2793 62.9071 
L 127.835602 62.387215 
L 128.506865 62.387215 
L 128.948205 61.867331 
L 129.309408 61.347446 
L 129.504507 61.347446 
L 129.549223 61.212011 
L 132.787095 61.212011 
L 135.345675 60.692127 
L 135.462239 59.914068 
L 140.277499 59.846351 
L 140.681322 59.710916 
L 141.615071 59.710916 
L 142.299447 59.507764 
L 142.417614 59.507764 
L 142.685128 58.729706 
L 143.412051 58.729706 
L 143.464346 58.594271 
L 144.0227 58.594271 
L 144.524654 58.074386 
L 149.640503 58.006669 
L 150.643973 57.938952 
L 150.922124 57.419067 
L 152.034728 56.899183 
L 152.312879 56.379298 
L 153.204932 56.040711 
L 155.52582 56.040711 
L 156.206991 55.000942 
L 156.595877 55.000942 
L 157.379469 54.79779 
L 162.604461 54.79779 
L 163.160763 54.210188 
L 164.353795 53.43213 
L 167.028939 53.43213 
L 167.120054 52.844528 
L 176.790155 52.77681 
L 176.86064 52.709093 
L 177.624608 52.709093 
L 178.252153 52.370506 
L 190.97585 52.370506 
L 191.254001 51.850622 
L 192.167275 51.850622 
L 193.78038 51.330737 
L 197.733324 51.330737 
L 198.485923 50.810853 
L 203.214488 50.743135 
L 203.410898 50.675418 
L 208.499355 50.675418 
L 208.865422 50.539983 
L 215.181532 50.336831 
L 234.977598 50.269114 
L 235.304155 50.201397 
L 256.646265 50.133679 
L 256.897606 49.613795 
L 272.162101 49.613795 
L 272.429615 48.835736 
L 282.487486 48.768019 
L 282.765637 48.700301 
L 293.028224 48.700301 
L 293.613521 48.180417 
L 300.567293 48.131307 
L 300.845444 47.608038 
L 316.700044 47.525098 
L 334.492957 47.438331 
L 337.283208 47.389663 
L 337.83951 46.869778 
L 382.343649 46.802061 
L 383.180579 46.734344 
L 393.747835 46.666626 
L 393.936553 46.598909 
L 402.441616 46.531192 
L 402.648663 46.011307 
L 409.129476 46.011307 
L 409.932019 45.491422 
L 439.626118 45.491422 
L 440.161147 44.713364 
L 469.404872 44.713364 
L 470.795626 44.577929 
L 473.065419 44.519328 
L 473.252752 44.442495 
L 480.823337 44.374777 
L 482.477963 44.30706 
L 491.791427 44.285209 
L 493.128999 44.171625 
L 521.697236 44.103908 
L 522.253538 44.03619 
L 558.135 44.03619 
L 558.135 44.03619 
" clip-path="url(#p3f23b2ab3e)" style="fill: none; stroke-dasharray: 9.25,4; stroke-dashoffset: 0; stroke: #1d3557; stroke-width: 2.5"/>
   </g>
   <g id="line2d_29">
    <path d="M 47.45 387.16 
L 47.45 301.04527 
L 47.574194 301.04527 
L 47.574194 298.041267 
L 47.698388 298.041267 
L 47.698388 295.87171 
L 47.822581 295.87171 
L 47.822581 275.845029 
L 47.946775 275.511251 
L 47.946775 248.64212 
L 48.070969 248.64212 
L 48.070969 220.771655 
L 48.195163 220.771655 
L 48.195163 209.089424 
L 48.319357 209.089424 
L 48.319357 203.415197 
L 48.443551 203.415197 
L 48.443551 191.566077 
L 48.691938 191.232299 
L 48.691938 177.046733 
L 48.816132 177.046733 
L 48.816132 176.379177 
L 48.940326 176.379177 
L 48.940326 172.206952 
L 49.06452 172.206952 
L 49.06452 166.032059 
L 49.188714 166.032059 
L 49.188714 165.86517 
L 49.312907 165.86517 
L 49.312907 165.698281 
L 49.437101 165.698281 
L 49.437101 164.196279 
L 49.561295 164.196279 
L 49.561295 162.193611 
L 49.809683 162.193611 
L 49.809683 162.026722 
L 49.933876 161.859833 
L 49.933876 158.855831 
L 50.05807 158.522053 
L 50.05807 148.174934 
L 50.182264 148.174934 
L 50.182264 145.838488 
L 50.306458 145.838488 
L 50.306458 134.490035 
L 50.430652 134.490035 
L 50.430652 133.65559 
L 50.679039 133.65559 
L 50.679039 132.821145 
L 50.803233 132.654256 
L 50.803233 130.484699 
L 50.927427 130.484699 
L 50.927427 129.817143 
L 51.051621 129.817143 
L 51.051621 125.978696 
L 51.175815 125.978696 
L 51.175815 125.478029 
L 51.300009 125.478029 
L 51.300009 123.308471 
L 51.424202 123.308471 
L 51.424202 113.295131 
L 51.67259 113.295131 
L 51.67259 113.128242 
L 51.796784 113.128242 
L 51.796784 111.79313 
L 51.920978 111.459351 
L 51.920978 109.623572 
L 52.169365 109.623572 
L 52.169365 108.28846 
L 52.417753 108.28846 
L 52.417753 107.787793 
L 52.541947 107.787793 
L 52.541947 107.120237 
L 52.790334 106.61957 
L 52.790334 106.118903 
L 53.038722 106.118903 
L 53.038722 103.949346 
L 53.28711 103.949346 
L 53.28711 103.448679 
L 53.411304 103.448679 
L 53.411304 102.948012 
L 53.535497 102.948012 
L 53.535497 102.280456 
L 53.659691 102.280456 
L 53.659691 101.946678 
L 54.032273 101.946678 
L 54.032273 101.779789 
L 54.156466 101.779789 
L 54.156466 100.945344 
L 54.404854 100.945344 
L 54.404854 100.444677 
L 54.529048 100.444677 
L 54.529048 99.94401 
L 54.653242 99.94401 
L 54.653242 99.777121 
L 54.777436 99.777121 
L 54.777436 99.610232 
L 54.901629 99.610232 
L 54.901629 98.608898 
L 55.150017 97.941341 
L 55.398405 97.941341 
L 55.398405 97.440674 
L 55.646792 97.106896 
L 55.646792 95.604895 
L 55.770986 95.604895 
L 55.770986 95.271117 
L 55.89518 95.271117 
L 55.89518 94.937339 
L 56.019374 94.937339 
L 56.019374 94.77045 
L 56.143568 94.77045 
L 56.143568 94.603561 
L 56.267761 94.603561 
L 56.267761 94.102894 
L 56.391955 94.102894 
L 56.391955 91.933337 
L 56.516149 91.933337 
L 56.516149 90.264447 
L 56.764537 89.930669 
L 56.764537 88.762446 
L 56.888731 88.762446 
L 56.888731 88.261779 
L 57.137118 88.261779 
L 57.137118 87.928001 
L 57.261312 87.928001 
L 57.261312 86.426 
L 57.385506 86.426 
L 57.385506 86.092222 
L 57.5097 86.092222 
L 57.5097 85.758444 
L 57.633893 85.758444 
L 57.633893 85.090888 
L 57.758087 85.090888 
L 57.758087 84.75711 
L 58.006475 84.75711 
L 58.006475 83.588886 
L 58.130669 83.588886 
L 58.130669 82.420663 
L 58.254863 81.753107 
L 58.379056 81.753107 
L 58.379056 81.586218 
L 58.50325 81.586218 
L 58.50325 80.084217 
L 58.627444 80.084217 
L 58.627444 79.917328 
L 58.875832 79.917328 
L 58.875832 79.58355 
L 59.000026 79.58355 
L 59.000026 79.249772 
L 59.372607 79.249772 
L 59.372607 78.582216 
L 59.496801 78.582216 
L 59.496801 78.415327 
L 59.620995 78.415327 
L 59.620995 78.248438 
L 59.869382 78.248438 
L 59.869382 77.91466 
L 59.993576 77.91466 
L 59.993576 77.747771 
L 60.366158 77.747771 
L 60.366158 77.580882 
L 61.111321 77.580882 
L 61.111321 77.247104 
L 61.359708 77.247104 
L 61.359708 76.913326 
L 61.483902 76.913326 
L 61.483902 76.746437 
L 61.856483 76.746437 
L 61.856483 76.078881 
L 62.353259 76.078881 
L 62.353259 75.911992 
L 62.477453 75.911992 
L 62.477453 75.578214 
L 62.72584 75.578214 
L 62.72584 75.411325 
L 62.850034 75.411325 
L 62.850034 74.910658 
L 62.974228 74.910658 
L 62.974228 74.743769 
L 63.222616 74.743769 
L 63.222616 74.57688 
L 63.346809 74.57688 
L 63.346809 74.409991 
L 63.471003 74.409991 
L 63.471003 74.076213 
L 63.595197 74.076213 
L 63.595197 73.909324 
L 63.843585 73.909324 
L 63.843585 73.742435 
L 64.216166 73.742435 
L 64.216166 73.575546 
L 64.837135 73.575546 
L 64.837135 73.408657 
L 65.085523 73.408657 
L 65.582298 73.241768 
L 65.582298 73.074879 
L 65.706492 73.074879 
L 65.706492 72.90799 
L 65.830686 72.90799 
L 65.830686 72.574212 
L 65.95488 72.574212 
L 65.95488 72.240434 
L 66.079073 72.240434 
L 66.079073 72.073545 
L 66.327461 72.073545 
L 66.327461 71.906656 
L 66.94843 71.906656 
L 66.94843 71.572878 
L 67.693593 71.572878 
L 67.693593 71.239099 
L 68.066175 71.239099 
L 68.066175 70.905321 
L 68.56295 70.905321 
L 68.56295 70.738432 
L 69.432307 70.738432 
L 69.432307 70.571543 
L 69.5565 70.571543 
L 69.5565 70.237765 
L 69.929082 70.237765 
L 69.929082 69.570209 
L 70.17747 69.570209 
L 70.17747 69.236431 
L 70.301663 69.236431 
L 70.301663 69.069542 
L 70.550051 69.069542 
L 70.550051 68.902653 
L 70.922633 68.902653 
L 70.922633 68.401986 
L 71.046826 68.401986 
L 71.046826 68.235097 
L 71.791989 68.235097 
L 71.791989 68.068208 
L 72.288765 68.068208 
L 72.288765 67.901319 
L 72.412958 67.901319 
L 72.412958 67.73443 
L 73.282315 67.73443 
L 73.282315 67.567541 
L 73.530703 67.567541 
L 73.530703 67.233763 
L 73.77909 67.233763 
L 73.77909 66.899985 
L 73.903284 66.899985 
L 73.903284 66.566207 
L 74.524253 66.566207 
L 74.524253 66.399318 
L 74.772641 66.399318 
L 74.772641 66.232429 
L 74.896835 66.232429 
L 74.896835 66.06554 
L 75.517804 66.06554 
L 75.517804 65.898651 
L 76.262967 65.898651 
L 76.262967 65.731762 
L 77.380711 65.731762 
L 77.380711 65.564873 
L 77.504905 65.564873 
L 77.504905 65.397984 
L 78.250068 65.397984 
L 78.250068 65.064206 
L 78.62265 65.064206 
L 78.62265 64.897317 
L 78.871037 64.897317 
L 78.871037 64.730428 
L 79.367813 64.730428 
L 79.367813 64.563539 
L 81.106526 64.563539 
L 81.106526 64.39665 
L 81.354914 64.39665 
L 81.354914 64.229761 
L 83.093627 64.229761 
L 83.093627 64.062872 
L 84.087178 64.062872 
L 84.087178 63.895983 
L 84.956535 63.895983 
L 84.956535 63.562205 
L 85.45331 63.562205 
L 85.45331 63.395316 
L 87.316217 63.395316 
L 87.316217 63.061538 
L 87.440411 63.061538 
L 87.440411 62.894649 
L 88.185574 62.894649 
L 88.185574 62.72776 
L 88.433962 62.72776 
L 88.433962 62.560871 
L 89.303318 62.560871 
L 89.303318 62.227093 
L 92.035582 62.227093 
L 92.035582 62.060204 
L 92.408164 62.060204 
L 92.408164 61.392648 
L 93.277521 61.392648 
L 93.277521 61.225759 
L 93.525908 61.225759 
L 93.525908 61.05887 
L 95.016234 61.05887 
L 95.016234 60.891981 
L 95.885591 60.891981 
L 95.885591 60.391314 
L 96.50656 60.391314 
L 96.50656 60.224425 
L 97.624304 60.224425 
L 97.624304 60.057536 
L 97.872692 60.057536 
L 97.872692 59.890647 
L 98.245274 59.890647 
L 98.245274 59.38998 
L 98.493661 59.38998 
L 98.493661 59.223091 
L 100.977538 59.223091 
L 100.977538 59.056202 
L 101.474313 59.056202 
L 101.722701 58.889313 
L 102.592057 58.889313 
L 102.592057 58.722424 
L 102.716251 58.722424 
L 102.716251 58.555535 
L 103.088833 58.555535 
L 103.088833 58.388646 
L 103.213027 58.388646 
L 103.213027 58.221757 
L 103.33722 58.221757 
L 103.33722 58.054868 
L 103.709802 58.054868 
L 103.958189 57.887979 
L 104.330771 57.887979 
L 104.330771 57.721089 
L 104.579159 57.721089 
L 104.579159 57.5542 
L 104.703352 57.5542 
L 104.703352 57.387311 
L 106.442066 57.387311 
L 106.442066 57.220422 
L 107.311423 57.220422 
L 107.311423 57.053533 
L 107.932392 57.053533 
L 107.932392 56.886644 
L 108.180779 56.886644 
L 108.180779 56.719755 
L 112.527563 56.719755 
L 112.527563 56.552866 
L 113.272726 56.552866 
L 113.272726 56.385977 
L 113.893695 56.385977 
L 113.893695 56.219088 
L 116.00499 56.219088 
L 116.377572 55.718421 
L 116.998541 55.718421 
L 116.998541 55.551532 
L 117.371122 55.551532 
L 117.371122 55.384643 
L 117.867898 55.384643 
L 117.867898 55.217754 
L 118.116285 55.217754 
L 118.116285 55.050865 
L 120.600162 55.050865 
L 120.600162 54.883976 
L 120.848549 54.883976 
L 120.848549 54.550198 
L 125.567915 54.550198 
L 125.567915 54.383309 
L 128.796954 54.383309 
L 128.796954 54.21642 
L 129.293729 54.21642 
L 129.417923 54.049531 
L 129.914698 54.049531 
L 129.914698 53.882642 
L 130.28728 53.882642 
L 130.28728 53.715753 
L 132.274381 53.715753 
L 132.274381 53.548864 
L 132.646963 53.548864 
L 132.646963 53.381975 
L 132.89535 53.381975 
L 132.89535 53.215086 
L 136.000196 53.215086 
L 136.248583 53.048197 
L 138.111491 53.048197 
L 138.111491 52.881308 
L 138.359878 52.881308 
L 138.359878 52.714419 
L 150.034098 52.714419 
L 150.034098 52.54753 
L 151.151842 52.54753 
L 151.151842 52.380641 
L 153.635719 52.380641 
L 153.635719 52.213752 
L 155.62282 52.213752 
L 155.62282 52.046863 
L 158.727665 52.046863 
L 158.727665 51.879974 
L 163.943806 51.879974 
L 163.943806 51.713085 
L 165.930907 51.713085 
L 165.930907 51.546196 
L 168.911559 51.546196 
L 168.911559 51.379307 
L 179.219646 51.379307 
L 179.219646 51.212418 
L 179.34384 51.212418 
L 179.34384 51.045529 
L 180.709972 51.045529 
L 180.709972 50.87864 
L 183.193848 50.87864 
L 183.193848 50.711751 
L 183.56643 50.711751 
L 183.56643 50.544862 
L 184.808368 50.544862 
L 184.808368 50.377973 
L 185.677725 50.377973 
L 185.677725 50.211084 
L 187.416438 50.211084 
L 187.416438 50.044195 
L 187.664826 50.044195 
L 187.664826 49.877306 
L 191.763222 49.877306 
L 191.763222 49.710417 
L 197.600332 49.710417 
L 197.600332 49.543528 
L 203.810023 49.543528 
L 203.810023 49.376639 
L 207.039063 49.376639 
L 207.039063 49.20975 
L 210.51649 49.20975 
L 210.51649 49.042861 
L 212.627785 49.042861 
L 212.627785 48.875972 
L 232.126215 48.875972 
L 232.498796 48.542194 
L 237.590743 48.542194 
L 237.590743 48.375305 
L 243.67624 48.375305 
L 244.173016 48.208416 
L 246.90528 48.208416 
L 246.90528 48.041527 
L 259.448856 48.041527 
L 259.448856 47.874638 
L 268.763393 47.874638 
L 268.763393 47.707749 
L 273.358564 47.707749 
L 273.358564 47.54086 
L 278.450511 47.54086 
L 278.450511 47.373971 
L 282.548907 47.373971 
L 282.673101 47.207082 
L 285.529559 47.207082 
L 285.529559 47.040193 
L 300.805399 47.040193 
L 300.805399 46.873304 
L 306.642509 46.873304 
L 306.642509 46.706415 
L 327.755458 46.706415 
L 327.755458 46.539526 
L 334.586119 46.539526 
L 334.586119 46.372637 
L 339.18129 46.372637 
L 339.18129 46.205748 
L 342.658717 46.205748 
L 342.658717 46.038859 
L 390.473339 46.038859 
L 390.473339 45.87197 
L 390.597533 45.87197 
L 390.597533 45.705081 
L 391.963665 45.705081 
L 392.336246 45.371303 
L 406.121761 45.371303 
L 406.121761 45.204414 
L 411.337901 45.204414 
L 411.337901 45.037525 
L 412.083064 45.037525 
L 412.083064 44.870636 
L 418.789531 44.870636 
L 418.913724 44.703747 
L 419.658887 44.703747 
L 419.658887 44.536858 
L 428.600843 44.536858 
L 428.725036 44.369969 
L 459.276717 44.369969 
L 459.276717 44.203079 
L 503.365524 44.203079 
L 503.365524 44.03619 
L 558.135 44.03619 
L 558.135 44.03619 
" clip-path="url(#p3f23b2ab3e)" style="fill: none; stroke-dasharray: 2.5,4.125; stroke-dashoffset: 0; stroke: #2a9d8f; stroke-width: 2.5"/>
   </g>
   <g id="line2d_30">
    <path d="M 47.45 387.16 
L 558.135 44.03619 
" clip-path="url(#p3f23b2ab3e)" style="fill: none; stroke-dasharray: 3.7,1.6; stroke-dashoffset: 0; stroke: #000000"/>
   </g>
   <g id="patch_3">
    <path d="M 47.45 387.16 
L 47.45 26.88 
" style="fill: none; stroke: #000000; stroke-width: 0.8; stroke-linejoin: miter; stroke-linecap: square"/>
   </g>
   <g id="patch_4">
    <path d="M 558.135 387.16 
L 558.135 26.88 
" style="fill: none; stroke: #000000; stroke-width: 0.8; stroke-linejoin: miter; stroke-linecap: square"/>
   </g>
   <g id="patch_5">
    <path d="M 47.45 387.16 
L 558.135 387.16 
" style="fill: none; stroke: #000000; stroke-width: 0.8; stroke-linejoin: miter; stroke-linecap: square"/>
   </g>
   <g id="patch_6">
    <path d="M 47.45 26.88 
L 558.135 26.88 
" style="fill: none; stroke: #000000; stroke-width: 0.8; stroke-linejoin: miter; stroke-linecap: square"/>
   </g>
   <g id="text_15">
    <!-- 国内冲突预测ROC曲线 -->
    <g transform="translate(242.039688 20.88) scale(0.12 -0.12)">
     <defs>
      <path id="MicrosoftYaHei-56fd" d="M 469 4997 
L 5938 4997 
L 5938 -834 
L 5456 -834 
L 5456 -522 
L 950 -522 
L 950 -841 
L 469 -841 
L 469 4997 
z
M 5456 4553 
L 950 4553 
L 950 -78 
L 5456 -78 
L 5456 4553 
z
M 1238 1009 
L 2963 1009 
L 2963 2247 
L 1456 2247 
L 1456 2672 
L 2963 2672 
L 2963 3509 
L 1338 3509 
L 1338 3934 
L 5063 3934 
L 5063 3509 
L 3425 3509 
L 3425 2672 
L 4938 2672 
L 4938 2247 
L 3425 2247 
L 3425 1009 
L 5163 1009 
L 5163 584 
L 1238 584 
L 1238 1009 
z
M 3750 1847 
L 4100 2109 
Q 4444 1753 4688 1441 
L 4319 1159 
Q 4019 1566 3750 1847 
z
" transform="scale(0.015625)"/>
      <path id="MicrosoftYaHei-5185" d="M 638 4184 
L 2944 4184 
L 2944 5259 
L 3456 5259 
L 3456 4184 
L 5750 4184 
L 5750 59 
Q 5750 -734 4969 -728 
Q 4556 -728 3956 -716 
Q 3938 -503 3863 -172 
Q 4456 -222 4850 -228 
Q 5244 -241 5244 166 
L 5244 3709 
L 3444 3709 
Q 3419 3141 3306 2697 
Q 4413 1809 5094 1134 
L 4713 728 
Q 4044 1459 3156 2247 
Q 2731 1328 1538 647 
Q 1275 1009 1188 1097 
Q 2206 1634 2581 2291 
Q 2881 2772 2931 3709 
L 1144 3709 
L 1144 -784 
L 638 -784 
L 638 4184 
z
" transform="scale(0.015625)"/>
      <path id="MicrosoftYaHei-51b2" d="M 2138 4084 
L 3781 4084 
L 3781 5309 
L 4281 5309 
L 4281 4084 
L 5925 4084 
L 5925 984 
L 5438 984 
L 5438 1284 
L 4281 1284 
L 4281 -828 
L 3781 -828 
L 3781 1284 
L 2625 1284 
L 2625 984 
L 2138 984 
L 2138 4084 
z
M 5438 3634 
L 4281 3634 
L 4281 1734 
L 5438 1734 
L 5438 3634 
z
M 2625 1734 
L 3781 1734 
L 3781 3634 
L 2625 3634 
L 2625 1734 
z
M 1125 2434 
Q 1388 2259 1631 2153 
Q 1181 928 681 -603 
L 163 -328 
Q 663 803 1125 2434 
z
M 644 5034 
Q 1200 4291 1619 3653 
L 1144 3341 
Q 675 4134 219 4747 
L 644 5034 
z
" transform="scale(0.015625)"/>
      <path id="MicrosoftYaHei-7a81" d="M 119 -378 
Q 2309 91 2763 1453 
L 275 1453 
L 275 1903 
L 2856 1903 
Q 2888 2272 2894 3022 
L 3406 3022 
Q 3406 2316 3363 1903 
L 6150 1903 
L 6150 1453 
L 3528 1453 
Q 4397 94 6313 -253 
Q 6100 -541 5956 -772 
Q 4059 -309 3181 1147 
Q 2600 -347 444 -853 
Q 325 -659 119 -378 
z
M 369 4472 
L 3147 4472 
Q 2972 4809 2756 5141 
L 3238 5359 
Q 3475 5003 3669 4641 
L 3322 4472 
L 6038 4472 
L 6038 3422 
L 5531 3422 
L 5531 4022 
L 869 4022 
L 869 3397 
L 369 3397 
L 369 4472 
z
M 3944 3778 
Q 5163 3278 6238 2722 
L 5988 2259 
Q 4788 2934 3706 3416 
L 3944 3778 
z
M 2413 3784 
L 2713 3422 
Q 1613 2778 450 2303 
Q 331 2491 156 2709 
Q 1163 3066 2413 3784 
z
M 3725 2678 
L 4025 2978 
Q 4550 2597 4838 2347 
L 4488 2016 
Q 4188 2309 3725 2678 
z
" transform="scale(0.015625)"/>
      <path id="MicrosoftYaHei-9884" d="M 531 3872 
L 844 4147 
Q 1069 3947 1275 3747 
L 1938 4553 
L 175 4553 
L 175 4991 
L 2513 4991 
L 2513 4553 
L 1588 3434 
Q 1694 3322 1794 3216 
L 1544 2997 
L 2681 2997 
L 2681 2578 
Q 2581 2097 2369 1466 
Q 2175 1534 1938 1609 
Q 2094 2003 2213 2559 
L 1588 2559 
L 1588 -72 
Q 1588 -784 888 -784 
L 225 -784 
Q 194 -559 138 -278 
Q 450 -316 769 -316 
Q 1119 -316 1119 84 
L 1119 2559 
L 113 2559 
L 113 2997 
L 1344 2997 
Q 938 3484 531 3872 
z
M 2969 3716 
L 4025 3716 
L 4181 4572 
L 2744 4572 
L 2744 5009 
L 6294 5009 
L 6294 4572 
L 4688 4572 
L 4506 3716 
L 6006 3716 
L 6006 641 
L 5550 641 
L 5550 3284 
L 3425 3284 
L 3425 641 
L 2969 641 
L 2969 3716 
z
M 4244 3028 
L 4706 3028 
L 4706 2097 
Q 4706 1366 4519 841 
Q 5500 184 6306 -441 
L 5963 -847 
Q 5200 -197 4325 428 
Q 4263 334 4200 247 
Q 3694 -397 2613 -897 
Q 2413 -641 2263 -484 
Q 3381 -22 3831 572 
Q 4244 1109 4244 2128 
L 4244 3028 
z
" transform="scale(0.015625)"/>
      <path id="MicrosoftYaHei-6d4b" d="M 875 1753 
Q 1175 1597 1369 1522 
Q 950 -41 763 -784 
L 250 -547 
Q 619 497 875 1753 
z
M 638 5166 
Q 1019 4847 1588 4303 
Q 1381 4103 1213 3928 
Q 756 4434 313 4853 
L 638 5166 
z
M 356 3559 
Q 881 3134 1350 2716 
Q 1188 2547 988 2322 
Q 425 2878 50 3216 
L 356 3559 
z
M 5575 5284 
L 6031 5284 
L 6031 -34 
Q 6031 -753 5338 -753 
Q 5038 -753 4625 -741 
Q 4600 -509 4538 -228 
Q 4938 -272 5219 -272 
Q 5575 -272 5575 84 
L 5575 5284 
z
M 5038 634 
L 4600 634 
L 4600 4778 
L 5038 4778 
L 5038 634 
z
M 1706 4941 
L 4063 4941 
L 4063 991 
L 3613 991 
L 3613 4503 
L 2156 4503 
L 2156 991 
L 1706 991 
L 1706 4941 
z
M 2681 3966 
L 3138 3966 
L 3138 2416 
Q 3138 1466 2963 891 
Q 3775 266 4375 -234 
L 4038 -616 
Q 3538 -141 2800 472 
Q 2413 -297 1406 -884 
Q 1269 -684 1100 -484 
Q 2031 53 2375 709 
Q 2681 1278 2681 2403 
L 2681 3966 
z
" transform="scale(0.015625)"/>
      <path id="MicrosoftYaHei-4f" d="M 313 2363 
Q 313 3534 947 4228 
Q 1581 4922 2666 4922 
Q 3675 4922 4290 4244 
Q 4906 3566 4906 2478 
Q 4906 1300 4275 609 
Q 3644 -81 2588 -81 
Q 1556 -81 934 597 
Q 313 1275 313 2363 
z
M 969 2413 
Q 969 1534 1417 1004 
Q 1866 475 2588 475 
Q 3363 475 3805 983 
Q 4247 1491 4247 2403 
Q 4247 3341 3814 3850 
Q 3381 4359 2628 4359 
Q 1888 4359 1428 3821 
Q 969 3284 969 2413 
z
" transform="scale(0.015625)"/>
      <path id="MicrosoftYaHei-43" d="M 3938 200 
Q 3403 -81 2597 -81 
Q 1556 -81 934 580 
Q 313 1241 313 2328 
Q 313 3497 1013 4209 
Q 1713 4922 2791 4922 
Q 3484 4922 3938 4725 
L 3938 4072 
Q 3419 4359 2797 4359 
Q 1988 4359 1478 3820 
Q 969 3281 969 2366 
Q 969 1497 1444 986 
Q 1919 475 2688 475 
Q 3406 475 3938 800 
L 3938 200 
z
" transform="scale(0.015625)"/>
      <path id="MicrosoftYaHei-66f2" d="M 2163 5322 
L 2625 5322 
L 2625 4291 
L 3775 4291 
L 3775 5328 
L 4238 5328 
L 4238 4291 
L 5850 4291 
L 5850 -822 
L 5388 -822 
L 5388 -409 
L 1013 -409 
L 1013 -822 
L 550 -822 
L 550 4291 
L 2163 4291 
L 2163 5322 
z
M 1013 41 
L 2163 41 
L 2163 1753 
L 1013 1753 
L 1013 41 
z
M 4238 41 
L 5388 41 
L 5388 1753 
L 4238 1753 
L 4238 41 
z
M 2625 41 
L 3775 41 
L 3775 1753 
L 2625 1753 
L 2625 41 
z
M 1013 2203 
L 2163 2203 
L 2163 3841 
L 1013 3841 
L 1013 2203 
z
M 5388 3841 
L 4238 3841 
L 4238 2203 
L 5388 2203 
L 5388 3841 
z
M 2625 2203 
L 3775 2203 
L 3775 3841 
L 2625 3841 
L 2625 2203 
z
" transform="scale(0.015625)"/>
      <path id="MicrosoftYaHei-7ebf" d="M 1969 -347 
Q 3144 75 4003 631 
Q 3781 1197 3653 1972 
L 2319 1784 
L 2244 2234 
L 3591 2422 
Q 3538 2859 3513 3356 
L 2381 3228 
L 2306 3678 
L 3488 3809 
Q 3453 4459 3425 5303 
L 3938 5303 
Q 3953 4497 3978 3866 
L 6069 4103 
L 6125 3659 
L 3997 3413 
Q 4019 2919 4069 2488 
L 6225 2791 
L 6281 2347 
L 4128 2041 
Q 4234 1394 4416 916 
Q 5078 1416 5519 2009 
L 5925 1703 
Q 5363 1025 4619 475 
Q 4859 44 5194 -184 
Q 5606 -428 5725 66 
Q 5806 466 5856 953 
Q 6144 828 6338 772 
Q 6231 97 6125 -247 
Q 5944 -778 5506 -778 
Q 5050 -778 4663 -403 
Q 4409 -163 4209 194 
Q 3350 -363 2281 -772 
Q 2169 -597 1969 -347 
z
M 900 1541 
Q 1456 1622 2213 1753 
Q 2175 1522 2156 1272 
Q 1113 1109 325 978 
L 225 1447 
Q 659 1913 1178 2775 
Q 672 2747 225 2703 
L 106 3128 
Q 688 3922 1300 5353 
L 1775 5166 
Q 1131 3897 669 3166 
Q 1041 3178 1422 3194 
Q 1638 3578 1869 4028 
L 2331 3797 
Q 1569 2478 900 1541 
z
M 106 97 
Q 1206 334 2331 616 
Q 2313 366 2313 141 
Q 1269 -103 244 -378 
L 106 97 
z
M 4463 4972 
L 4731 5284 
Q 5175 5003 5681 4609 
L 5381 4247 
Q 4863 4691 4463 4972 
z
" transform="scale(0.015625)"/>
     </defs>
     <use xlink:href="#MicrosoftYaHei-56fd"/>
     <use xlink:href="#MicrosoftYaHei-5185" transform="translate(100 0)"/>
     <use xlink:href="#MicrosoftYaHei-51b2" transform="translate(200 0)"/>
     <use xlink:href="#MicrosoftYaHei-7a81" transform="translate(300 0)"/>
     <use xlink:href="#MicrosoftYaHei-9884" transform="translate(400 0)"/>
     <use xlink:href="#MicrosoftYaHei-6d4b" transform="translate(500 0)"/>
     <use xlink:href="#MicrosoftYaHei-52" transform="translate(600 0)"/>
     <use xlink:href="#MicrosoftYaHei-4f" transform="translate(664.158203 0)"/>
     <use xlink:href="#MicrosoftYaHei-43" transform="translate(745.652344 0)"/>
     <use xlink:href="#MicrosoftYaHei-66f2" transform="translate(812.546875 0)"/>
     <use xlink:href="#MicrosoftYaHei-7ebf" transform="translate(912.546875 0)"/>
    </g>
   </g>
   <g id="legend_1">
    <g id="patch_7">
     <path d="M 419.24125 382.16 
L 551.135 382.16 
Q 553.135 382.16 553.135 380.16 
L 553.135 303.761563 
Q 553.135 301.761563 551.135 301.761563 
L 419.24125 301.761563 
Q 417.24125 301.761563 417.24125 303.761563 
L 417.24125 380.16 
Q 417.24125 382.16 419.24125 382.16 
z
" style="fill: #ffffff; opacity: 0.8; stroke: #cccccc; stroke-linejoin: miter"/>
    </g>
    <g id="line2d_31">
     <path d="M 421.24125 310.255313 
L 431.24125 310.255313 
L 441.24125 310.255313 
" style="fill: none; stroke: #6c757d; stroke-width: 2; stroke-linecap: square"/>
    </g>
    <g id="text_16">
     <!-- 类别 0 (AUC = 0.967) -->
     <g transform="translate(449.24125 313.755313) scale(0.1 -0.1)">
      <defs>
       <path id="MicrosoftYaHei-7c7b" d="M 6338 -359 
Q 6213 -503 6006 -853 
Q 3975 -459 3200 884 
Q 2644 -497 400 -897 
Q 288 -684 131 -434 
Q 2244 -147 2744 1047 
L 275 1047 
L 275 1484 
L 2875 1484 
Q 2925 1691 2956 1978 
L 3456 1978 
Q 3413 1697 3369 1484 
L 6125 1484 
L 6125 1047 
L 3619 1047 
Q 4450 -159 6338 -359 
z
M 325 3741 
L 2975 3741 
L 2975 5303 
L 3450 5303 
L 3450 3741 
L 6075 3741 
L 6075 3322 
L 3450 3322 
L 3450 2953 
L 3625 3191 
Q 5325 2528 6231 2128 
L 6013 1722 
Q 4956 2266 3450 2847 
L 3450 2197 
L 2975 2197 
L 2975 3241 
Q 1863 2191 450 1741 
Q 319 1934 144 2153 
Q 1569 2553 2538 3322 
L 325 3322 
L 325 3741 
z
M 5550 4784 
Q 5163 4459 4394 3891 
L 4069 4222 
Q 4569 4578 5194 5122 
L 5550 4784 
z
M 900 4791 
L 1206 5122 
Q 1875 4647 2306 4266 
L 1969 3897 
Q 1581 4284 900 4791 
z
" transform="scale(0.015625)"/>
       <path id="MicrosoftYaHei-522b" d="M 538 4959 
L 3375 4959 
L 3375 2772 
L 2888 2772 
L 2888 3028 
L 1025 3028 
L 1025 2772 
L 538 2772 
L 538 4959 
z
M 300 2116 
L 1316 2116 
Q 1331 2431 1338 2822 
L 1825 2822 
Q 1816 2431 1797 2116 
L 3431 2116 
Q 3413 1028 3363 328 
Q 3319 -684 2431 -678 
Q 2006 -678 1563 -641 
Q 1531 -347 1469 -122 
Q 1963 -203 2350 -203 
Q 2850 -209 2875 378 
Q 2925 891 2938 1666 
L 1769 1666 
Q 1688 53 431 -859 
Q 300 -666 88 -441 
Q 1238 366 1288 1666 
L 300 1666 
L 300 2116 
z
M 5425 5278 
L 5944 5278 
L 5944 53 
Q 5944 -747 5163 -747 
Q 4756 -747 4175 -741 
Q 4138 -484 4081 -178 
Q 4725 -228 4994 -228 
Q 5425 -228 5425 191 
L 5425 5278 
z
M 4138 4647 
L 4644 4647 
L 4644 666 
L 4138 666 
L 4138 4647 
z
M 2888 4509 
L 1025 4509 
L 1025 3478 
L 2888 3478 
L 2888 4509 
z
" transform="scale(0.015625)"/>
       <path id="MicrosoftYaHei-41" d="M 4428 0 
L 3738 0 
L 3244 1325 
L 1228 1325 
L 763 0 
L 72 0 
L 1916 4841 
L 2584 4841 
L 4428 0 
z
M 3050 1872 
L 2319 3884 
Q 2284 3981 2244 4222 
L 2228 4222 
Q 2194 4003 2150 3884 
L 1425 1872 
L 3050 1872 
z
" transform="scale(0.015625)"/>
       <path id="MicrosoftYaHei-55" d="M 4213 1972 
Q 4213 -81 2350 -81 
Q 566 -81 566 1900 
L 566 4841 
L 1191 4841 
L 1191 1928 
Q 1191 475 2409 475 
Q 3588 475 3588 1881 
L 3588 4841 
L 4213 4841 
L 4213 1972 
z
" transform="scale(0.015625)"/>
       <path id="MicrosoftYaHei-3d" d="M 3972 2497 
L 788 2497 
L 788 2969 
L 3972 2969 
L 3972 2497 
z
M 3972 1053 
L 788 1053 
L 788 1525 
L 3972 1525 
L 3972 1053 
z
" transform="scale(0.015625)"/>
       <path id="MicrosoftYaHei-39" d="M 578 656 
Q 978 425 1441 425 
Q 2091 425 2448 937 
Q 2806 1450 2806 2394 
Q 2800 2388 2794 2394 
Q 2475 1788 1722 1788 
Q 1113 1788 713 2206 
Q 313 2625 313 3294 
Q 313 4006 750 4464 
Q 1188 4922 1884 4922 
Q 2606 4922 3012 4355 
Q 3419 3788 3419 2703 
Q 3419 1363 2894 641 
Q 2369 -81 1441 -81 
Q 931 -81 578 84 
L 578 656 
z
M 931 3372 
Q 931 2884 1181 2598 
Q 1431 2313 1872 2313 
Q 2253 2313 2512 2573 
Q 2772 2834 2772 3206 
Q 2772 3728 2514 4070 
Q 2256 4413 1834 4413 
Q 1444 4413 1187 4116 
Q 931 3819 931 3372 
z
" transform="scale(0.015625)"/>
       <path id="MicrosoftYaHei-37" d="M 3422 4463 
Q 2659 3131 2223 1998 
Q 1788 866 1684 0 
L 1047 0 
Q 1163 853 1594 1947 
Q 2025 3041 2747 4300 
L 347 4300 
L 347 4841 
L 3422 4841 
L 3422 4463 
z
" transform="scale(0.015625)"/>
      </defs>
      <use xlink:href="#MicrosoftYaHei-7c7b"/>
      <use xlink:href="#MicrosoftYaHei-522b" transform="translate(100 0)"/>
      <use xlink:href="#MicrosoftYaHei-20" transform="translate(200 0)"/>
      <use xlink:href="#MicrosoftYaHei-30" transform="translate(229.589844 0)"/>
      <use xlink:href="#MicrosoftYaHei-20" transform="translate(288.232422 0)"/>
      <use xlink:href="#MicrosoftYaHei-28" transform="translate(317.822266 0)"/>
      <use xlink:href="#MicrosoftYaHei-41" transform="translate(351.220703 0)"/>
      <use xlink:href="#MicrosoftYaHei-55" transform="translate(420.207031 0)"/>
      <use xlink:href="#MicrosoftYaHei-43" transform="translate(494.865234 0)"/>
      <use xlink:href="#MicrosoftYaHei-20" transform="translate(561.759766 0)"/>
      <use xlink:href="#MicrosoftYaHei-3d" transform="translate(591.349609 0)"/>
      <use xlink:href="#MicrosoftYaHei-20" transform="translate(665.519531 0)"/>
      <use xlink:href="#MicrosoftYaHei-30" transform="translate(695.109375 0)"/>
      <use xlink:href="#MicrosoftYaHei-2e" transform="translate(753.751953 0)"/>
      <use xlink:href="#MicrosoftYaHei-39" transform="translate(777.824219 0)"/>
      <use xlink:href="#MicrosoftYaHei-36" transform="translate(836.466797 0)"/>
      <use xlink:href="#MicrosoftYaHei-37" transform="translate(895.109375 0)"/>
      <use xlink:href="#MicrosoftYaHei-29" transform="translate(953.751953 0)"/>
     </g>
    </g>
    <g id="line2d_32">
     <path d="M 421.24125 325.735 
L 431.24125 325.735 
L 441.24125 325.735 
" style="fill: none; stroke: #f4a261; stroke-width: 2; stroke-linecap: square"/>
    </g>
    <g id="text_17">
     <!-- 类别 1 (AUC = 0.944) -->
     <g transform="translate(449.24125 329.235) scale(0.1 -0.1)">
      <use xlink:href="#MicrosoftYaHei-7c7b"/>
      <use xlink:href="#MicrosoftYaHei-522b" transform="translate(100 0)"/>
      <use xlink:href="#MicrosoftYaHei-20" transform="translate(200 0)"/>
      <use xlink:href="#MicrosoftYaHei-31" transform="translate(229.589844 0)"/>
      <use xlink:href="#MicrosoftYaHei-20" transform="translate(288.232422 0)"/>
      <use xlink:href="#MicrosoftYaHei-28" transform="translate(317.822266 0)"/>
      <use xlink:href="#MicrosoftYaHei-41" transform="translate(351.220703 0)"/>
      <use xlink:href="#MicrosoftYaHei-55" transform="translate(420.207031 0)"/>
      <use xlink:href="#MicrosoftYaHei-43" transform="translate(494.865234 0)"/>
      <use xlink:href="#MicrosoftYaHei-20" transform="translate(561.759766 0)"/>
      <use xlink:href="#MicrosoftYaHei-3d" transform="translate(591.349609 0)"/>
      <use xlink:href="#MicrosoftYaHei-20" transform="translate(665.519531 0)"/>
      <use xlink:href="#MicrosoftYaHei-30" transform="translate(695.109375 0)"/>
      <use xlink:href="#MicrosoftYaHei-2e" transform="translate(753.751953 0)"/>
      <use xlink:href="#MicrosoftYaHei-39" transform="translate(777.824219 0)"/>
      <use xlink:href="#MicrosoftYaHei-34" transform="translate(836.466797 0)"/>
      <use xlink:href="#MicrosoftYaHei-34" transform="translate(895.109375 0)"/>
      <use xlink:href="#MicrosoftYaHei-29" transform="translate(953.751953 0)"/>
     </g>
    </g>
    <g id="line2d_33">
     <path d="M 421.24125 341.214688 
L 431.24125 341.214688 
L 441.24125 341.214688 
" style="fill: none; stroke: #d62828; stroke-width: 2; stroke-linecap: square"/>
    </g>
    <g id="text_18">
     <!-- 类别 2 (AUC = 0.974) -->
     <g transform="translate(449.24125 344.714688) scale(0.1 -0.1)">
      <use xlink:href="#MicrosoftYaHei-7c7b"/>
      <use xlink:href="#MicrosoftYaHei-522b" transform="translate(100 0)"/>
      <use xlink:href="#MicrosoftYaHei-20" transform="translate(200 0)"/>
      <use xlink:href="#MicrosoftYaHei-32" transform="translate(229.589844 0)"/>
      <use xlink:href="#MicrosoftYaHei-20" transform="translate(288.232422 0)"/>
      <use xlink:href="#MicrosoftYaHei-28" transform="translate(317.822266 0)"/>
      <use xlink:href="#MicrosoftYaHei-41" transform="translate(351.220703 0)"/>
      <use xlink:href="#MicrosoftYaHei-55" transform="translate(420.207031 0)"/>
      <use xlink:href="#MicrosoftYaHei-43" transform="translate(494.865234 0)"/>
      <use xlink:href="#MicrosoftYaHei-20" transform="translate(561.759766 0)"/>
      <use xlink:href="#MicrosoftYaHei-3d" transform="translate(591.349609 0)"/>
      <use xlink:href="#MicrosoftYaHei-20" transform="translate(665.519531 0)"/>
      <use xlink:href="#MicrosoftYaHei-30" transform="translate(695.109375 0)"/>
      <use xlink:href="#MicrosoftYaHei-2e" transform="translate(753.751953 0)"/>
      <use xlink:href="#MicrosoftYaHei-39" transform="translate(777.824219 0)"/>
      <use xlink:href="#MicrosoftYaHei-37" transform="translate(836.466797 0)"/>
      <use xlink:href="#MicrosoftYaHei-34" transform="translate(895.109375 0)"/>
      <use xlink:href="#MicrosoftYaHei-29" transform="translate(953.751953 0)"/>
     </g>
    </g>
    <g id="line2d_34">
     <path d="M 421.24125 356.694375 
L 431.24125 356.694375 
L 441.24125 356.694375 
" style="fill: none; stroke-dasharray: 9.25,4; stroke-dashoffset: 0; stroke: #1d3557; stroke-width: 2.5"/>
    </g>
    <g id="text_19">
     <!-- 宏平均 (AUC = 0.962) -->
     <g transform="translate(449.24125 360.194375) scale(0.1 -0.1)">
      <defs>
       <path id="MicrosoftYaHei-5b8f" d="M 213 2928 
L 2075 2928 
Q 2281 3391 2444 3884 
L 2963 3734 
Q 2822 3322 2650 2928 
L 6213 2928 
L 6213 2466 
L 2438 2466 
Q 1666 881 369 -441 
Q 244 -184 81 34 
Q 1169 1109 1856 2466 
L 213 2466 
L 213 2928 
z
M 4563 1384 
Q 5331 472 6069 -484 
L 5606 -797 
Q 5444 -569 5284 -347 
Q 3181 -463 2363 -534 
Q 2144 -553 1831 -634 
L 1575 -141 
Q 1813 -59 2056 172 
Q 2763 947 3375 2178 
L 3894 1953 
Q 3106 678 2506 -34 
Q 3781 3 4978 66 
Q 4578 603 4175 1116 
L 4563 1384 
z
M 394 4528 
L 3097 4528 
Q 2938 4834 2744 5128 
L 3200 5353 
Q 3456 4941 3669 4528 
L 6056 4528 
L 6056 3459 
L 5556 3459 
L 5556 4066 
L 894 4066 
L 894 3459 
L 394 3459 
L 394 4528 
z
" transform="scale(0.015625)"/>
       <path id="MicrosoftYaHei-5e73" d="M 169 1934 
L 2938 1934 
L 2938 4547 
L 450 4547 
L 450 5028 
L 5975 5028 
L 5975 4547 
L 3463 4547 
L 3463 1934 
L 6250 1934 
L 6250 1453 
L 3463 1453 
L 3463 -847 
L 2938 -847 
L 2938 1453 
L 169 1453 
L 169 1934 
z
M 3950 2559 
Q 4638 3284 5188 4159 
L 5656 3859 
Q 4950 2891 4338 2234 
L 3950 2559 
z
M 769 3859 
L 1163 4134 
Q 1863 3316 2369 2553 
L 1925 2222 
Q 1444 3003 769 3859 
z
" transform="scale(0.015625)"/>
       <path id="MicrosoftYaHei-5747" d="M 2244 2803 
Q 2931 3953 3338 5322 
L 3838 5172 
Q 3691 4744 3531 4347 
L 6013 4347 
Q 5925 1053 5875 297 
Q 5831 -697 4806 -697 
Q 4188 -697 3706 -672 
Q 3669 -422 3606 -141 
L 3625 -141 
Q 4250 -209 4775 -209 
Q 5350 -209 5394 378 
Q 5456 1447 5513 3891 
L 3341 3891 
Q 3028 3172 2675 2572 
Q 2481 2691 2244 2803 
z
M 81 428 
Q 559 600 1006 769 
L 1006 3253 
L 169 3253 
L 169 3697 
L 1006 3697 
L 1006 5259 
L 1469 5259 
L 1469 3697 
L 2281 3697 
L 2281 3253 
L 1469 3253 
L 1469 947 
Q 1922 1125 2338 1303 
Q 2350 991 2369 784 
Q 1363 403 250 -53 
L 81 428 
z
M 2513 853 
Q 3769 1353 5119 1934 
Q 5150 1641 5188 1434 
Q 4031 947 2706 359 
L 2513 853 
z
M 3138 2909 
L 3481 3216 
Q 4025 2716 4531 2216 
L 4125 1859 
Q 3644 2409 3138 2909 
z
" transform="scale(0.015625)"/>
      </defs>
      <use xlink:href="#MicrosoftYaHei-5b8f"/>
      <use xlink:href="#MicrosoftYaHei-5e73" transform="translate(100 0)"/>
      <use xlink:href="#MicrosoftYaHei-5747" transform="translate(200 0)"/>
      <use xlink:href="#MicrosoftYaHei-20" transform="translate(300 0)"/>
      <use xlink:href="#MicrosoftYaHei-28" transform="translate(329.589844 0)"/>
      <use xlink:href="#MicrosoftYaHei-41" transform="translate(362.988281 0)"/>
      <use xlink:href="#MicrosoftYaHei-55" transform="translate(431.974609 0)"/>
      <use xlink:href="#MicrosoftYaHei-43" transform="translate(506.632812 0)"/>
      <use xlink:href="#MicrosoftYaHei-20" transform="translate(573.527344 0)"/>
      <use xlink:href="#MicrosoftYaHei-3d" transform="translate(603.117188 0)"/>
      <use xlink:href="#MicrosoftYaHei-20" transform="translate(677.287109 0)"/>
      <use xlink:href="#MicrosoftYaHei-30" transform="translate(706.876953 0)"/>
      <use xlink:href="#MicrosoftYaHei-2e" transform="translate(765.519531 0)"/>
      <use xlink:href="#MicrosoftYaHei-39" transform="translate(789.591797 0)"/>
      <use xlink:href="#MicrosoftYaHei-36" transform="translate(848.234375 0)"/>
      <use xlink:href="#MicrosoftYaHei-32" transform="translate(906.876953 0)"/>
      <use xlink:href="#MicrosoftYaHei-29" transform="translate(965.519531 0)"/>
     </g>
    </g>
    <g id="line2d_35">
     <path d="M 421.24125 372.174062 
L 431.24125 372.174062 
L 441.24125 372.174062 
" style="fill: none; stroke-dasharray: 2.5,4.125; stroke-dashoffset: 0; stroke: #2a9d8f; stroke-width: 2.5"/>
    </g>
    <g id="text_20">
     <!-- 微平均 (AUC = 0.980) -->
     <g transform="translate(449.24125 375.674062) scale(0.1 -0.1)">
      <defs>
       <path id="MicrosoftYaHei-5fae" d="M 4775 5303 
L 5200 5228 
Q 5100 4650 4966 4128 
L 6313 4128 
L 6313 3678 
L 6013 3678 
Q 5881 1888 5409 844 
Q 5769 147 6350 -347 
Q 6213 -591 6088 -828 
Q 5534 -294 5172 384 
Q 4797 -269 4206 -872 
Q 4081 -691 3900 -478 
Q 4581 166 4950 866 
Q 4600 1734 4525 2813 
Q 4425 2572 4313 2347 
Q 4188 2509 4013 2672 
Q 4563 3741 4775 5303 
z
M 1813 3203 
L 1813 4734 
L 2213 4734 
L 2213 3628 
L 2725 3628 
L 2725 5216 
L 3138 5216 
L 3138 3628 
L 3650 3628 
L 3650 4741 
L 4050 4741 
L 4050 3003 
L 3650 3003 
L 3650 3203 
L 1813 3203 
z
M 3256 1209 
L 2431 1209 
L 2431 922 
Q 2431 -203 1800 -678 
Q 1694 -503 1519 -278 
Q 2013 47 2013 972 
L 2013 1634 
L 3675 1634 
L 3675 547 
Q 3963 797 4331 1134 
Q 4388 859 4438 653 
Q 4094 378 3656 -22 
Q 3519 -153 3406 -272 
L 3088 128 
Q 3256 297 3256 578 
L 3256 1209 
z
M 81 1628 
Q 788 2453 1281 3572 
L 1694 3378 
Q 1463 2891 1213 2466 
L 1213 -816 
L 788 -816 
L 788 1809 
Q 525 1438 244 1128 
Q 169 1378 81 1628 
z
M 5588 3678 
L 4838 3678 
L 4819 3619 
Q 4828 2338 5178 1375 
Q 5453 2150 5588 3678 
z
M 113 3641 
Q 900 4441 1294 5272 
L 1681 5053 
Q 1131 3997 263 3153 
Q 194 3397 113 3641 
z
M 1938 2647 
L 3925 2647 
L 3925 2209 
L 1938 2209 
L 1938 2647 
z
" transform="scale(0.015625)"/>
      </defs>
      <use xlink:href="#MicrosoftYaHei-5fae"/>
      <use xlink:href="#MicrosoftYaHei-5e73" transform="translate(100 0)"/>
      <use xlink:href="#MicrosoftYaHei-5747" transform="translate(200 0)"/>
      <use xlink:href="#MicrosoftYaHei-20" transform="translate(300 0)"/>
      <use xlink:href="#MicrosoftYaHei-28" transform="translate(329.589844 0)"/>
      <use xlink:href="#MicrosoftYaHei-41" transform="translate(362.988281 0)"/>
      <use xlink:href="#MicrosoftYaHei-55" transform="translate(431.974609 0)"/>
      <use xlink:href="#MicrosoftYaHei-43" transform="translate(506.632812 0)"/>
      <use xlink:href="#MicrosoftYaHei-20" transform="translate(573.527344 0)"/>
      <use xlink:href="#MicrosoftYaHei-3d" transform="translate(603.117188 0)"/>
      <use xlink:href="#MicrosoftYaHei-20" transform="translate(677.287109 0)"/>
      <use xlink:href="#MicrosoftYaHei-30" transform="translate(706.876953 0)"/>
      <use xlink:href="#MicrosoftYaHei-2e" transform="translate(765.519531 0)"/>
      <use xlink:href="#MicrosoftYaHei-39" transform="translate(789.591797 0)"/>
      <use xlink:href="#MicrosoftYaHei-38" transform="translate(848.234375 0)"/>
      <use xlink:href="#MicrosoftYaHei-30" transform="translate(906.876953 0)"/>
      <use xlink:href="#MicrosoftYaHei-29" transform="translate(965.519531 0)"/>
     </g>
    </g>
   </g>
  </g>
 </g>
 <defs>
  <clipPath id="p3f23b2ab3e">
   <rect x="47.45" y="26.88" width="510.685" height="360.28"/>
  </clipPath>
 </defs>
</svg>
