<?xml version="1.0" encoding="utf-8" standalone="no"?>
<!DOCTYPE svg PUBLIC "-//W3C//DTD SVG 1.1//EN"
  "http://www.w3.org/Graphics/SVG/1.1/DTD/svg11.dtd">
<svg xmlns:xlink="http://www.w3.org/1999/xlink" width="576pt" height="432pt" viewBox="0 0 576 432" xmlns="http://www.w3.org/2000/svg" version="1.1">
 <metadata>
  <rdf:RDF xmlns:dc="http://purl.org/dc/elements/1.1/" xmlns:cc="http://creativecommons.org/ns#" xmlns:rdf="http://www.w3.org/1999/02/22-rdf-syntax-ns#">
   <cc:Work>
    <dc:type rdf:resource="http://purl.org/dc/dcmitype/StillImage"/>
    <dc:date>2026-04-02T14:04:10.314059</dc:date>
    <dc:format>image/svg+xml</dc:format>
    <dc:creator>
     <cc:Agent>
      <dc:title>Matplotlib v3.10.8, https://matplotlib.org/</dc:title>
     </cc:Agent>
    </dc:creator>
   </cc:Work>
  </rdf:RDF>
 </metadata>
 <defs>
  <style type="text/css">*{stroke-linejoin: round; stroke-linecap: butt}</style>
 </defs>
 <g id="figure_1">
  <g id="patch_1">
   <path d="M 0 432 
L 576 432 
L 576 0 
L 0 0 
z
" style="fill: #ffffff"/>
  </g>
  <g id="axes_1">
   <g id="patch_2">
    <path d="M 47.72 390.04 
L 557.28 390.04 
L 557.28 26.88 
L 47.72 26.88 
z
" style="fill: #ffffff"/>
   </g>
   <g id="matplotlib.axis_1">
    <g id="xtick_1">
     <g id="line2d_1">
      <path d="M 47.72 390.04 
L 47.72 26.88 
" clip-path="url(#p8e5319344c)" style="fill: none; stroke: #b0b0b0; stroke-opacity: 0.25; stroke-width: 0.8; stroke-linecap: square"/>
     </g>
     <g id="line2d_2">
      <defs>
       <path id="m9d11f97e90" d="M 0 0 
L 0 3.5 
" style="stroke: #000000; stroke-width: 0.8"/>
      </defs>
      <g>
       <use xlink:href="#m9d11f97e90" x="47.72" y="390.04" style="stroke: #000000; stroke-width: 0.8"/>
      </g>
     </g>
     <g id="text_1">
      <!-- 0.0 -->
      <g transform="translate(39.768438 404.638438) scale(0.1 -0.1)">
       <defs>
        <path id="DejaVuSans-30" d="M 2034 4250 
Q 1547 4250 1301 3770 
Q 1056 3291 1056 2328 
Q 1056 1369 1301 889 
Q 1547 409 2034 409 
Q 2525 409 2770 889 
Q 3016 1369 3016 2328 
Q 3016 3291 2770 3770 
Q 2525 4250 2034 4250 
z
M 2034 4750 
Q 2819 4750 3233 4129 
Q 3647 3509 3647 2328 
Q 3647 1150 3233 529 
Q 2819 -91 2034 -91 
Q 1250 -91 836 529 
Q 422 1150 422 2328 
Q 422 3509 836 4129 
Q 1250 4750 2034 4750 
z
" transform="scale(0.015625)"/>
        <path id="DejaVuSans-2e" d="M 684 794 
L 1344 794 
L 1344 0 
L 684 0 
L 684 794 
z
" transform="scale(0.015625)"/>
       </defs>
       <use xlink:href="#DejaVuSans-30"/>
       <use xlink:href="#DejaVuSans-2e" transform="translate(63.623047 0)"/>
       <use xlink:href="#DejaVuSans-30" transform="translate(95.410156 0)"/>
      </g>
     </g>
    </g>
    <g id="xtick_2">
     <g id="line2d_3">
      <path d="M 149.632 390.04 
L 149.632 26.88 
" clip-path="url(#p8e5319344c)" style="fill: none; stroke: #b0b0b0; stroke-opacity: 0.25; stroke-width: 0.8; stroke-linecap: square"/>
     </g>
     <g id="line2d_4">
      <g>
       <use xlink:href="#m9d11f97e90" x="149.632" y="390.04" style="stroke: #000000; stroke-width: 0.8"/>
      </g>
     </g>
     <g id="text_2">
      <!-- 0.2 -->
      <g transform="translate(141.680438 404.638438) scale(0.1 -0.1)">
       <defs>
        <path id="DejaVuSans-32" d="M 1228 531 
L 3431 531 
L 3431 0 
L 469 0 
L 469 531 
Q 828 903 1448 1529 
Q 2069 2156 2228 2338 
Q 2531 2678 2651 2914 
Q 2772 3150 2772 3378 
Q 2772 3750 2511 3984 
Q 2250 4219 1831 4219 
Q 1534 4219 1204 4116 
Q 875 4013 500 3803 
L 500 4441 
Q 881 4594 1212 4672 
Q 1544 4750 1819 4750 
Q 2544 4750 2975 4387 
Q 3406 4025 3406 3419 
Q 3406 3131 3298 2873 
Q 3191 2616 2906 2266 
Q 2828 2175 2409 1742 
Q 1991 1309 1228 531 
z
" transform="scale(0.015625)"/>
       </defs>
       <use xlink:href="#DejaVuSans-30"/>
       <use xlink:href="#DejaVuSans-2e" transform="translate(63.623047 0)"/>
       <use xlink:href="#DejaVuSans-32" transform="translate(95.410156 0)"/>
      </g>
     </g>
    </g>
    <g id="xtick_3">
     <g id="line2d_5">
      <path d="M 251.544 390.04 
L 251.544 26.88 
" clip-path="url(#p8e5319344c)" style="fill: none; stroke: #b0b0b0; stroke-opacity: 0.25; stroke-width: 0.8; stroke-linecap: square"/>
     </g>
     <g id="line2d_6">
      <g>
       <use xlink:href="#m9d11f97e90" x="251.544" y="390.04" style="stroke: #000000; stroke-width: 0.8"/>
      </g>
     </g>
     <g id="text_3">
      <!-- 0.4 -->
      <g transform="translate(243.592438 404.638438) scale(0.1 -0.1)">
       <defs>
        <path id="DejaVuSans-34" d="M 2419 4116 
L 825 1625 
L 2419 1625 
L 2419 4116 
z
M 2253 4666 
L 3047 4666 
L 3047 1625 
L 3713 1625 
L 3713 1100 
L 3047 1100 
L 3047 0 
L 2419 0 
L 2419 1100 
L 313 1100 
L 313 1709 
L 2253 4666 
z
" transform="scale(0.015625)"/>
       </defs>
       <use xlink:href="#DejaVuSans-30"/>
       <use xlink:href="#DejaVuSans-2e" transform="translate(63.623047 0)"/>
       <use xlink:href="#DejaVuSans-34" transform="translate(95.410156 0)"/>
      </g>
     </g>
    </g>
    <g id="xtick_4">
     <g id="line2d_7">
      <path d="M 353.456 390.04 
L 353.456 26.88 
" clip-path="url(#p8e5319344c)" style="fill: none; stroke: #b0b0b0; stroke-opacity: 0.25; stroke-width: 0.8; stroke-linecap: square"/>
     </g>
     <g id="line2d_8">
      <g>
       <use xlink:href="#m9d11f97e90" x="353.456" y="390.04" style="stroke: #000000; stroke-width: 0.8"/>
      </g>
     </g>
     <g id="text_4">
      <!-- 0.6 -->
      <g transform="translate(345.504437 404.638438) scale(0.1 -0.1)">
       <defs>
        <path id="DejaVuSans-36" d="M 2113 2584 
Q 1688 2584 1439 2293 
Q 1191 2003 1191 1497 
Q 1191 994 1439 701 
Q 1688 409 2113 409 
Q 2538 409 2786 701 
Q 3034 994 3034 1497 
Q 3034 2003 2786 2293 
Q 2538 2584 2113 2584 
z
M 3366 4563 
L 3366 3988 
Q 3128 4100 2886 4159 
Q 2644 4219 2406 4219 
Q 1781 4219 1451 3797 
Q 1122 3375 1075 2522 
Q 1259 2794 1537 2939 
Q 1816 3084 2150 3084 
Q 2853 3084 3261 2657 
Q 3669 2231 3669 1497 
Q 3669 778 3244 343 
Q 2819 -91 2113 -91 
Q 1303 -91 875 529 
Q 447 1150 447 2328 
Q 447 3434 972 4092 
Q 1497 4750 2381 4750 
Q 2619 4750 2861 4703 
Q 3103 4656 3366 4563 
z
" transform="scale(0.015625)"/>
       </defs>
       <use xlink:href="#DejaVuSans-30"/>
       <use xlink:href="#DejaVuSans-2e" transform="translate(63.623047 0)"/>
       <use xlink:href="#DejaVuSans-36" transform="translate(95.410156 0)"/>
      </g>
     </g>
    </g>
    <g id="xtick_5">
     <g id="line2d_9">
      <path d="M 455.368 390.04 
L 455.368 26.88 
" clip-path="url(#p8e5319344c)" style="fill: none; stroke: #b0b0b0; stroke-opacity: 0.25; stroke-width: 0.8; stroke-linecap: square"/>
     </g>
     <g id="line2d_10">
      <g>
       <use xlink:href="#m9d11f97e90" x="455.368" y="390.04" style="stroke: #000000; stroke-width: 0.8"/>
      </g>
     </g>
     <g id="text_5">
      <!-- 0.8 -->
      <g transform="translate(447.416437 404.638438) scale(0.1 -0.1)">
       <defs>
        <path id="DejaVuSans-38" d="M 2034 2216 
Q 1584 2216 1326 1975 
Q 1069 1734 1069 1313 
Q 1069 891 1326 650 
Q 1584 409 2034 409 
Q 2484 409 2743 651 
Q 3003 894 3003 1313 
Q 3003 1734 2745 1975 
Q 2488 2216 2034 2216 
z
M 1403 2484 
Q 997 2584 770 2862 
Q 544 3141 544 3541 
Q 544 4100 942 4425 
Q 1341 4750 2034 4750 
Q 2731 4750 3128 4425 
Q 3525 4100 3525 3541 
Q 3525 3141 3298 2862 
Q 3072 2584 2669 2484 
Q 3125 2378 3379 2068 
Q 3634 1759 3634 1313 
Q 3634 634 3220 271 
Q 2806 -91 2034 -91 
Q 1263 -91 848 271 
Q 434 634 434 1313 
Q 434 1759 690 2068 
Q 947 2378 1403 2484 
z
M 1172 3481 
Q 1172 3119 1398 2916 
Q 1625 2713 2034 2713 
Q 2441 2713 2670 2916 
Q 2900 3119 2900 3481 
Q 2900 3844 2670 4047 
Q 2441 4250 2034 4250 
Q 1625 4250 1398 4047 
Q 1172 3844 1172 3481 
z
" transform="scale(0.015625)"/>
       </defs>
       <use xlink:href="#DejaVuSans-30"/>
       <use xlink:href="#DejaVuSans-2e" transform="translate(63.623047 0)"/>
       <use xlink:href="#DejaVuSans-38" transform="translate(95.410156 0)"/>
      </g>
     </g>
    </g>
    <g id="xtick_6">
     <g id="line2d_11">
      <path d="M 557.28 390.04 
L 557.28 26.88 
" clip-path="url(#p8e5319344c)" style="fill: none; stroke: #b0b0b0; stroke-opacity: 0.25; stroke-width: 0.8; stroke-linecap: square"/>
     </g>
     <g id="line2d_12">
      <g>
       <use xlink:href="#m9d11f97e90" x="557.28" y="390.04" style="stroke: #000000; stroke-width: 0.8"/>
      </g>
     </g>
     <g id="text_6">
      <!-- 1.0 -->
      <g transform="translate(549.328437 404.638438) scale(0.1 -0.1)">
       <defs>
        <path id="DejaVuSans-31" d="M 794 531 
L 1825 531 
L 1825 4091 
L 703 3866 
L 703 4441 
L 1819 4666 
L 2450 4666 
L 2450 531 
L 3481 531 
L 3481 0 
L 794 0 
L 794 531 
z
" transform="scale(0.015625)"/>
       </defs>
       <use xlink:href="#DejaVuSans-31"/>
       <use xlink:href="#DejaVuSans-2e" transform="translate(63.623047 0)"/>
       <use xlink:href="#DejaVuSans-30" transform="translate(95.410156 0)"/>
      </g>
     </g>
    </g>
    <g id="text_7">
     <!-- 假正例率 (False Positive Rate) -->
     <g transform="translate(238.539844 418.316562) scale(0.1 -0.1)">
      <defs>
       <path id="DejaVuSans-5047" d="M 319 -1131 
L 319 4513 
L 3519 4513 
L 3519 -1131 
L 319 -1131 
z
M 678 -775 
L 3163 -775 
L 3163 4153 
L 678 4153 
L 678 -775 
z
" transform="scale(0.015625)"/>
       <path id="DejaVuSans-6b63" d="M 319 -1131 
L 319 4513 
L 3519 4513 
L 3519 -1131 
L 319 -1131 
z
M 678 -775 
L 3163 -775 
L 3163 4153 
L 678 4153 
L 678 -775 
z
" transform="scale(0.015625)"/>
       <path id="DejaVuSans-4f8b" d="M 319 -1131 
L 319 4513 
L 3519 4513 
L 3519 -1131 
L 319 -1131 
z
M 678 -775 
L 3163 -775 
L 3163 4153 
L 678 4153 
L 678 -775 
z
" transform="scale(0.015625)"/>
       <path id="DejaVuSans-7387" d="M 319 -1131 
L 319 4513 
L 3519 4513 
L 3519 -1131 
L 319 -1131 
z
M 678 -775 
L 3163 -775 
L 3163 4153 
L 678 4153 
L 678 -775 
z
" transform="scale(0.015625)"/>
       <path id="DejaVuSans-20" transform="scale(0.015625)"/>
       <path id="DejaVuSans-28" d="M 1984 4856 
Q 1566 4138 1362 3434 
Q 1159 2731 1159 2009 
Q 1159 1288 1364 580 
Q 1569 -128 1984 -844 
L 1484 -844 
Q 1016 -109 783 600 
Q 550 1309 550 2009 
Q 550 2706 781 3412 
Q 1013 4119 1484 4856 
L 1984 4856 
z
" transform="scale(0.015625)"/>
       <path id="DejaVuSans-46" d="M 628 4666 
L 3309 4666 
L 3309 4134 
L 1259 4134 
L 1259 2759 
L 3109 2759 
L 3109 2228 
L 1259 2228 
L 1259 0 
L 628 0 
L 628 4666 
z
" transform="scale(0.015625)"/>
       <path id="DejaVuSans-61" d="M 2194 1759 
Q 1497 1759 1228 1600 
Q 959 1441 959 1056 
Q 959 750 1161 570 
Q 1363 391 1709 391 
Q 2188 391 2477 730 
Q 2766 1069 2766 1631 
L 2766 1759 
L 2194 1759 
z
M 3341 1997 
L 3341 0 
L 2766 0 
L 2766 531 
Q 2569 213 2275 61 
Q 1981 -91 1556 -91 
Q 1019 -91 701 211 
Q 384 513 384 1019 
Q 384 1609 779 1909 
Q 1175 2209 1959 2209 
L 2766 2209 
L 2766 2266 
Q 2766 2663 2505 2880 
Q 2244 3097 1772 3097 
Q 1472 3097 1187 3025 
Q 903 2953 641 2809 
L 641 3341 
Q 956 3463 1253 3523 
Q 1550 3584 1831 3584 
Q 2591 3584 2966 3190 
Q 3341 2797 3341 1997 
z
" transform="scale(0.015625)"/>
       <path id="DejaVuSans-6c" d="M 603 4863 
L 1178 4863 
L 1178 0 
L 603 0 
L 603 4863 
z
" transform="scale(0.015625)"/>
       <path id="DejaVuSans-73" d="M 2834 3397 
L 2834 2853 
Q 2591 2978 2328 3040 
Q 2066 3103 1784 3103 
Q 1356 3103 1142 2972 
Q 928 2841 928 2578 
Q 928 2378 1081 2264 
Q 1234 2150 1697 2047 
L 1894 2003 
Q 2506 1872 2764 1633 
Q 3022 1394 3022 966 
Q 3022 478 2636 193 
Q 2250 -91 1575 -91 
Q 1294 -91 989 -36 
Q 684 19 347 128 
L 347 722 
Q 666 556 975 473 
Q 1284 391 1588 391 
Q 1994 391 2212 530 
Q 2431 669 2431 922 
Q 2431 1156 2273 1281 
Q 2116 1406 1581 1522 
L 1381 1569 
Q 847 1681 609 1914 
Q 372 2147 372 2553 
Q 372 3047 722 3315 
Q 1072 3584 1716 3584 
Q 2034 3584 2315 3537 
Q 2597 3491 2834 3397 
z
" transform="scale(0.015625)"/>
       <path id="DejaVuSans-65" d="M 3597 1894 
L 3597 1613 
L 953 1613 
Q 991 1019 1311 708 
Q 1631 397 2203 397 
Q 2534 397 2845 478 
Q 3156 559 3463 722 
L 3463 178 
Q 3153 47 2828 -22 
Q 2503 -91 2169 -91 
Q 1331 -91 842 396 
Q 353 884 353 1716 
Q 353 2575 817 3079 
Q 1281 3584 2069 3584 
Q 2775 3584 3186 3129 
Q 3597 2675 3597 1894 
z
M 3022 2063 
Q 3016 2534 2758 2815 
Q 2500 3097 2075 3097 
Q 1594 3097 1305 2825 
Q 1016 2553 972 2059 
L 3022 2063 
z
" transform="scale(0.015625)"/>
       <path id="DejaVuSans-50" d="M 1259 4147 
L 1259 2394 
L 2053 2394 
Q 2494 2394 2734 2622 
Q 2975 2850 2975 3272 
Q 2975 3691 2734 3919 
Q 2494 4147 2053 4147 
L 1259 4147 
z
M 628 4666 
L 2053 4666 
Q 2838 4666 3239 4311 
Q 3641 3956 3641 3272 
Q 3641 2581 3239 2228 
Q 2838 1875 2053 1875 
L 1259 1875 
L 1259 0 
L 628 0 
L 628 4666 
z
" transform="scale(0.015625)"/>
       <path id="DejaVuSans-6f" d="M 1959 3097 
Q 1497 3097 1228 2736 
Q 959 2375 959 1747 
Q 959 1119 1226 758 
Q 1494 397 1959 397 
Q 2419 397 2687 759 
Q 2956 1122 2956 1747 
Q 2956 2369 2687 2733 
Q 2419 3097 1959 3097 
z
M 1959 3584 
Q 2709 3584 3137 3096 
Q 3566 2609 3566 1747 
Q 3566 888 3137 398 
Q 2709 -91 1959 -91 
Q 1206 -91 779 398 
Q 353 888 353 1747 
Q 353 2609 779 3096 
Q 1206 3584 1959 3584 
z
" transform="scale(0.015625)"/>
       <path id="DejaVuSans-69" d="M 603 3500 
L 1178 3500 
L 1178 0 
L 603 0 
L 603 3500 
z
M 603 4863 
L 1178 4863 
L 1178 4134 
L 603 4134 
L 603 4863 
z
" transform="scale(0.015625)"/>
       <path id="DejaVuSans-74" d="M 1172 4494 
L 1172 3500 
L 2356 3500 
L 2356 3053 
L 1172 3053 
L 1172 1153 
Q 1172 725 1289 603 
Q 1406 481 1766 481 
L 2356 481 
L 2356 0 
L 1766 0 
Q 1100 0 847 248 
Q 594 497 594 1153 
L 594 3053 
L 172 3053 
L 172 3500 
L 594 3500 
L 594 4494 
L 1172 4494 
z
" transform="scale(0.015625)"/>
       <path id="DejaVuSans-76" d="M 191 3500 
L 800 3500 
L 1894 563 
L 2988 3500 
L 3597 3500 
L 2284 0 
L 1503 0 
L 191 3500 
z
" transform="scale(0.015625)"/>
       <path id="DejaVuSans-52" d="M 2841 2188 
Q 3044 2119 3236 1894 
Q 3428 1669 3622 1275 
L 4263 0 
L 3584 0 
L 2988 1197 
Q 2756 1666 2539 1819 
Q 2322 1972 1947 1972 
L 1259 1972 
L 1259 0 
L 628 0 
L 628 4666 
L 2053 4666 
Q 2853 4666 3247 4331 
Q 3641 3997 3641 3322 
Q 3641 2881 3436 2590 
Q 3231 2300 2841 2188 
z
M 1259 4147 
L 1259 2491 
L 2053 2491 
Q 2509 2491 2742 2702 
Q 2975 2913 2975 3322 
Q 2975 3731 2742 3939 
Q 2509 4147 2053 4147 
L 1259 4147 
z
" transform="scale(0.015625)"/>
       <path id="DejaVuSans-29" d="M 513 4856 
L 1013 4856 
Q 1481 4119 1714 3412 
Q 1947 2706 1947 2009 
Q 1947 1309 1714 600 
Q 1481 -109 1013 -844 
L 513 -844 
Q 928 -128 1133 580 
Q 1338 1288 1338 2009 
Q 1338 2731 1133 3434 
Q 928 4138 513 4856 
z
" transform="scale(0.015625)"/>
      </defs>
      <use xlink:href="#DejaVuSans-5047"/>
      <use xlink:href="#DejaVuSans-6b63" transform="translate(60.009766 0)"/>
      <use xlink:href="#DejaVuSans-4f8b" transform="translate(120.019531 0)"/>
      <use xlink:href="#DejaVuSans-7387" transform="translate(180.029297 0)"/>
      <use xlink:href="#DejaVuSans-20" transform="translate(240.039062 0)"/>
      <use xlink:href="#DejaVuSans-28" transform="translate(271.826172 0)"/>
      <use xlink:href="#DejaVuSans-46" transform="translate(310.839844 0)"/>
      <use xlink:href="#DejaVuSans-61" transform="translate(359.234375 0)"/>
      <use xlink:href="#DejaVuSans-6c" transform="translate(420.513672 0)"/>
      <use xlink:href="#DejaVuSans-73" transform="translate(448.296875 0)"/>
      <use xlink:href="#DejaVuSans-65" transform="translate(500.396484 0)"/>
      <use xlink:href="#DejaVuSans-20" transform="translate(561.919922 0)"/>
      <use xlink:href="#DejaVuSans-50" transform="translate(593.707031 0)"/>
      <use xlink:href="#DejaVuSans-6f" transform="translate(650.384766 0)"/>
      <use xlink:href="#DejaVuSans-73" transform="translate(711.566406 0)"/>
      <use xlink:href="#DejaVuSans-69" transform="translate(763.666016 0)"/>
      <use xlink:href="#DejaVuSans-74" transform="translate(791.449219 0)"/>
      <use xlink:href="#DejaVuSans-69" transform="translate(830.658203 0)"/>
      <use xlink:href="#DejaVuSans-76" transform="translate(858.441406 0)"/>
      <use xlink:href="#DejaVuSans-65" transform="translate(917.621094 0)"/>
      <use xlink:href="#DejaVuSans-20" transform="translate(979.144531 0)"/>
      <use xlink:href="#DejaVuSans-52" transform="translate(1010.931641 0)"/>
      <use xlink:href="#DejaVuSans-61" transform="translate(1078.164062 0)"/>
      <use xlink:href="#DejaVuSans-74" transform="translate(1139.443359 0)"/>
      <use xlink:href="#DejaVuSans-65" transform="translate(1178.652344 0)"/>
      <use xlink:href="#DejaVuSans-29" transform="translate(1240.175781 0)"/>
     </g>
    </g>
   </g>
   <g id="matplotlib.axis_2">
    <g id="ytick_1">
     <g id="line2d_13">
      <path d="M 47.72 390.04 
L 557.28 390.04 
" clip-path="url(#p8e5319344c)" style="fill: none; stroke: #b0b0b0; stroke-opacity: 0.25; stroke-width: 0.8; stroke-linecap: square"/>
     </g>
     <g id="line2d_14">
      <defs>
       <path id="mc275d026f8" d="M 0 0 
L -3.5 0 
" style="stroke: #000000; stroke-width: 0.8"/>
      </defs>
      <g>
       <use xlink:href="#mc275d026f8" x="47.72" y="390.04" style="stroke: #000000; stroke-width: 0.8"/>
      </g>
     </g>
     <g id="text_8">
      <!-- 0.0 -->
      <g transform="translate(24.816875 393.839219) scale(0.1 -0.1)">
       <use xlink:href="#DejaVuSans-30"/>
       <use xlink:href="#DejaVuSans-2e" transform="translate(63.623047 0)"/>
       <use xlink:href="#DejaVuSans-30" transform="translate(95.410156 0)"/>
      </g>
     </g>
    </g>
    <g id="ytick_2">
     <g id="line2d_15">
      <path d="M 47.72 320.866667 
L 557.28 320.866667 
" clip-path="url(#p8e5319344c)" style="fill: none; stroke: #b0b0b0; stroke-opacity: 0.25; stroke-width: 0.8; stroke-linecap: square"/>
     </g>
     <g id="line2d_16">
      <g>
       <use xlink:href="#mc275d026f8" x="47.72" y="320.866667" style="stroke: #000000; stroke-width: 0.8"/>
      </g>
     </g>
     <g id="text_9">
      <!-- 0.2 -->
      <g transform="translate(24.816875 324.665885) scale(0.1 -0.1)">
       <use xlink:href="#DejaVuSans-30"/>
       <use xlink:href="#DejaVuSans-2e" transform="translate(63.623047 0)"/>
       <use xlink:href="#DejaVuSans-32" transform="translate(95.410156 0)"/>
      </g>
     </g>
    </g>
    <g id="ytick_3">
     <g id="line2d_17">
      <path d="M 47.72 251.693333 
L 557.28 251.693333 
" clip-path="url(#p8e5319344c)" style="fill: none; stroke: #b0b0b0; stroke-opacity: 0.25; stroke-width: 0.8; stroke-linecap: square"/>
     </g>
     <g id="line2d_18">
      <g>
       <use xlink:href="#mc275d026f8" x="47.72" y="251.693333" style="stroke: #000000; stroke-width: 0.8"/>
      </g>
     </g>
     <g id="text_10">
      <!-- 0.4 -->
      <g transform="translate(24.816875 255.492552) scale(0.1 -0.1)">
       <use xlink:href="#DejaVuSans-30"/>
       <use xlink:href="#DejaVuSans-2e" transform="translate(63.623047 0)"/>
       <use xlink:href="#DejaVuSans-34" transform="translate(95.410156 0)"/>
      </g>
     </g>
    </g>
    <g id="ytick_4">
     <g id="line2d_19">
      <path d="M 47.72 182.52 
L 557.28 182.52 
" clip-path="url(#p8e5319344c)" style="fill: none; stroke: #b0b0b0; stroke-opacity: 0.25; stroke-width: 0.8; stroke-linecap: square"/>
     </g>
     <g id="line2d_20">
      <g>
       <use xlink:href="#mc275d026f8" x="47.72" y="182.52" style="stroke: #000000; stroke-width: 0.8"/>
      </g>
     </g>
     <g id="text_11">
      <!-- 0.6 -->
      <g transform="translate(24.816875 186.319219) scale(0.1 -0.1)">
       <use xlink:href="#DejaVuSans-30"/>
       <use xlink:href="#DejaVuSans-2e" transform="translate(63.623047 0)"/>
       <use xlink:href="#DejaVuSans-36" transform="translate(95.410156 0)"/>
      </g>
     </g>
    </g>
    <g id="ytick_5">
     <g id="line2d_21">
      <path d="M 47.72 113.346667 
L 557.28 113.346667 
" clip-path="url(#p8e5319344c)" style="fill: none; stroke: #b0b0b0; stroke-opacity: 0.25; stroke-width: 0.8; stroke-linecap: square"/>
     </g>
     <g id="line2d_22">
      <g>
       <use xlink:href="#mc275d026f8" x="47.72" y="113.346667" style="stroke: #000000; stroke-width: 0.8"/>
      </g>
     </g>
     <g id="text_12">
      <!-- 0.8 -->
      <g transform="translate(24.816875 117.145885) scale(0.1 -0.1)">
       <use xlink:href="#DejaVuSans-30"/>
       <use xlink:href="#DejaVuSans-2e" transform="translate(63.623047 0)"/>
       <use xlink:href="#DejaVuSans-38" transform="translate(95.410156 0)"/>
      </g>
     </g>
    </g>
    <g id="ytick_6">
     <g id="line2d_23">
      <path d="M 47.72 44.173333 
L 557.28 44.173333 
" clip-path="url(#p8e5319344c)" style="fill: none; stroke: #b0b0b0; stroke-opacity: 0.25; stroke-width: 0.8; stroke-linecap: square"/>
     </g>
     <g id="line2d_24">
      <g>
       <use xlink:href="#mc275d026f8" x="47.72" y="44.173333" style="stroke: #000000; stroke-width: 0.8"/>
      </g>
     </g>
     <g id="text_13">
      <!-- 1.0 -->
      <g transform="translate(24.816875 47.972552) scale(0.1 -0.1)">
       <use xlink:href="#DejaVuSans-31"/>
       <use xlink:href="#DejaVuSans-2e" transform="translate(63.623047 0)"/>
       <use xlink:href="#DejaVuSans-30" transform="translate(95.410156 0)"/>
      </g>
     </g>
    </g>
    <g id="text_14">
     <!-- 真正例率 (True Positive Rate) -->
     <g transform="translate(18.737188 270.483437) rotate(-90) scale(0.1 -0.1)">
      <defs>
       <path id="DejaVuSans-771f" d="M 319 -1131 
L 319 4513 
L 3519 4513 
L 3519 -1131 
L 319 -1131 
z
M 678 -775 
L 3163 -775 
L 3163 4153 
L 678 4153 
L 678 -775 
z
" transform="scale(0.015625)"/>
       <path id="DejaVuSans-54" d="M -19 4666 
L 3928 4666 
L 3928 4134 
L 2272 4134 
L 2272 0 
L 1638 0 
L 1638 4134 
L -19 4134 
L -19 4666 
z
" transform="scale(0.015625)"/>
       <path id="DejaVuSans-72" d="M 2631 2963 
Q 2534 3019 2420 3045 
Q 2306 3072 2169 3072 
Q 1681 3072 1420 2755 
Q 1159 2438 1159 1844 
L 1159 0 
L 581 0 
L 581 3500 
L 1159 3500 
L 1159 2956 
Q 1341 3275 1631 3429 
Q 1922 3584 2338 3584 
Q 2397 3584 2469 3576 
Q 2541 3569 2628 3553 
L 2631 2963 
z
" transform="scale(0.015625)"/>
       <path id="DejaVuSans-75" d="M 544 1381 
L 544 3500 
L 1119 3500 
L 1119 1403 
Q 1119 906 1312 657 
Q 1506 409 1894 409 
Q 2359 409 2629 706 
Q 2900 1003 2900 1516 
L 2900 3500 
L 3475 3500 
L 3475 0 
L 2900 0 
L 2900 538 
Q 2691 219 2414 64 
Q 2138 -91 1772 -91 
Q 1169 -91 856 284 
Q 544 659 544 1381 
z
M 1991 3584 
L 1991 3584 
z
" transform="scale(0.015625)"/>
      </defs>
      <use xlink:href="#DejaVuSans-771f"/>
      <use xlink:href="#DejaVuSans-6b63" transform="translate(60.009766 0)"/>
      <use xlink:href="#DejaVuSans-4f8b" transform="translate(120.019531 0)"/>
      <use xlink:href="#DejaVuSans-7387" transform="translate(180.029297 0)"/>
      <use xlink:href="#DejaVuSans-20" transform="translate(240.039062 0)"/>
      <use xlink:href="#DejaVuSans-28" transform="translate(271.826172 0)"/>
      <use xlink:href="#DejaVuSans-54" transform="translate(310.839844 0)"/>
      <use xlink:href="#DejaVuSans-72" transform="translate(357.173828 0)"/>
      <use xlink:href="#DejaVuSans-75" transform="translate(398.287109 0)"/>
      <use xlink:href="#DejaVuSans-65" transform="translate(461.666016 0)"/>
      <use xlink:href="#DejaVuSans-20" transform="translate(523.189453 0)"/>
      <use xlink:href="#DejaVuSans-50" transform="translate(554.976562 0)"/>
      <use xlink:href="#DejaVuSans-6f" transform="translate(611.654297 0)"/>
      <use xlink:href="#DejaVuSans-73" transform="translate(672.835938 0)"/>
      <use xlink:href="#DejaVuSans-69" transform="translate(724.935547 0)"/>
      <use xlink:href="#DejaVuSans-74" transform="translate(752.71875 0)"/>
      <use xlink:href="#DejaVuSans-69" transform="translate(791.927734 0)"/>
      <use xlink:href="#DejaVuSans-76" transform="translate(819.710938 0)"/>
      <use xlink:href="#DejaVuSans-65" transform="translate(878.890625 0)"/>
      <use xlink:href="#DejaVuSans-20" transform="translate(940.414062 0)"/>
      <use xlink:href="#DejaVuSans-52" transform="translate(972.201172 0)"/>
      <use xlink:href="#DejaVuSans-61" transform="translate(1039.433594 0)"/>
      <use xlink:href="#DejaVuSans-74" transform="translate(1100.712891 0)"/>
      <use xlink:href="#DejaVuSans-65" transform="translate(1139.921875 0)"/>
      <use xlink:href="#DejaVuSans-29" transform="translate(1201.445312 0)"/>
     </g>
    </g>
   </g>
   <g id="line2d_25">
    <path d="M 47.72 390.04 
L 47.72 284.375583 
L 49.108447 284.375583 
L 49.108447 280.689615 
L 50.496894 280.689615 
L 50.496894 278.027527 
L 51.885341 278.027527 
L 51.885341 253.454407 
L 53.273787 253.044855 
L 53.273787 220.075919 
L 54.662234 220.075919 
L 54.662234 185.878326 
L 56.050681 185.878326 
L 56.050681 171.544006 
L 57.439128 171.544006 
L 57.439128 164.786398 
L 58.827575 164.786398 
L 58.827575 150.656854 
L 60.216022 150.452078 
L 60.216022 134.069998 
L 61.604469 134.069998 
L 61.604469 129.155374 
L 62.992916 129.155374 
L 62.992916 123.012094 
L 64.381362 123.012094 
L 64.381362 122.807318 
L 65.769809 122.807318 
L 65.769809 121.16911 
L 67.158256 121.16911 
L 67.158256 118.916574 
L 69.93515 118.916574 
L 69.93515 115.640158 
L 71.323597 115.230606 
L 71.323597 104.377478 
L 72.712044 104.377478 
L 72.712044 101.920166 
L 74.10049 101.920166 
L 74.10049 88.609726 
L 76.877384 88.609726 
L 76.877384 87.585846 
L 78.265831 87.38107 
L 78.265831 79.19003 
L 79.654278 79.19003 
L 79.654278 69.156006 
L 83.819619 69.156006 
L 83.819619 68.746454 
L 85.208065 68.336902 
L 85.208065 67.108246 
L 86.596512 67.108246 
L 86.596512 66.698694 
L 87.984959 66.698694 
L 87.984959 66.493918 
L 89.373406 66.493918 
L 89.373406 65.87959 
L 90.761853 65.87959 
L 90.761853 65.674813 
L 92.1503 65.674813 
L 92.1503 64.446157 
L 93.538747 64.446157 
L 93.538747 63.422277 
L 94.927193 63.422277 
L 94.927193 63.012725 
L 96.31564 63.012725 
L 96.31564 62.603173 
L 97.704087 62.603173 
L 97.704087 62.398397 
L 99.092534 62.398397 
L 99.092534 61.784069 
L 100.480981 61.784069 
L 100.480981 60.760189 
L 101.869428 60.760189 
L 101.869428 60.555413 
L 103.257875 60.555413 
L 103.257875 59.941085 
L 106.034768 59.941085 
L 106.034768 59.121981 
L 108.811662 59.121981 
L 108.811662 58.712429 
L 117.142343 58.712429 
L 117.142343 58.302877 
L 118.53079 58.302877 
L 118.53079 57.688549 
L 122.696131 57.688549 
L 122.696131 57.278997 
L 124.084578 57.278997 
L 124.084578 56.869445 
L 125.473025 56.869445 
L 125.473025 56.459893 
L 129.638365 56.459893 
L 129.638365 56.050341 
L 137.969046 56.050341 
L 137.969046 55.845565 
L 140.74594 55.845565 
L 140.74594 55.436013 
L 142.134387 55.436013 
L 142.134387 54.821685 
L 143.522834 54.821685 
L 143.522834 54.412133 
L 149.076621 54.412133 
L 149.076621 54.207357 
L 150.465068 54.207357 
L 150.465068 54.002581 
L 153.241962 54.002581 
L 153.241962 52.978701 
L 157.407302 52.978701 
L 157.407302 52.364373 
L 162.96109 52.364373 
L 162.96109 52.159597 
L 167.126431 52.159597 
L 167.126431 51.954821 
L 171.291771 51.954821 
L 171.291771 51.750045 
L 176.845559 51.750045 
L 176.845559 51.545269 
L 178.234005 51.545269 
L 178.234005 50.521389 
L 200.449155 50.521389 
L 200.449155 50.316613 
L 203.226049 50.316613 
L 203.226049 50.111837 
L 208.779837 50.111837 
L 208.779837 49.702285 
L 210.168283 49.702285 
L 210.168283 49.497509 
L 212.945177 49.497509 
L 212.945177 49.087957 
L 221.275858 49.087957 
L 221.275858 48.883181 
L 235.160327 48.883181 
L 235.160327 48.678405 
L 249.044796 48.678405 
L 249.044796 48.473629 
L 278.20218 48.473629 
L 278.20218 48.268853 
L 282.36752 48.268853 
L 282.36752 48.064077 
L 296.251989 48.064077 
L 304.58267 47.859301 
L 308.748011 47.859301 
L 308.748011 47.654525 
L 319.855586 47.654525 
L 319.855586 47.449749 
L 333.740054 47.449749 
L 335.128501 47.244973 
L 361.508992 47.244973 
L 361.508992 47.040197 
L 382.335695 47.040197 
L 382.335695 46.835421 
L 385.112589 46.835421 
L 385.112589 46.630645 
L 393.44327 46.630645 
L 393.44327 46.425869 
L 396.220163 46.425869 
L 396.220163 46.221093 
L 469.807847 46.221093 
L 469.807847 45.811541 
L 471.196294 45.811541 
L 472.584741 45.606765 
L 472.584741 45.401989 
L 479.526975 45.401989 
L 479.526975 45.197213 
L 480.915422 45.197213 
L 480.915422 44.992437 
L 490.63455 44.992437 
L 492.022997 44.787661 
L 492.022997 44.582885 
L 500.353678 44.582885 
L 501.742125 44.378109 
L 521.180381 44.378109 
L 521.180381 44.173333 
L 557.28 44.173333 
L 557.28 44.173333 
" clip-path="url(#p8e5319344c)" style="fill: none; stroke: #6c757d; stroke-width: 2; stroke-linecap: square"/>
   </g>
   <g id="line2d_26">
    <path d="M 47.72 390.04 
L 47.72 374.318788 
L 47.997538 374.318788 
L 47.997538 352.309091 
L 48.275076 349.164848 
L 48.552614 349.164848 
L 48.552614 346.020606 
L 48.830153 346.020606 
L 48.830153 344.448485 
L 49.107691 344.448485 
L 49.107691 342.876364 
L 49.940305 342.876364 
L 49.940305 339.732121 
L 50.217843 339.732121 
L 50.217843 338.16 
L 50.495381 338.16 
L 50.495381 335.015758 
L 51.050458 335.015758 
L 51.050458 328.727273 
L 51.327996 325.58303 
L 51.327996 322.438788 
L 51.883072 322.438788 
L 51.883072 319.294545 
L 52.16061 317.722424 
L 52.438148 317.722424 
L 52.438148 313.006061 
L 52.715686 313.006061 
L 52.715686 311.433939 
L 52.993224 311.433939 
L 52.993224 298.85697 
L 53.270763 298.85697 
L 53.270763 292.568485 
L 53.825839 289.424242 
L 53.825839 275.275152 
L 54.380915 275.275152 
L 54.380915 273.70303 
L 54.658453 273.70303 
L 54.658453 257.981818 
L 54.935991 257.981818 
L 54.935991 248.549091 
L 55.213529 248.549091 
L 55.213529 245.404848 
L 55.768606 245.404848 
L 55.768606 237.544242 
L 56.046144 237.544242 
L 56.046144 228.111515 
L 56.323682 221.82303 
L 56.60122 221.82303 
L 56.60122 220.250909 
L 56.878758 220.250909 
L 56.878758 206.101818 
L 57.156296 206.101818 
L 57.156296 204.529697 
L 57.433834 204.529697 
L 57.433834 202.957576 
L 57.711373 202.957576 
L 57.711373 196.669091 
L 58.543987 196.669091 
L 58.543987 193.524848 
L 59.376601 193.524848 
L 59.376601 191.952727 
L 59.931678 191.952727 
L 59.931678 190.380606 
L 60.209216 190.380606 
L 60.209216 188.808485 
L 60.486754 188.808485 
L 60.486754 184.092121 
L 61.04183 184.092121 
L 61.04183 182.52 
L 61.596906 182.52 
L 61.596906 180.947879 
L 61.874444 180.947879 
L 61.874444 174.659394 
L 62.151983 174.659394 
L 62.151983 169.94303 
L 62.429521 169.94303 
L 62.429521 168.370909 
L 62.984597 168.370909 
L 62.984597 166.798788 
L 64.372288 166.798788 
L 64.372288 165.226667 
L 64.927364 165.226667 
L 64.927364 163.654545 
L 65.204902 163.654545 
L 65.204902 155.793939 
L 65.48244 155.793939 
L 65.48244 154.221818 
L 66.592593 154.221818 
L 66.592593 152.649697 
L 67.425207 152.649697 
L 67.425207 149.505455 
L 68.257821 149.505455 
L 68.257821 146.361212 
L 69.367974 146.361212 
L 69.367974 141.644848 
L 69.645512 141.644848 
L 69.645512 140.072727 
L 69.92305 140.072727 
L 69.92305 138.500606 
L 70.478126 138.500606 
L 70.478126 135.356364 
L 70.755664 135.356364 
L 70.755664 133.784242 
L 71.588279 133.784242 
L 71.588279 132.212121 
L 72.143355 132.212121 
L 72.143355 130.64 
L 73.531046 130.64 
L 73.531046 129.067879 
L 74.086122 129.067879 
L 74.086122 125.923636 
L 75.751351 125.923636 
L 75.751351 124.351515 
L 77.694118 124.351515 
L 77.694118 122.779394 
L 78.249194 122.779394 
L 78.249194 119.635152 
L 80.747037 119.635152 
L 80.747037 118.06303 
L 81.024575 118.06303 
L 81.024575 116.490909 
L 82.134728 116.490909 
L 82.134728 114.918788 
L 82.412266 114.918788 
L 82.412266 113.346667 
L 84.910109 113.346667 
L 84.910109 111.774545 
L 86.2978 111.774545 
L 86.2978 110.202424 
L 87.963028 110.202424 
L 87.963028 108.630303 
L 90.183333 108.630303 
L 90.183333 107.058182 
L 92.1261 107.058182 
L 92.1261 105.486061 
L 94.901481 105.486061 
L 94.901481 102.341818 
L 95.734096 102.341818 
L 95.734096 100.769697 
L 97.954401 100.769697 
L 97.954401 99.197576 
L 98.231939 99.197576 
L 98.231939 97.625455 
L 104.892854 97.625455 
L 104.892854 96.053333 
L 106.558083 96.053333 
L 106.558083 94.481212 
L 107.390697 94.481212 
L 107.390697 92.909091 
L 107.668235 92.909091 
L 107.668235 91.33697 
L 107.945773 91.33697 
L 107.945773 89.764848 
L 108.778388 89.764848 
L 109.333464 88.192727 
L 110.166078 88.192727 
L 110.166078 86.620606 
L 112.108845 86.620606 
L 112.108845 85.048485 
L 113.496536 85.048485 
L 113.496536 83.476364 
L 115.161765 83.476364 
L 115.161765 81.904242 
L 124.042985 81.904242 
L 124.042985 80.332121 
L 127.095904 80.332121 
L 127.373442 78.76 
L 127.373442 77.187879 
L 127.928519 77.187879 
L 127.928519 75.615758 
L 129.038671 75.615758 
L 129.038671 74.043636 
L 129.316209 74.043636 
L 129.316209 72.471515 
L 135.422048 72.471515 
L 135.422048 70.899394 
L 144.580806 70.899394 
L 144.580806 69.327273 
L 150.686645 69.327273 
L 150.964183 67.755152 
L 152.074336 67.755152 
L 152.074336 66.18303 
L 152.351874 66.18303 
L 152.351874 64.610909 
L 155.959869 64.610909 
L 155.959869 63.038788 
L 156.237407 63.038788 
L 156.237407 61.466667 
L 162.620784 61.466667 
L 163.175861 59.894545 
L 167.061394 59.894545 
L 167.061394 58.322424 
L 191.207211 58.322424 
L 191.207211 56.750303 
L 193.705054 56.750303 
L 193.705054 55.178182 
L 198.423203 55.178182 
L 198.423203 53.606061 
L 256.706209 53.606061 
L 256.706209 52.033939 
L 293.341242 52.033939 
L 293.341242 50.461818 
L 300.557233 50.461818 
L 300.557233 48.889697 
L 336.914728 48.889697 
L 337.469804 47.317576 
L 402.136187 47.317576 
L 402.136187 45.745455 
L 409.352179 45.745455 
L 409.352179 44.173333 
L 557.28 44.173333 
L 557.28 44.173333 
" clip-path="url(#p8e5319344c)" style="fill: none; stroke: #f4a261; stroke-width: 2; stroke-linecap: square"/>
   </g>
   <g id="line2d_27">
    <path d="M 47.72 390.04 
L 47.72 382.981497 
L 47.986925 382.981497 
L 47.986925 359.453152 
L 48.25385 359.453152 
L 48.25385 338.277642 
L 48.520775 338.277642 
L 48.520775 333.571973 
L 48.7877 331.219138 
L 48.7877 298.279456 
L 49.054625 298.279456 
L 49.054625 284.162449 
L 49.321551 284.162449 
L 49.321551 281.809615 
L 49.588476 281.809615 
L 49.588476 272.398277 
L 49.855401 272.398277 
L 49.855401 241.811429 
L 50.122326 241.811429 
L 50.122326 227.694422 
L 50.389251 227.694422 
L 50.389251 201.813243 
L 50.656176 201.813243 
L 50.656176 190.04907 
L 51.190026 190.04907 
L 51.190026 154.756553 
L 51.456951 154.756553 
L 51.456951 152.403719 
L 51.723876 152.403719 
L 51.723876 128.875374 
L 52.257727 128.875374 
L 52.257727 121.816871 
L 52.524652 121.816871 
L 52.524652 119.464036 
L 53.325427 119.464036 
L 53.325427 114.758367 
L 53.859277 114.758367 
L 53.859277 112.405533 
L 55.994678 112.405533 
L 55.994678 110.052698 
L 56.261603 110.052698 
L 56.261603 107.699864 
L 57.329303 107.699864 
L 58.397004 105.347029 
L 59.197779 105.347029 
L 59.197779 102.994195 
L 59.731629 102.994195 
L 59.731629 100.641361 
L 61.600105 100.641361 
L 61.600105 95.935692 
L 61.86703 95.935692 
L 61.86703 93.582857 
L 64.803206 93.582857 
L 64.803206 91.230023 
L 68.006307 91.230023 
L 68.006307 88.877188 
L 73.344809 88.877188 
L 73.344809 86.524354 
L 80.551786 86.524354 
L 80.551786 84.171519 
L 81.619487 84.171519 
L 81.619487 81.818685 
L 83.754887 81.818685 
L 83.754887 79.46585 
L 86.157213 79.46585 
L 86.157213 77.113016 
L 87.224914 77.113016 
L 87.758764 74.760181 
L 92.83034 74.760181 
L 92.83034 72.407347 
L 96.033442 72.407347 
L 96.033442 67.701678 
L 97.368067 67.701678 
L 97.368067 65.348844 
L 100.037318 65.348844 
L 100.037318 62.996009 
L 102.439644 62.996009 
L 102.439644 60.643175 
L 109.646621 60.643175 
L 109.646621 58.29034 
L 114.718198 58.29034 
L 114.718198 55.937506 
L 135.538355 55.937506 
L 135.538355 53.584671 
L 142.745333 53.584671 
L 142.745333 51.231837 
L 164.366265 51.231837 
L 164.366265 48.879002 
L 272.204002 48.879002 
L 272.204002 46.526168 
L 439.566035 46.526168 
L 439.566035 44.173333 
L 557.28 44.173333 
L 557.28 44.173333 
" clip-path="url(#p8e5319344c)" style="fill: none; stroke: #d62828; stroke-width: 2; stroke-linecap: square"/>
   </g>
   <g id="line2d_28">
    <path d="M 47.72 347.225289 
L 47.986925 339.382508 
L 47.997538 332.045942 
L 48.275076 323.939358 
L 48.520775 322.370801 
L 49.108447 302.576143 
L 49.321551 301.791864 
L 49.588476 298.654752 
L 49.940305 287.411055 
L 50.656176 267.697452 
L 51.050458 265.60129 
L 51.190026 253.310058 
L 51.456951 250.956678 
L 51.723876 243.113896 
L 51.883072 242.065816 
L 51.885341 233.870492 
L 52.16061 233.32367 
L 52.257727 230.961286 
L 52.524652 228.578642 
L 52.715686 228.035818 
L 52.993224 223.816206 
L 53.270763 221.692756 
L 53.325427 209.031041 
L 53.859277 202.585534 
L 54.380915 202.061494 
L 54.658453 196.82109 
L 54.662234 185.421892 
L 54.935991 182.27765 
L 55.213529 181.229569 
L 55.460828 181.229569 
L 55.768606 178.609367 
L 55.994678 177.825089 
L 56.261603 167.491164 
L 56.323682 167.0223 
L 56.60122 166.49826 
L 56.878758 161.781896 
L 57.156296 161.257856 
L 57.329303 161.257856 
L 57.433834 160.657032 
L 57.439128 158.400608 
L 57.711373 156.104469 
L 58.397004 155.60084 
L 58.543987 154.552759 
L 58.827575 149.842911 
L 59.731629 147.705869 
L 60.209216 146.634309 
L 60.216022 141.173281 
L 60.486754 139.60116 
L 61.596906 138.553079 
L 61.604469 135.346315 
L 61.86703 134.562037 
L 61.874444 132.465875 
L 62.151983 130.893754 
L 62.429521 130.369713 
L 62.984597 129.845673 
L 62.992916 127.797913 
L 64.094749 127.797913 
L 64.803206 126.421336 
L 64.927364 125.897295 
L 65.204902 123.277093 
L 65.870906 122.206984 
L 66.671682 121.682943 
L 67.205532 120.932098 
L 67.425207 119.884017 
L 68.006307 119.099739 
L 68.257821 118.051658 
L 69.645512 115.955496 
L 69.874783 115.955496 
L 69.93515 114.339317 
L 70.408633 114.292763 
L 70.478126 113.237849 
L 70.755664 112.68652 
L 71.323597 109.012969 
L 71.588279 108.488929 
L 72.143355 107.964889 
L 73.531046 105.837466 
L 74.086122 104.789385 
L 74.10049 100.352572 
L 75.747135 100.352572 
L 75.751351 99.828532 
L 76.814835 99.828532 
L 76.877384 99.487238 
L 77.348685 99.464068 
L 78.249194 97.847676 
L 78.265831 95.116512 
L 78.950236 95.116512 
L 79.654278 91.771837 
L 80.191961 91.771837 
L 81.024575 89.939478 
L 82.412266 88.107119 
L 82.967342 88.107119 
L 83.819619 87.186324 
L 84.355033 87.13368 
L 86.157213 85.331936 
L 86.2978 84.807895 
L 86.596512 84.671378 
L 87.224914 84.671378 
L 87.758764 83.8871 
L 87.984959 83.294801 
L 89.894164 83.090025 
L 90.183333 82.565984 
L 91.848562 82.497726 
L 92.1261 81.973685 
L 92.1503 81.564133 
L 92.83034 80.779855 
L 93.364191 80.779855 
L 93.538747 80.438562 
L 93.898041 80.438562 
L 94.965741 79.253964 
L 95.734096 78.729923 
L 96.033442 77.161367 
L 96.289172 77.161367 
L 96.31564 77.024849 
L 97.121786 77.024849 
L 97.368067 76.240571 
L 97.704087 76.172313 
L 98.231939 75.124232 
L 98.787015 75.124232 
L 99.092534 74.919456 
L 99.61963 74.919456 
L 100.037318 74.135178 
L 100.174706 74.135178 
L 100.480981 73.793884 
L 101.869428 73.725626 
L 102.439644 72.941348 
L 103.227625 72.941348 
L 103.257875 72.736572 
L 104.337778 72.736572 
L 104.892854 72.212531 
L 106.176595 71.939496 
L 106.558083 71.415456 
L 106.710445 71.415456 
L 107.511221 70.891416 
L 107.668235 70.367375 
L 108.045071 69.843335 
L 108.778388 69.843335 
L 108.811662 69.675404 
L 109.333464 69.182777 
L 109.646621 68.398499 
L 109.88854 68.398499 
L 110.166078 67.874459 
L 112.048947 67.874459 
L 112.108845 67.350418 
L 112.582797 67.350418 
L 113.496536 66.826378 
L 114.051612 66.826378 
L 114.718198 66.0421 
L 114.985123 66.0421 
L 115.161765 65.518059 
L 117.104532 65.518059 
L 117.142343 65.381542 
L 117.937146 65.381542 
L 118.53079 65.176766 
L 122.459026 65.176766 
L 122.696131 65.040249 
L 122.932832 65.040249 
L 124.327501 64.379691 
L 125.395202 64.379691 
L 125.473025 64.243173 
L 127.095904 64.243173 
L 127.373442 63.195093 
L 127.928519 62.671052 
L 128.598303 62.671052 
L 129.038671 62.147012 
L 129.399078 61.622971 
L 129.593747 61.622971 
L 129.638365 61.486454 
L 132.869104 61.486454 
L 135.422048 60.962414 
L 135.538355 60.178136 
L 140.343007 60.109877 
L 140.74594 59.97336 
L 141.677632 59.97336 
L 142.360501 59.768584 
L 142.478408 59.768584 
L 142.745333 58.984305 
L 143.470654 58.984305 
L 143.522834 58.847788 
L 144.079958 58.847788 
L 144.580806 58.323748 
L 149.685385 58.255489 
L 150.686645 58.18723 
L 150.964183 57.66319 
L 152.074336 57.139149 
L 152.351874 56.615109 
L 153.241962 56.273816 
L 155.557737 56.273816 
L 156.237407 55.225735 
L 156.625437 55.225735 
L 157.407302 55.020959 
L 162.620784 55.020959 
L 163.175861 54.42866 
L 164.366265 53.644382 
L 167.035516 53.644382 
L 167.126431 53.052083 
L 176.775229 52.983824 
L 176.845559 52.915565 
L 177.607843 52.915565 
L 178.234005 52.574272 
L 190.929673 52.574272 
L 191.207211 52.050232 
L 192.118474 52.050232 
L 193.728025 51.526191 
L 197.672262 51.526191 
L 198.423203 51.002151 
L 203.141351 50.933892 
L 203.337328 50.865633 
L 208.414575 50.865633 
L 208.779837 50.729116 
L 215.082032 50.52434 
L 234.834489 50.456081 
L 235.160327 50.387823 
L 256.455422 50.319564 
L 256.706209 49.795524 
L 271.937077 49.795524 
L 272.204002 49.011246 
L 282.239717 48.942987 
L 282.517255 48.874728 
L 292.757234 48.874728 
L 293.341242 48.350688 
L 300.279695 48.301185 
L 300.557233 47.773734 
L 316.376906 47.69013 
L 334.130623 47.60267 
L 336.914728 47.553613 
L 337.469804 47.029572 
L 381.875904 46.961314 
L 382.71099 46.893055 
L 393.254967 46.824796 
L 393.44327 46.756538 
L 401.929597 46.688279 
L 402.136187 46.164239 
L 408.602724 46.164239 
L 409.403499 45.640198 
L 439.032184 45.640198 
L 439.566035 44.85592 
L 468.745338 44.85592 
L 470.133028 44.719403 
L 472.397821 44.660333 
L 472.584741 44.582885 
L 480.138649 44.514627 
L 481.78963 44.446368 
L 491.082577 44.424342 
L 492.417203 44.309851 
L 520.922505 44.241592 
L 521.477582 44.173333 
L 557.28 44.173333 
L 557.28 44.173333 
" clip-path="url(#p8e5319344c)" style="fill: none; stroke-dasharray: 9.25,4; stroke-dashoffset: 0; stroke: #1d3557; stroke-width: 2.5"/>
   </g>
   <g id="line2d_29">
    <path d="M 47.72 390.04 
L 47.72 303.236887 
L 47.84392 303.236887 
L 47.84392 300.208872 
L 47.96784 300.208872 
L 47.96784 298.021971 
L 48.091761 298.021971 
L 48.091761 277.835201 
L 48.215681 277.498755 
L 48.215681 250.414838 
L 48.339601 250.414838 
L 48.339601 222.321582 
L 48.463521 222.321582 
L 48.463521 210.545966 
L 48.587442 210.545966 
L 48.587442 204.826381 
L 48.711362 204.826381 
L 48.711362 192.882542 
L 48.959202 192.546096 
L 48.959202 178.247134 
L 49.083123 178.247134 
L 49.083123 177.574241 
L 49.207043 177.574241 
L 49.207043 173.368664 
L 49.330963 173.368664 
L 49.330963 167.14441 
L 49.454883 167.14441 
L 49.454883 166.976187 
L 49.578804 166.976187 
L 49.578804 166.807964 
L 49.702724 166.807964 
L 49.702724 165.293956 
L 49.826644 165.293956 
L 49.826644 163.275279 
L 50.074484 163.275279 
L 50.074484 163.107056 
L 50.198405 162.938833 
L 50.198405 159.910817 
L 50.322325 159.574371 
L 50.322325 149.14454 
L 50.446245 149.14454 
L 50.446245 146.789416 
L 50.570165 146.789416 
L 50.570165 135.350246 
L 50.694086 135.350246 
L 50.694086 134.509131 
L 50.941926 134.509131 
L 50.941926 133.668016 
L 51.065846 133.499792 
L 51.065846 131.312892 
L 51.189767 131.312892 
L 51.189767 130.64 
L 51.313687 130.64 
L 51.313687 126.770869 
L 51.437607 126.770869 
L 51.437607 126.2662 
L 51.561527 126.2662 
L 51.561527 124.0793 
L 51.685447 124.0793 
L 51.685447 113.985914 
L 51.933288 113.985914 
L 51.933288 113.817691 
L 52.057208 113.817691 
L 52.057208 112.471907 
L 52.181128 112.13546 
L 52.181128 110.285006 
L 52.428969 110.285006 
L 52.428969 108.939222 
L 52.676809 108.939222 
L 52.676809 108.434553 
L 52.80073 108.434553 
L 52.80073 107.76166 
L 53.04857 107.256991 
L 53.04857 106.752322 
L 53.296411 106.752322 
L 53.296411 104.565422 
L 53.544251 104.565422 
L 53.544251 104.060752 
L 53.668171 104.060752 
L 53.668171 103.556083 
L 53.792091 103.556083 
L 53.792091 102.883191 
L 53.916012 102.883191 
L 53.916012 102.546744 
L 54.287772 102.546744 
L 54.287772 102.378521 
L 54.411693 102.378521 
L 54.411693 101.537406 
L 54.659533 101.537406 
L 54.659533 101.032737 
L 54.783453 101.032737 
L 54.783453 100.528067 
L 54.907374 100.528067 
L 54.907374 100.359844 
L 55.031294 100.359844 
L 55.031294 100.191621 
L 55.155214 100.191621 
L 55.155214 99.182283 
L 55.403054 98.50939 
L 55.650895 98.50939 
L 55.650895 98.004721 
L 55.898735 97.668275 
L 55.898735 96.154267 
L 56.022656 96.154267 
L 56.022656 95.817821 
L 56.146576 95.817821 
L 56.146576 95.481375 
L 56.270496 95.481375 
L 56.270496 95.313152 
L 56.394416 95.313152 
L 56.394416 95.144929 
L 56.518337 95.144929 
L 56.518337 94.640259 
L 56.642257 94.640259 
L 56.642257 92.453359 
L 56.766177 92.453359 
L 56.766177 90.771128 
L 57.014018 90.434682 
L 57.014018 89.257121 
L 57.137938 89.257121 
L 57.137938 88.752451 
L 57.385778 88.752451 
L 57.385778 88.416005 
L 57.509698 88.416005 
L 57.509698 86.901997 
L 57.633619 86.901997 
L 57.633619 86.565551 
L 57.757539 86.565551 
L 57.757539 86.229105 
L 57.881459 86.229105 
L 57.881459 85.556213 
L 58.005379 85.556213 
L 58.005379 85.219767 
L 58.25322 85.219767 
L 58.25322 84.042205 
L 58.37714 84.042205 
L 58.37714 82.864643 
L 58.50106 82.191751 
L 58.624981 82.191751 
L 58.624981 82.023528 
L 58.748901 82.023528 
L 58.748901 80.50952 
L 58.872821 80.50952 
L 58.872821 80.341297 
L 59.120661 80.341297 
L 59.120661 80.004851 
L 59.244582 80.004851 
L 59.244582 79.668405 
L 59.616342 79.668405 
L 59.616342 78.995512 
L 59.740263 78.995512 
L 59.740263 78.827289 
L 59.864183 78.827289 
L 59.864183 78.659066 
L 60.112023 78.659066 
L 60.112023 78.32262 
L 60.235944 78.32262 
L 60.235944 78.154397 
L 60.607704 78.154397 
L 60.607704 77.986174 
L 61.351226 77.986174 
L 61.351226 77.649728 
L 61.599066 77.649728 
L 61.599066 77.313281 
L 61.722986 77.313281 
L 61.722986 77.145058 
L 62.094747 77.145058 
L 62.094747 76.472166 
L 62.590428 76.472166 
L 62.590428 76.303943 
L 62.714348 76.303943 
L 62.714348 75.967497 
L 62.962189 75.967497 
L 62.962189 75.799274 
L 63.086109 75.799274 
L 63.086109 75.294604 
L 63.210029 75.294604 
L 63.210029 75.126381 
L 63.45787 75.126381 
L 63.45787 74.958158 
L 63.58179 74.958158 
L 63.58179 74.789935 
L 63.70571 74.789935 
L 63.70571 74.453489 
L 63.82963 74.453489 
L 63.82963 74.285266 
L 64.077471 74.285266 
L 64.077471 74.117043 
L 64.449232 74.117043 
L 64.449232 73.94882 
L 65.068833 73.94882 
L 65.068833 73.780597 
L 65.316673 73.780597 
L 65.812354 73.612374 
L 65.812354 73.44415 
L 65.936274 73.44415 
L 65.936274 73.275927 
L 66.060195 73.275927 
L 66.060195 72.939481 
L 66.184115 72.939481 
L 66.184115 72.603035 
L 66.308035 72.603035 
L 66.308035 72.434812 
L 66.555875 72.434812 
L 66.555875 72.266589 
L 67.175477 72.266589 
L 67.175477 71.930143 
L 67.918998 71.930143 
L 67.918998 71.593696 
L 68.290759 71.593696 
L 68.290759 71.25725 
L 68.78644 71.25725 
L 68.78644 71.089027 
L 69.653881 71.089027 
L 69.653881 70.920804 
L 69.777802 70.920804 
L 69.777802 70.584358 
L 70.149562 70.584358 
L 70.149562 69.911466 
L 70.397403 69.911466 
L 70.397403 69.575019 
L 70.521323 69.575019 
L 70.521323 69.406796 
L 70.769163 69.406796 
L 70.769163 69.238573 
L 71.140924 69.238573 
L 71.140924 68.733904 
L 71.264844 68.733904 
L 71.264844 68.565681 
L 72.008366 68.565681 
L 72.008366 68.397458 
L 72.504047 68.397458 
L 72.504047 68.229235 
L 72.627967 68.229235 
L 72.627967 68.061012 
L 73.495409 68.061012 
L 73.495409 67.892789 
L 73.743249 67.892789 
L 73.743249 67.556342 
L 73.991089 67.556342 
L 73.991089 67.219896 
L 74.11501 67.219896 
L 74.11501 66.88345 
L 74.734611 66.88345 
L 74.734611 66.715227 
L 74.982451 66.715227 
L 74.982451 66.547004 
L 75.106372 66.547004 
L 75.106372 66.378781 
L 75.725973 66.378781 
L 75.725973 66.210558 
L 76.469494 66.210558 
L 76.469494 66.042335 
L 77.584776 66.042335 
L 77.584776 65.874112 
L 77.708696 65.874112 
L 77.708696 65.705888 
L 78.452218 65.705888 
L 78.452218 65.369442 
L 78.823979 65.369442 
L 78.823979 65.201219 
L 79.071819 65.201219 
L 79.071819 65.032996 
L 79.5675 65.032996 
L 79.5675 64.864773 
L 81.302383 64.864773 
L 81.302383 64.69655 
L 81.550224 64.69655 
L 81.550224 64.528327 
L 83.285107 64.528327 
L 83.285107 64.360104 
L 84.276469 64.360104 
L 84.276469 64.191881 
L 85.143911 64.191881 
L 85.143911 63.855435 
L 85.639591 63.855435 
L 85.639591 63.687211 
L 87.498395 63.687211 
L 87.498395 63.350765 
L 87.622315 63.350765 
L 87.622315 63.182542 
L 88.365837 63.182542 
L 88.365837 63.014319 
L 88.613677 63.014319 
L 88.613677 62.846096 
L 89.481119 62.846096 
L 89.481119 62.50965 
L 92.207364 62.50965 
L 92.207364 62.341427 
L 92.579125 62.341427 
L 92.579125 61.668534 
L 93.446566 61.668534 
L 93.446566 61.500311 
L 93.694407 61.500311 
L 93.694407 61.332088 
L 95.181449 61.332088 
L 95.181449 61.163865 
L 96.048891 61.163865 
L 96.048891 60.659196 
L 96.668492 60.659196 
L 96.668492 60.490973 
L 97.783774 60.490973 
L 97.783774 60.32275 
L 98.031615 60.32275 
L 98.031615 60.154527 
L 98.403375 60.154527 
L 98.403375 59.649857 
L 98.651216 59.649857 
L 98.651216 59.481634 
L 101.129621 59.481634 
L 101.129621 59.313411 
L 101.625302 59.313411 
L 101.873142 59.145188 
L 102.740584 59.145188 
L 102.740584 58.976965 
L 102.864504 58.976965 
L 102.864504 58.808742 
L 103.236265 58.808742 
L 103.236265 58.640519 
L 103.360185 58.640519 
L 103.360185 58.472296 
L 103.484105 58.472296 
L 103.484105 58.304073 
L 103.855866 58.304073 
L 104.103706 58.13585 
L 104.475467 58.13585 
L 104.475467 57.967626 
L 104.723307 57.967626 
L 104.723307 57.799403 
L 104.847228 57.799403 
L 104.847228 57.63118 
L 106.582111 57.63118 
L 106.582111 57.462957 
L 107.449553 57.462957 
L 107.449553 57.294734 
L 108.069154 57.294734 
L 108.069154 57.126511 
L 108.316994 57.126511 
L 108.316994 56.958288 
L 112.654202 56.958288 
L 112.654202 56.790065 
L 113.397724 56.790065 
L 113.397724 56.621842 
L 114.017325 56.621842 
L 114.017325 56.453619 
L 116.123969 56.453619 
L 116.49573 55.948949 
L 117.115331 55.948949 
L 117.115331 55.780726 
L 117.487091 55.780726 
L 117.487091 55.612503 
L 117.982772 55.612503 
L 117.982772 55.44428 
L 118.230613 55.44428 
L 118.230613 55.276057 
L 120.709018 55.276057 
L 120.709018 55.107834 
L 120.956858 55.107834 
L 120.956858 54.771388 
L 125.665827 54.771388 
L 125.665827 54.603165 
L 128.887753 54.603165 
L 128.887753 54.434942 
L 129.383434 54.434942 
L 129.507354 54.266719 
L 130.003035 54.266719 
L 130.003035 54.098495 
L 130.374796 54.098495 
L 130.374796 53.930272 
L 132.357519 53.930272 
L 132.357519 53.762049 
L 132.72928 53.762049 
L 132.72928 53.593826 
L 132.977121 53.593826 
L 132.977121 53.425603 
L 136.075126 53.425603 
L 136.322967 53.25738 
L 138.18177 53.25738 
L 138.18177 53.089157 
L 138.429611 53.089157 
L 138.429611 52.920934 
L 150.078113 52.920934 
L 150.078113 52.752711 
L 151.193395 52.752711 
L 151.193395 52.584488 
L 153.6718 52.584488 
L 153.6718 52.416265 
L 155.654523 52.416265 
L 155.654523 52.248042 
L 158.752529 52.248042 
L 158.752529 52.079818 
L 163.957179 52.079818 
L 163.957179 51.911595 
L 165.939903 51.911595 
L 165.939903 51.743372 
L 168.913988 51.743372 
L 168.913988 51.575149 
L 179.199368 51.575149 
L 179.199368 51.406926 
L 179.323288 51.406926 
L 179.323288 51.238703 
L 180.686411 51.238703 
L 180.686411 51.07048 
L 183.164815 51.07048 
L 183.164815 50.902257 
L 183.536576 50.902257 
L 183.536576 50.734034 
L 184.775778 50.734034 
L 184.775778 50.565811 
L 185.64322 50.565811 
L 185.64322 50.397588 
L 187.378103 50.397588 
L 187.378103 50.229364 
L 187.625944 50.229364 
L 187.625944 50.061141 
L 191.715311 50.061141 
L 191.715311 49.892918 
L 197.539562 49.892918 
L 197.539562 49.724695 
L 203.735574 49.724695 
L 203.735574 49.556472 
L 206.9575 49.556472 
L 206.9575 49.388249 
L 210.427267 49.388249 
L 210.427267 49.220026 
L 212.533911 49.220026 
L 212.533911 49.051803 
L 231.989387 49.051803 
L 232.361148 48.715357 
L 237.441877 48.715357 
L 237.441877 48.547134 
L 243.513969 48.547134 
L 244.00965 48.378911 
L 246.735895 48.378911 
L 246.735895 48.210687 
L 259.251839 48.210687 
L 259.251839 48.042464 
L 268.545856 48.042464 
L 268.545856 47.874241 
L 273.130905 47.874241 
L 273.130905 47.706018 
L 278.211634 47.706018 
L 278.211634 47.537795 
L 282.301002 47.537795 
L 282.424922 47.369572 
L 285.275088 47.369572 
L 285.275088 47.201349 
L 300.517276 47.201349 
L 300.517276 47.033126 
L 306.341527 47.033126 
L 306.341527 46.864903 
L 327.407967 46.864903 
L 327.407967 46.69668 
L 334.22358 46.69668 
L 334.22358 46.528457 
L 338.808628 46.528457 
L 338.808628 46.360233 
L 342.278395 46.360233 
L 342.278395 46.19201 
L 389.987685 46.19201 
L 389.987685 46.023787 
L 390.111605 46.023787 
L 390.111605 45.855564 
L 391.474728 45.855564 
L 391.846488 45.519118 
L 405.601634 45.519118 
L 405.601634 45.350895 
L 410.806284 45.350895 
L 410.806284 45.182672 
L 411.549805 45.182672 
L 411.549805 45.014449 
L 418.241498 45.014449 
L 418.365418 44.846226 
L 419.10894 44.846226 
L 419.10894 44.678003 
L 428.031196 44.678003 
L 428.155117 44.50978 
L 458.639494 44.50978 
L 458.639494 44.341556 
L 502.631177 44.341556 
L 502.631177 44.173333 
L 557.28 44.173333 
L 557.28 44.173333 
" clip-path="url(#p8e5319344c)" style="fill: none; stroke-dasharray: 2.5,4.125; stroke-dashoffset: 0; stroke: #2a9d8f; stroke-width: 2.5"/>
   </g>
   <g id="line2d_30">
    <path d="M 47.72 390.04 
L 557.28 44.173333 
" clip-path="url(#p8e5319344c)" style="fill: none; stroke-dasharray: 3.7,1.6; stroke-dashoffset: 0; stroke: #000000"/>
   </g>
   <g id="patch_3">
    <path d="M 47.72 390.04 
L 47.72 26.88 
" style="fill: none; stroke: #000000; stroke-width: 0.8; stroke-linejoin: miter; stroke-linecap: square"/>
   </g>
   <g id="patch_4">
    <path d="M 557.28 390.04 
L 557.28 26.88 
" style="fill: none; stroke: #000000; stroke-width: 0.8; stroke-linejoin: miter; stroke-linecap: square"/>
   </g>
   <g id="patch_5">
    <path d="M 47.72 390.04 
L 557.28 390.04 
" style="fill: none; stroke: #000000; stroke-width: 0.8; stroke-linejoin: miter; stroke-linecap: square"/>
   </g>
   <g id="patch_6">
    <path d="M 47.72 26.88 
L 557.28 26.88 
" style="fill: none; stroke: #000000; stroke-width: 0.8; stroke-linejoin: miter; stroke-linecap: square"/>
   </g>
   <g id="text_15">
    <!-- 国内冲突预测ROC曲线 -->
    <g transform="translate(260.610625 20.88) scale(0.12 -0.12)">
     <defs>
      <path id="DejaVuSans-56fd" d="M 319 -1131 
L 319 4513 
L 3519 4513 
L 3519 -1131 
L 319 -1131 
z
M 678 -775 
L 3163 -775 
L 3163 4153 
L 678 4153 
L 678 -775 
z
" transform="scale(0.015625)"/>
      <path id="DejaVuSans-5185" d="M 319 -1131 
L 319 4513 
L 3519 4513 
L 3519 -1131 
L 319 -1131 
z
M 678 -775 
L 3163 -775 
L 3163 4153 
L 678 4153 
L 678 -775 
z
" transform="scale(0.015625)"/>
      <path id="DejaVuSans-51b2" d="M 319 -1131 
L 319 4513 
L 3519 4513 
L 3519 -1131 
L 319 -1131 
z
M 678 -775 
L 3163 -775 
L 3163 4153 
L 678 4153 
L 678 -775 
z
" transform="scale(0.015625)"/>
      <path id="DejaVuSans-7a81" d="M 319 -1131 
L 319 4513 
L 3519 4513 
L 3519 -1131 
L 319 -1131 
z
M 678 -775 
L 3163 -775 
L 3163 4153 
L 678 4153 
L 678 -775 
z
" transform="scale(0.015625)"/>
      <path id="DejaVuSans-9884" d="M 319 -1131 
L 319 4513 
L 3519 4513 
L 3519 -1131 
L 319 -1131 
z
M 678 -775 
L 3163 -775 
L 3163 4153 
L 678 4153 
L 678 -775 
z
" transform="scale(0.015625)"/>
      <path id="DejaVuSans-6d4b" d="M 319 -1131 
L 319 4513 
L 3519 4513 
L 3519 -1131 
L 319 -1131 
z
M 678 -775 
L 3163 -775 
L 3163 4153 
L 678 4153 
L 678 -775 
z
" transform="scale(0.015625)"/>
      <path id="DejaVuSans-4f" d="M 2522 4238 
Q 1834 4238 1429 3725 
Q 1025 3213 1025 2328 
Q 1025 1447 1429 934 
Q 1834 422 2522 422 
Q 3209 422 3611 934 
Q 4013 1447 4013 2328 
Q 4013 3213 3611 3725 
Q 3209 4238 2522 4238 
z
M 2522 4750 
Q 3503 4750 4090 4092 
Q 4678 3434 4678 2328 
Q 4678 1225 4090 567 
Q 3503 -91 2522 -91 
Q 1538 -91 948 565 
Q 359 1222 359 2328 
Q 359 3434 948 4092 
Q 1538 4750 2522 4750 
z
" transform="scale(0.015625)"/>
      <path id="DejaVuSans-43" d="M 4122 4306 
L 4122 3641 
Q 3803 3938 3442 4084 
Q 3081 4231 2675 4231 
Q 1875 4231 1450 3742 
Q 1025 3253 1025 2328 
Q 1025 1406 1450 917 
Q 1875 428 2675 428 
Q 3081 428 3442 575 
Q 3803 722 4122 1019 
L 4122 359 
Q 3791 134 3420 21 
Q 3050 -91 2638 -91 
Q 1578 -91 968 557 
Q 359 1206 359 2328 
Q 359 3453 968 4101 
Q 1578 4750 2638 4750 
Q 3056 4750 3426 4639 
Q 3797 4528 4122 4306 
z
" transform="scale(0.015625)"/>
      <path id="DejaVuSans-66f2" d="M 319 -1131 
L 319 4513 
L 3519 4513 
L 3519 -1131 
L 319 -1131 
z
M 678 -775 
L 3163 -775 
L 3163 4153 
L 678 4153 
L 678 -775 
z
" transform="scale(0.015625)"/>
      <path id="DejaVuSans-7ebf" d="M 319 -1131 
L 319 4513 
L 3519 4513 
L 3519 -1131 
L 319 -1131 
z
M 678 -775 
L 3163 -775 
L 3163 4153 
L 678 4153 
L 678 -775 
z
" transform="scale(0.015625)"/>
     </defs>
     <use xlink:href="#DejaVuSans-56fd"/>
     <use xlink:href="#DejaVuSans-5185" transform="translate(60.009766 0)"/>
     <use xlink:href="#DejaVuSans-51b2" transform="translate(120.019531 0)"/>
     <use xlink:href="#DejaVuSans-7a81" transform="translate(180.029297 0)"/>
     <use xlink:href="#DejaVuSans-9884" transform="translate(240.039062 0)"/>
     <use xlink:href="#DejaVuSans-6d4b" transform="translate(300.048828 0)"/>
     <use xlink:href="#DejaVuSans-52" transform="translate(360.058594 0)"/>
     <use xlink:href="#DejaVuSans-4f" transform="translate(429.541016 0)"/>
     <use xlink:href="#DejaVuSans-43" transform="translate(508.251953 0)"/>
     <use xlink:href="#DejaVuSans-66f2" transform="translate(578.076172 0)"/>
     <use xlink:href="#DejaVuSans-7ebf" transform="translate(638.085938 0)"/>
    </g>
   </g>
   <g id="legend_1">
    <g id="patch_7">
     <path d="M 421.24875 385.04 
L 550.28 385.04 
Q 552.28 385.04 552.28 383.04 
L 552.28 310.649375 
Q 552.28 308.649375 550.28 308.649375 
L 421.24875 308.649375 
Q 419.24875 308.649375 419.24875 310.649375 
L 419.24875 383.04 
Q 419.24875 385.04 421.24875 385.04 
z
" style="fill: #ffffff; opacity: 0.8; stroke: #cccccc; stroke-linejoin: miter"/>
    </g>
    <g id="line2d_31">
     <path d="M 423.24875 316.747813 
L 433.24875 316.747813 
L 443.24875 316.747813 
" style="fill: none; stroke: #6c757d; stroke-width: 2; stroke-linecap: square"/>
    </g>
    <g id="text_16">
     <!-- 类别 0 (AUC = 0.967) -->
     <g transform="translate(451.24875 320.247813) scale(0.1 -0.1)">
      <defs>
       <path id="DejaVuSans-7c7b" d="M 319 -1131 
L 319 4513 
L 3519 4513 
L 3519 -1131 
L 319 -1131 
z
M 678 -775 
L 3163 -775 
L 3163 4153 
L 678 4153 
L 678 -775 
z
" transform="scale(0.015625)"/>
       <path id="DejaVuSans-522b" d="M 319 -1131 
L 319 4513 
L 3519 4513 
L 3519 -1131 
L 319 -1131 
z
M 678 -775 
L 3163 -775 
L 3163 4153 
L 678 4153 
L 678 -775 
z
" transform="scale(0.015625)"/>
       <path id="DejaVuSans-41" d="M 2188 4044 
L 1331 1722 
L 3047 1722 
L 2188 4044 
z
M 1831 4666 
L 2547 4666 
L 4325 0 
L 3669 0 
L 3244 1197 
L 1141 1197 
L 716 0 
L 50 0 
L 1831 4666 
z
" transform="scale(0.015625)"/>
       <path id="DejaVuSans-55" d="M 556 4666 
L 1191 4666 
L 1191 1831 
Q 1191 1081 1462 751 
Q 1734 422 2344 422 
Q 2950 422 3222 751 
Q 3494 1081 3494 1831 
L 3494 4666 
L 4128 4666 
L 4128 1753 
Q 4128 841 3676 375 
Q 3225 -91 2344 -91 
Q 1459 -91 1007 375 
Q 556 841 556 1753 
L 556 4666 
z
" transform="scale(0.015625)"/>
       <path id="DejaVuSans-3d" d="M 678 2906 
L 4684 2906 
L 4684 2381 
L 678 2381 
L 678 2906 
z
M 678 1631 
L 4684 1631 
L 4684 1100 
L 678 1100 
L 678 1631 
z
" transform="scale(0.015625)"/>
       <path id="DejaVuSans-39" d="M 703 97 
L 703 672 
Q 941 559 1184 500 
Q 1428 441 1663 441 
Q 2288 441 2617 861 
Q 2947 1281 2994 2138 
Q 2813 1869 2534 1725 
Q 2256 1581 1919 1581 
Q 1219 1581 811 2004 
Q 403 2428 403 3163 
Q 403 3881 828 4315 
Q 1253 4750 1959 4750 
Q 2769 4750 3195 4129 
Q 3622 3509 3622 2328 
Q 3622 1225 3098 567 
Q 2575 -91 1691 -91 
Q 1453 -91 1209 -44 
Q 966 3 703 97 
z
M 1959 2075 
Q 2384 2075 2632 2365 
Q 2881 2656 2881 3163 
Q 2881 3666 2632 3958 
Q 2384 4250 1959 4250 
Q 1534 4250 1286 3958 
Q 1038 3666 1038 3163 
Q 1038 2656 1286 2365 
Q 1534 2075 1959 2075 
z
" transform="scale(0.015625)"/>
       <path id="DejaVuSans-37" d="M 525 4666 
L 3525 4666 
L 3525 4397 
L 1831 0 
L 1172 0 
L 2766 4134 
L 525 4134 
L 525 4666 
z
" transform="scale(0.015625)"/>
      </defs>
      <use xlink:href="#DejaVuSans-7c7b"/>
      <use xlink:href="#DejaVuSans-522b" transform="translate(60.009766 0)"/>
      <use xlink:href="#DejaVuSans-20" transform="translate(120.019531 0)"/>
      <use xlink:href="#DejaVuSans-30" transform="translate(151.806641 0)"/>
      <use xlink:href="#DejaVuSans-20" transform="translate(215.429688 0)"/>
      <use xlink:href="#DejaVuSans-28" transform="translate(247.216797 0)"/>
      <use xlink:href="#DejaVuSans-41" transform="translate(286.230469 0)"/>
      <use xlink:href="#DejaVuSans-55" transform="translate(354.638672 0)"/>
      <use xlink:href="#DejaVuSans-43" transform="translate(427.832031 0)"/>
      <use xlink:href="#DejaVuSans-20" transform="translate(497.65625 0)"/>
      <use xlink:href="#DejaVuSans-3d" transform="translate(529.443359 0)"/>
      <use xlink:href="#DejaVuSans-20" transform="translate(613.232422 0)"/>
      <use xlink:href="#DejaVuSans-30" transform="translate(645.019531 0)"/>
      <use xlink:href="#DejaVuSans-2e" transform="translate(708.642578 0)"/>
      <use xlink:href="#DejaVuSans-39" transform="translate(740.429688 0)"/>
      <use xlink:href="#DejaVuSans-36" transform="translate(804.052734 0)"/>
      <use xlink:href="#DejaVuSans-37" transform="translate(867.675781 0)"/>
      <use xlink:href="#DejaVuSans-29" transform="translate(931.298828 0)"/>
     </g>
    </g>
    <g id="line2d_32">
     <path d="M 423.24875 331.425937 
L 433.24875 331.425937 
L 443.24875 331.425937 
" style="fill: none; stroke: #f4a261; stroke-width: 2; stroke-linecap: square"/>
    </g>
    <g id="text_17">
     <!-- 类别 1 (AUC = 0.944) -->
     <g transform="translate(451.24875 334.925937) scale(0.1 -0.1)">
      <use xlink:href="#DejaVuSans-7c7b"/>
      <use xlink:href="#DejaVuSans-522b" transform="translate(60.009766 0)"/>
      <use xlink:href="#DejaVuSans-20" transform="translate(120.019531 0)"/>
      <use xlink:href="#DejaVuSans-31" transform="translate(151.806641 0)"/>
      <use xlink:href="#DejaVuSans-20" transform="translate(215.429688 0)"/>
      <use xlink:href="#DejaVuSans-28" transform="translate(247.216797 0)"/>
      <use xlink:href="#DejaVuSans-41" transform="translate(286.230469 0)"/>
      <use xlink:href="#DejaVuSans-55" transform="translate(354.638672 0)"/>
      <use xlink:href="#DejaVuSans-43" transform="translate(427.832031 0)"/>
      <use xlink:href="#DejaVuSans-20" transform="translate(497.65625 0)"/>
      <use xlink:href="#DejaVuSans-3d" transform="translate(529.443359 0)"/>
      <use xlink:href="#DejaVuSans-20" transform="translate(613.232422 0)"/>
      <use xlink:href="#DejaVuSans-30" transform="translate(645.019531 0)"/>
      <use xlink:href="#DejaVuSans-2e" transform="translate(708.642578 0)"/>
      <use xlink:href="#DejaVuSans-39" transform="translate(740.429688 0)"/>
      <use xlink:href="#DejaVuSans-34" transform="translate(804.052734 0)"/>
      <use xlink:href="#DejaVuSans-34" transform="translate(867.675781 0)"/>
      <use xlink:href="#DejaVuSans-29" transform="translate(931.298828 0)"/>
     </g>
    </g>
    <g id="line2d_33">
     <path d="M 423.24875 346.104062 
L 433.24875 346.104062 
L 443.24875 346.104062 
" style="fill: none; stroke: #d62828; stroke-width: 2; stroke-linecap: square"/>
    </g>
    <g id="text_18">
     <!-- 类别 2 (AUC = 0.974) -->
     <g transform="translate(451.24875 349.604062) scale(0.1 -0.1)">
      <use xlink:href="#DejaVuSans-7c7b"/>
      <use xlink:href="#DejaVuSans-522b" transform="translate(60.009766 0)"/>
      <use xlink:href="#DejaVuSans-20" transform="translate(120.019531 0)"/>
      <use xlink:href="#DejaVuSans-32" transform="translate(151.806641 0)"/>
      <use xlink:href="#DejaVuSans-20" transform="translate(215.429688 0)"/>
      <use xlink:href="#DejaVuSans-28" transform="translate(247.216797 0)"/>
      <use xlink:href="#DejaVuSans-41" transform="translate(286.230469 0)"/>
      <use xlink:href="#DejaVuSans-55" transform="translate(354.638672 0)"/>
      <use xlink:href="#DejaVuSans-43" transform="translate(427.832031 0)"/>
      <use xlink:href="#DejaVuSans-20" transform="translate(497.65625 0)"/>
      <use xlink:href="#DejaVuSans-3d" transform="translate(529.443359 0)"/>
      <use xlink:href="#DejaVuSans-20" transform="translate(613.232422 0)"/>
      <use xlink:href="#DejaVuSans-30" transform="translate(645.019531 0)"/>
      <use xlink:href="#DejaVuSans-2e" transform="translate(708.642578 0)"/>
      <use xlink:href="#DejaVuSans-39" transform="translate(740.429688 0)"/>
      <use xlink:href="#DejaVuSans-37" transform="translate(804.052734 0)"/>
      <use xlink:href="#DejaVuSans-34" transform="translate(867.675781 0)"/>
      <use xlink:href="#DejaVuSans-29" transform="translate(931.298828 0)"/>
     </g>
    </g>
    <g id="line2d_34">
     <path d="M 423.24875 360.782187 
L 433.24875 360.782187 
L 443.24875 360.782187 
" style="fill: none; stroke-dasharray: 9.25,4; stroke-dashoffset: 0; stroke: #1d3557; stroke-width: 2.5"/>
    </g>
    <g id="text_19">
     <!-- 宏平均 (AUC = 0.962) -->
     <g transform="translate(451.24875 364.282187) scale(0.1 -0.1)">
      <defs>
       <path id="DejaVuSans-5b8f" d="M 319 -1131 
L 319 4513 
L 3519 4513 
L 3519 -1131 
L 319 -1131 
z
M 678 -775 
L 3163 -775 
L 3163 4153 
L 678 4153 
L 678 -775 
z
" transform="scale(0.015625)"/>
       <path id="DejaVuSans-5e73" d="M 319 -1131 
L 319 4513 
L 3519 4513 
L 3519 -1131 
L 319 -1131 
z
M 678 -775 
L 3163 -775 
L 3163 4153 
L 678 4153 
L 678 -775 
z
" transform="scale(0.015625)"/>
       <path id="DejaVuSans-5747" d="M 319 -1131 
L 319 4513 
L 3519 4513 
L 3519 -1131 
L 319 -1131 
z
M 678 -775 
L 3163 -775 
L 3163 4153 
L 678 4153 
L 678 -775 
z
" transform="scale(0.015625)"/>
      </defs>
      <use xlink:href="#DejaVuSans-5b8f"/>
      <use xlink:href="#DejaVuSans-5e73" transform="translate(60.009766 0)"/>
      <use xlink:href="#DejaVuSans-5747" transform="translate(120.019531 0)"/>
      <use xlink:href="#DejaVuSans-20" transform="translate(180.029297 0)"/>
      <use xlink:href="#DejaVuSans-28" transform="translate(211.816406 0)"/>
      <use xlink:href="#DejaVuSans-41" transform="translate(250.830078 0)"/>
      <use xlink:href="#DejaVuSans-55" transform="translate(319.238281 0)"/>
      <use xlink:href="#DejaVuSans-43" transform="translate(392.431641 0)"/>
      <use xlink:href="#DejaVuSans-20" transform="translate(462.255859 0)"/>
      <use xlink:href="#DejaVuSans-3d" transform="translate(494.042969 0)"/>
      <use xlink:href="#DejaVuSans-20" transform="translate(577.832031 0)"/>
      <use xlink:href="#DejaVuSans-30" transform="translate(609.619141 0)"/>
      <use xlink:href="#DejaVuSans-2e" transform="translate(673.242188 0)"/>
      <use xlink:href="#DejaVuSans-39" transform="translate(705.029297 0)"/>
      <use xlink:href="#DejaVuSans-36" transform="translate(768.652344 0)"/>
      <use xlink:href="#DejaVuSans-32" transform="translate(832.275391 0)"/>
      <use xlink:href="#DejaVuSans-29" transform="translate(895.898438 0)"/>
     </g>
    </g>
    <g id="line2d_35">
     <path d="M 423.24875 375.460312 
L 433.24875 375.460312 
L 443.24875 375.460312 
" style="fill: none; stroke-dasharray: 2.5,4.125; stroke-dashoffset: 0; stroke: #2a9d8f; stroke-width: 2.5"/>
    </g>
    <g id="text_20">
     <!-- 微平均 (AUC = 0.980) -->
     <g transform="translate(451.24875 378.960312) scale(0.1 -0.1)">
      <defs>
       <path id="DejaVuSans-5fae" d="M 319 -1131 
L 319 4513 
L 3519 4513 
L 3519 -1131 
L 319 -1131 
z
M 678 -775 
L 3163 -775 
L 3163 4153 
L 678 4153 
L 678 -775 
z
" transform="scale(0.015625)"/>
      </defs>
      <use xlink:href="#DejaVuSans-5fae"/>
      <use xlink:href="#DejaVuSans-5e73" transform="translate(60.009766 0)"/>
      <use xlink:href="#DejaVuSans-5747" transform="translate(120.019531 0)"/>
      <use xlink:href="#DejaVuSans-20" transform="translate(180.029297 0)"/>
      <use xlink:href="#DejaVuSans-28" transform="translate(211.816406 0)"/>
      <use xlink:href="#DejaVuSans-41" transform="translate(250.830078 0)"/>
      <use xlink:href="#DejaVuSans-55" transform="translate(319.238281 0)"/>
      <use xlink:href="#DejaVuSans-43" transform="translate(392.431641 0)"/>
      <use xlink:href="#DejaVuSans-20" transform="translate(462.255859 0)"/>
      <use xlink:href="#DejaVuSans-3d" transform="translate(494.042969 0)"/>
      <use xlink:href="#DejaVuSans-20" transform="translate(577.832031 0)"/>
      <use xlink:href="#DejaVuSans-30" transform="translate(609.619141 0)"/>
      <use xlink:href="#DejaVuSans-2e" transform="translate(673.242188 0)"/>
      <use xlink:href="#DejaVuSans-39" transform="translate(705.029297 0)"/>
      <use xlink:href="#DejaVuSans-38" transform="translate(768.652344 0)"/>
      <use xlink:href="#DejaVuSans-30" transform="translate(832.275391 0)"/>
      <use xlink:href="#DejaVuSans-29" transform="translate(895.898438 0)"/>
     </g>
    </g>
   </g>
  </g>
 </g>
 <defs>
  <clipPath id="p8e5319344c">
   <rect x="47.72" y="26.88" width="509.56" height="363.16"/>
  </clipPath>
 </defs>
</svg>
